<?xml version="1.0" encoding="utf-8" standalone="no"?>
<!DOCTYPE svg PUBLIC "-//W3C//DTD SVG 1.1//EN"
  "http://www.w3.org/Graphics/SVG/1.1/DTD/svg11.dtd">
<svg xmlns:xlink="http://www.w3.org/1999/xlink" width="460.8pt" height="345.6pt" viewBox="0 0 460.8 345.6" xmlns="http://www.w3.org/2000/svg" version="1.1">
 <metadata>
  <rdf:RDF xmlns:dc="http://purl.org/dc/elements/1.1/" xmlns:cc="http://creativecommons.org/ns#" xmlns:rdf="http://www.w3.org/1999/02/22-rdf-syntax-ns#">
   <cc:Work>
    <dc:type rdf:resource="http://purl.org/dc/dcmitype/StillImage"/>
    <dc:date>2023-04-20T15:48:36.081209</dc:date>
    <dc:format>image/svg+xml</dc:format>
    <dc:creator>
     <cc:Agent>
      <dc:title>Matplotlib v3.6.0, https://matplotlib.org/</dc:title>
     </cc:Agent>
    </dc:creator>
   </cc:Work>
  </rdf:RDF>
 </metadata>
 <defs>
  <style type="text/css">*{stroke-linejoin: round; stroke-linecap: butt}</style>
 </defs>
 <g id="figure_1">
  <g id="patch_1">
   <path d="M 0 345.6 
L 460.8 345.6 
L 460.8 0 
L 0 0 
z
" style="fill: #ffffff"/>
  </g>
  <g id="patch_2">
   <path d="M 77.184 307.584 
L 343.296 307.584 
L 343.296 41.472 
L 77.184 41.472 
z
" style="fill: #ffffff"/>
  </g>
  <g id="pane3d_1">
   <g id="patch_3">
    <path d="M 131.87353 252.89447 
L 295.798686 252.89447 
L 303.45874 260.554524 
L 124.213476 260.554524 
" style="fill: #f2f2f2; opacity: 0.5; stroke: #f2f2f2; stroke-linejoin: miter"/>
   </g>
  </g>
  <g id="pane3d_2">
   <g id="patch_4">
    <path d="M 295.798686 88.969314 
L 295.798686 252.89447 
L 303.45874 260.554524 
L 303.45874 81.30926 
" style="fill: #e6e6e6; opacity: 0.5; stroke: #e6e6e6; stroke-linejoin: miter"/>
   </g>
  </g>
  <g id="pane3d_3">
   <g id="patch_5">
    <path d="M 131.87353 88.969314 
L 131.87353 252.89447 
L 295.798686 252.89447 
L 295.798686 88.969314 
" style="fill: #ececec; opacity: 0.5; stroke: #ececec; stroke-linejoin: miter"/>
   </g>
  </g>
  <g id="axis3d_1">
   <g id="line2d_1">
    <path d="M 131.87353 252.89447 
L 131.87353 88.969314 
" style="fill: none; stroke: #000000; stroke-width: 0.8; stroke-linecap: square"/>
   </g>
   <g id="text_1">
    <!-- x (m) -->
    <g transform="translate(108.137889 190.912361) rotate(-90) scale(0.15 -0.15)">
     <defs>
      <path id="DejaVuSans-78" d="M 3513 3500 
L 2247 1797 
L 3578 0 
L 2900 0 
L 1881 1375 
L 863 0 
L 184 0 
L 1544 1831 
L 300 3500 
L 978 3500 
L 1906 2253 
L 2834 3500 
L 3513 3500 
z
" transform="scale(0.015625)"/>
      <path id="DejaVuSans-20" transform="scale(0.015625)"/>
      <path id="DejaVuSans-28" d="M 1984 4856 
Q 1566 4138 1362 3434 
Q 1159 2731 1159 2009 
Q 1159 1288 1364 580 
Q 1569 -128 1984 -844 
L 1484 -844 
Q 1016 -109 783 600 
Q 550 1309 550 2009 
Q 550 2706 781 3412 
Q 1013 4119 1484 4856 
L 1984 4856 
z
" transform="scale(0.015625)"/>
      <path id="DejaVuSans-6d" d="M 3328 2828 
Q 3544 3216 3844 3400 
Q 4144 3584 4550 3584 
Q 5097 3584 5394 3201 
Q 5691 2819 5691 2113 
L 5691 0 
L 5113 0 
L 5113 2094 
Q 5113 2597 4934 2840 
Q 4756 3084 4391 3084 
Q 3944 3084 3684 2787 
Q 3425 2491 3425 1978 
L 3425 0 
L 2847 0 
L 2847 2094 
Q 2847 2600 2669 2842 
Q 2491 3084 2119 3084 
Q 1678 3084 1418 2786 
Q 1159 2488 1159 1978 
L 1159 0 
L 581 0 
L 581 3500 
L 1159 3500 
L 1159 2956 
Q 1356 3278 1631 3431 
Q 1906 3584 2284 3584 
Q 2666 3584 2933 3390 
Q 3200 3197 3328 2828 
z
" transform="scale(0.015625)"/>
      <path id="DejaVuSans-29" d="M 513 4856 
L 1013 4856 
Q 1481 4119 1714 3412 
Q 1947 2706 1947 2009 
Q 1947 1309 1714 600 
Q 1481 -109 1013 -844 
L 513 -844 
Q 928 -128 1133 580 
Q 1338 1288 1338 2009 
Q 1338 2731 1133 3434 
Q 928 4138 513 4856 
z
" transform="scale(0.015625)"/>
     </defs>
     <use xlink:href="#DejaVuSans-78"/>
     <use xlink:href="#DejaVuSans-20" x="59.179688"/>
     <use xlink:href="#DejaVuSans-28" x="90.966797"/>
     <use xlink:href="#DejaVuSans-6d" x="129.980469"/>
     <use xlink:href="#DejaVuSans-29" x="227.392578"/>
    </g>
   </g>
   <g id="Line3DCollection_1">
    <path d="M 131.87353 99.400915 
L 295.798686 99.400915 
L 303.45874 92.715777 
" style="fill: none; stroke: #b0b0b0; stroke-width: 0.8"/>
    <path d="M 131.87353 135.54136 
L 295.798686 135.54136 
L 303.45874 132.233834 
" style="fill: none; stroke: #b0b0b0; stroke-width: 0.8"/>
    <path d="M 131.87353 171.681806 
L 295.798686 171.681806 
L 303.45874 171.751892 
" style="fill: none; stroke: #b0b0b0; stroke-width: 0.8"/>
    <path d="M 131.87353 207.822252 
L 295.798686 207.822252 
L 303.45874 211.269949 
" style="fill: none; stroke: #b0b0b0; stroke-width: 0.8"/>
    <path d="M 131.87353 243.962698 
L 295.798686 243.962698 
L 303.45874 250.788007 
" style="fill: none; stroke: #b0b0b0; stroke-width: 0.8"/>
   </g>
   <g id="xtick_1">
    <g id="line2d_2">
     <path d="M 133.184931 99.400915 
L 129.250727 99.400915 
" style="fill: none; stroke: #000000; stroke-width: 0.8; stroke-linecap: square"/>
    </g>
    <g id="text_2">
     <!-- −4 -->
     <g transform="translate(111.574078 107.503054) scale(0.1 -0.1)">
      <defs>
       <path id="DejaVuSans-2212" d="M 678 2272 
L 4684 2272 
L 4684 1741 
L 678 1741 
L 678 2272 
z
" transform="scale(0.015625)"/>
       <path id="DejaVuSans-34" d="M 2419 4116 
L 825 1625 
L 2419 1625 
L 2419 4116 
z
M 2253 4666 
L 3047 4666 
L 3047 1625 
L 3713 1625 
L 3713 1100 
L 3047 1100 
L 3047 0 
L 2419 0 
L 2419 1100 
L 313 1100 
L 313 1709 
L 2253 4666 
z
" transform="scale(0.015625)"/>
      </defs>
      <use xlink:href="#DejaVuSans-2212"/>
      <use xlink:href="#DejaVuSans-34" x="83.789062"/>
     </g>
    </g>
   </g>
   <g id="xtick_2">
    <g id="line2d_3">
     <path d="M 133.184931 135.54136 
L 129.250727 135.54136 
" style="fill: none; stroke: #000000; stroke-width: 0.8; stroke-linecap: square"/>
    </g>
    <g id="text_3">
     <!-- −2 -->
     <g transform="translate(111.574078 143.389009) scale(0.1 -0.1)">
      <defs>
       <path id="DejaVuSans-32" d="M 1228 531 
L 3431 531 
L 3431 0 
L 469 0 
L 469 531 
Q 828 903 1448 1529 
Q 2069 2156 2228 2338 
Q 2531 2678 2651 2914 
Q 2772 3150 2772 3378 
Q 2772 3750 2511 3984 
Q 2250 4219 1831 4219 
Q 1534 4219 1204 4116 
Q 875 4013 500 3803 
L 500 4441 
Q 881 4594 1212 4672 
Q 1544 4750 1819 4750 
Q 2544 4750 2975 4387 
Q 3406 4025 3406 3419 
Q 3406 3131 3298 2873 
Q 3191 2616 2906 2266 
Q 2828 2175 2409 1742 
Q 1991 1309 1228 531 
z
" transform="scale(0.015625)"/>
      </defs>
      <use xlink:href="#DejaVuSans-2212"/>
      <use xlink:href="#DejaVuSans-32" x="83.789062"/>
     </g>
    </g>
   </g>
   <g id="xtick_3">
    <g id="line2d_4">
     <path d="M 133.184931 171.681806 
L 129.250727 171.681806 
" style="fill: none; stroke: #000000; stroke-width: 0.8; stroke-linecap: square"/>
    </g>
    <g id="text_4">
     <!-- 0 -->
     <g transform="translate(115.763922 179.274963) scale(0.1 -0.1)">
      <defs>
       <path id="DejaVuSans-30" d="M 2034 4250 
Q 1547 4250 1301 3770 
Q 1056 3291 1056 2328 
Q 1056 1369 1301 889 
Q 1547 409 2034 409 
Q 2525 409 2770 889 
Q 3016 1369 3016 2328 
Q 3016 3291 2770 3770 
Q 2525 4250 2034 4250 
z
M 2034 4750 
Q 2819 4750 3233 4129 
Q 3647 3509 3647 2328 
Q 3647 1150 3233 529 
Q 2819 -91 2034 -91 
Q 1250 -91 836 529 
Q 422 1150 422 2328 
Q 422 3509 836 4129 
Q 1250 4750 2034 4750 
z
" transform="scale(0.015625)"/>
      </defs>
      <use xlink:href="#DejaVuSans-30"/>
     </g>
    </g>
   </g>
   <g id="xtick_4">
    <g id="line2d_5">
     <path d="M 133.184931 207.822252 
L 129.250727 207.822252 
" style="fill: none; stroke: #000000; stroke-width: 0.8; stroke-linecap: square"/>
    </g>
    <g id="text_5">
     <!-- 2 -->
     <g transform="translate(115.763922 215.160917) scale(0.1 -0.1)">
      <use xlink:href="#DejaVuSans-32"/>
     </g>
    </g>
   </g>
   <g id="xtick_5">
    <g id="line2d_6">
     <path d="M 133.184931 243.962698 
L 129.250727 243.962698 
" style="fill: none; stroke: #000000; stroke-width: 0.8; stroke-linecap: square"/>
    </g>
    <g id="text_6">
     <!-- 4 -->
     <g transform="translate(115.763922 251.046872) scale(0.1 -0.1)">
      <use xlink:href="#DejaVuSans-34"/>
     </g>
    </g>
   </g>
  </g>
  <g id="axis3d_2">
   <g id="line2d_7">
    <path d="M 295.798686 88.969314 
L 131.87353 88.969314 
" style="fill: none; stroke: #000000; stroke-width: 0.8; stroke-linecap: square"/>
   </g>
   <g id="text_7">
    <!-- y (m) -->
    <g transform="translate(193.855639 65.233673) scale(0.15 -0.15)">
     <defs>
      <path id="DejaVuSans-79" d="M 2059 -325 
Q 1816 -950 1584 -1140 
Q 1353 -1331 966 -1331 
L 506 -1331 
L 506 -850 
L 844 -850 
Q 1081 -850 1212 -737 
Q 1344 -625 1503 -206 
L 1606 56 
L 191 3500 
L 800 3500 
L 1894 763 
L 2988 3500 
L 3597 3500 
L 2059 -325 
z
" transform="scale(0.015625)"/>
     </defs>
     <use xlink:href="#DejaVuSans-79"/>
     <use xlink:href="#DejaVuSans-20" x="59.179688"/>
     <use xlink:href="#DejaVuSans-28" x="90.966797"/>
     <use xlink:href="#DejaVuSans-6d" x="129.980469"/>
     <use xlink:href="#DejaVuSans-29" x="227.392578"/>
    </g>
   </g>
   <g id="Line3DCollection_2">
    <path d="M 135.619993 260.554524 
L 142.305131 252.89447 
L 142.305131 88.969314 
" style="fill: none; stroke: #b0b0b0; stroke-width: 0.8"/>
    <path d="M 175.13805 260.554524 
L 178.445577 252.89447 
L 178.445577 88.969314 
" style="fill: none; stroke: #b0b0b0; stroke-width: 0.8"/>
    <path d="M 214.656108 260.554524 
L 214.586022 252.89447 
L 214.586022 88.969314 
" style="fill: none; stroke: #b0b0b0; stroke-width: 0.8"/>
    <path d="M 254.174165 260.554524 
L 250.726468 252.89447 
L 250.726468 88.969314 
" style="fill: none; stroke: #b0b0b0; stroke-width: 0.8"/>
    <path d="M 293.692223 260.554524 
L 286.866914 252.89447 
L 286.866914 88.969314 
" style="fill: none; stroke: #b0b0b0; stroke-width: 0.8"/>
   </g>
   <g id="xtick_6">
    <g id="line2d_8">
     <path d="M 142.305131 90.280715 
L 142.305131 86.346511 
" style="fill: none; stroke: #000000; stroke-width: 0.8; stroke-linecap: square"/>
    </g>
    <g id="text_8">
     <!-- −4 -->
     <g transform="translate(135.437739 83.639393) scale(0.1 -0.1)">
      <use xlink:href="#DejaVuSans-2212"/>
      <use xlink:href="#DejaVuSans-34" x="83.789062"/>
     </g>
    </g>
   </g>
   <g id="xtick_7">
    <g id="line2d_9">
     <path d="M 178.445577 90.280715 
L 178.445577 86.346511 
" style="fill: none; stroke: #000000; stroke-width: 0.8; stroke-linecap: square"/>
    </g>
    <g id="text_9">
     <!-- −2 -->
     <g transform="translate(171.323694 83.639393) scale(0.1 -0.1)">
      <use xlink:href="#DejaVuSans-2212"/>
      <use xlink:href="#DejaVuSans-32" x="83.789062"/>
     </g>
    </g>
   </g>
   <g id="xtick_8">
    <g id="line2d_10">
     <path d="M 214.586022 90.280715 
L 214.586022 86.346511 
" style="fill: none; stroke: #000000; stroke-width: 0.8; stroke-linecap: square"/>
    </g>
    <g id="text_10">
     <!-- 0 -->
     <g transform="translate(211.399492 83.639393) scale(0.1 -0.1)">
      <use xlink:href="#DejaVuSans-30"/>
     </g>
    </g>
   </g>
   <g id="xtick_9">
    <g id="line2d_11">
     <path d="M 250.726468 90.280715 
L 250.726468 86.346511 
" style="fill: none; stroke: #000000; stroke-width: 0.8; stroke-linecap: square"/>
    </g>
    <g id="text_11">
     <!-- 2 -->
     <g transform="translate(247.285446 83.639393) scale(0.1 -0.1)">
      <use xlink:href="#DejaVuSans-32"/>
     </g>
    </g>
   </g>
   <g id="xtick_10">
    <g id="line2d_12">
     <path d="M 286.866914 90.280715 
L 286.866914 86.346511 
" style="fill: none; stroke: #000000; stroke-width: 0.8; stroke-linecap: square"/>
    </g>
    <g id="text_12">
     <!-- 4 -->
     <g transform="translate(283.1714 83.639393) scale(0.1 -0.1)">
      <use xlink:href="#DejaVuSans-34"/>
     </g>
    </g>
   </g>
  </g>
  <g id="axis3d_3">
   <g id="line2d_13">
    <path d="M 295.798686 88.969314 
L 303.45874 81.30926 
" style="fill: none; stroke: #000000; stroke-width: 0.8; stroke-linecap: square"/>
   </g>
   <g id="text_13">
    <!-- M (kg) -->
    <g transform="translate(316.435368 74.18615) rotate(-45) scale(0.15 -0.15)">
     <defs>
      <path id="DejaVuSans-4d" d="M 628 4666 
L 1569 4666 
L 2759 1491 
L 3956 4666 
L 4897 4666 
L 4897 0 
L 4281 0 
L 4281 4097 
L 3078 897 
L 2444 897 
L 1241 4097 
L 1241 0 
L 628 0 
L 628 4666 
z
" transform="scale(0.015625)"/>
      <path id="DejaVuSans-6b" d="M 581 4863 
L 1159 4863 
L 1159 1991 
L 2875 3500 
L 3609 3500 
L 1753 1863 
L 3688 0 
L 2938 0 
L 1159 1709 
L 1159 0 
L 581 0 
L 581 4863 
z
" transform="scale(0.015625)"/>
      <path id="DejaVuSans-67" d="M 2906 1791 
Q 2906 2416 2648 2759 
Q 2391 3103 1925 3103 
Q 1463 3103 1205 2759 
Q 947 2416 947 1791 
Q 947 1169 1205 825 
Q 1463 481 1925 481 
Q 2391 481 2648 825 
Q 2906 1169 2906 1791 
z
M 3481 434 
Q 3481 -459 3084 -895 
Q 2688 -1331 1869 -1331 
Q 1566 -1331 1297 -1286 
Q 1028 -1241 775 -1147 
L 775 -588 
Q 1028 -725 1275 -790 
Q 1522 -856 1778 -856 
Q 2344 -856 2625 -561 
Q 2906 -266 2906 331 
L 2906 616 
Q 2728 306 2450 153 
Q 2172 0 1784 0 
Q 1141 0 747 490 
Q 353 981 353 1791 
Q 353 2603 747 3093 
Q 1141 3584 1784 3584 
Q 2172 3584 2450 3431 
Q 2728 3278 2906 2969 
L 2906 3500 
L 3481 3500 
L 3481 434 
z
" transform="scale(0.015625)"/>
     </defs>
     <use xlink:href="#DejaVuSans-4d"/>
     <use xlink:href="#DejaVuSans-20" x="86.279297"/>
     <use xlink:href="#DejaVuSans-28" x="118.066406"/>
     <use xlink:href="#DejaVuSans-6b" x="157.080078"/>
     <use xlink:href="#DejaVuSans-67" x="214.990234"/>
     <use xlink:href="#DejaVuSans-29" x="278.466797"/>
    </g>
   </g>
   <g id="Line3DCollection_3">
    <path d="M 297.079352 87.688648 
L 297.079352 254.175135 
L 130.592865 254.175135 
" style="fill: none; stroke: #b0b0b0; stroke-width: 0.8"/>
    <path d="M 298.764437 86.003563 
L 298.764437 255.860221 
L 128.907779 255.860221 
" style="fill: none; stroke: #b0b0b0; stroke-width: 0.8"/>
    <path d="M 300.519155 84.248845 
L 300.519155 257.614939 
L 127.153061 257.614939 
" style="fill: none; stroke: #b0b0b0; stroke-width: 0.8"/>
    <path d="M 302.347911 82.420089 
L 302.347911 259.443695 
L 125.324305 259.443695 
" style="fill: none; stroke: #b0b0b0; stroke-width: 0.8"/>
   </g>
   <g id="xtick_11">
    <g id="line2d_14">
     <path d="M 297.079352 89.02054 
L 297.079352 85.024865 
" style="fill: none; stroke: #000000; stroke-width: 0.8; stroke-linecap: square"/>
    </g>
    <g id="text_14">
     <!-- 0.001 -->
     <g transform="translate(296.579103 81.473272) scale(0.1 -0.1)">
      <defs>
       <path id="DejaVuSans-2e" d="M 684 794 
L 1344 794 
L 1344 0 
L 684 0 
L 684 794 
z
" transform="scale(0.015625)"/>
       <path id="DejaVuSans-31" d="M 794 531 
L 1825 531 
L 1825 4091 
L 703 3866 
L 703 4441 
L 1819 4666 
L 2450 4666 
L 2450 531 
L 3481 531 
L 3481 0 
L 794 0 
L 794 531 
z
" transform="scale(0.015625)"/>
      </defs>
      <use xlink:href="#DejaVuSans-30"/>
      <use xlink:href="#DejaVuSans-2e" x="63.623047"/>
      <use xlink:href="#DejaVuSans-30" x="95.410156"/>
      <use xlink:href="#DejaVuSans-30" x="159.033203"/>
      <use xlink:href="#DejaVuSans-31" x="222.65625"/>
     </g>
    </g>
   </g>
   <g id="xtick_12">
    <g id="line2d_15">
     <path d="M 298.764437 87.362416 
L 298.764437 83.285856 
" style="fill: none; stroke: #000000; stroke-width: 0.8; stroke-linecap: square"/>
    </g>
    <g id="text_15">
     <!-- 0.002 -->
     <g transform="translate(298.543821 79.508554) scale(0.1 -0.1)">
      <use xlink:href="#DejaVuSans-30"/>
      <use xlink:href="#DejaVuSans-2e" x="63.623047"/>
      <use xlink:href="#DejaVuSans-30" x="95.410156"/>
      <use xlink:href="#DejaVuSans-30" x="159.033203"/>
      <use xlink:href="#DejaVuSans-32" x="222.65625"/>
     </g>
    </g>
   </g>
   <g id="xtick_13">
    <g id="line2d_16">
     <path d="M 300.519155 85.635774 
L 300.519155 81.474988 
" style="fill: none; stroke: #000000; stroke-width: 0.8; stroke-linecap: square"/>
    </g>
    <g id="text_16">
     <!-- 0.003 -->
     <g transform="translate(300.589725 77.46265) scale(0.1 -0.1)">
      <defs>
       <path id="DejaVuSans-33" d="M 2597 2516 
Q 3050 2419 3304 2112 
Q 3559 1806 3559 1356 
Q 3559 666 3084 287 
Q 2609 -91 1734 -91 
Q 1441 -91 1130 -33 
Q 819 25 488 141 
L 488 750 
Q 750 597 1062 519 
Q 1375 441 1716 441 
Q 2309 441 2620 675 
Q 2931 909 2931 1356 
Q 2931 1769 2642 2001 
Q 2353 2234 1838 2234 
L 1294 2234 
L 1294 2753 
L 1863 2753 
Q 2328 2753 2575 2939 
Q 2822 3125 2822 3475 
Q 2822 3834 2567 4026 
Q 2313 4219 1838 4219 
Q 1578 4219 1281 4162 
Q 984 4106 628 3988 
L 628 4550 
Q 988 4650 1302 4700 
Q 1616 4750 1894 4750 
Q 2613 4750 3031 4423 
Q 3450 4097 3450 3541 
Q 3450 3153 3228 2886 
Q 3006 2619 2597 2516 
z
" transform="scale(0.015625)"/>
      </defs>
      <use xlink:href="#DejaVuSans-30"/>
      <use xlink:href="#DejaVuSans-2e" x="63.623047"/>
      <use xlink:href="#DejaVuSans-30" x="95.410156"/>
      <use xlink:href="#DejaVuSans-30" x="159.033203"/>
      <use xlink:href="#DejaVuSans-33" x="222.65625"/>
     </g>
    </g>
   </g>
   <g id="xtick_14">
    <g id="line2d_17">
     <path d="M 302.347911 83.836278 
L 302.347911 79.587711 
" style="fill: none; stroke: #000000; stroke-width: 0.8; stroke-linecap: square"/>
    </g>
    <g id="text_17">
     <!-- 0.004 -->
     <g transform="translate(302.721955 75.33042) scale(0.1 -0.1)">
      <use xlink:href="#DejaVuSans-30"/>
      <use xlink:href="#DejaVuSans-2e" x="63.623047"/>
      <use xlink:href="#DejaVuSans-30" x="95.410156"/>
      <use xlink:href="#DejaVuSans-30" x="159.033203"/>
      <use xlink:href="#DejaVuSans-34" x="222.65625"/>
     </g>
    </g>
   </g>
  </g>
  <g id="axes_1">
   <g id="Poly3DCollection_1">
    <path d="M 142.182646 100.853231 
L 142.182646 102.428033 
L 142.182646 104.002834 
L 142.182646 105.577635 
L 142.182646 107.152437 
L 142.182646 108.727238 
L 142.182646 110.30204 
L 142.182646 111.876841 
L 142.182646 113.451642 
L 142.182646 115.026444 
L 142.182646 116.601245 
L 142.182646 118.176046 
L 142.182646 119.750848 
L 142.182646 121.325649 
L 142.182646 122.90045 
L 142.182646 124.475252 
L 142.182646 126.050053 
L 142.182646 127.624855 
L 142.182646 129.199656 
L 142.182646 130.774457 
L 142.182646 132.349259 
L 142.182646 133.92406 
L 142.182646 135.498861 
L 142.182646 137.073663 
L 142.182646 138.648464 
L 142.182646 140.223265 
L 142.182646 141.798067 
L 142.182646 143.372868 
L 142.182646 144.947669 
L 142.182646 146.522471 
L 142.182646 148.097272 
L 142.182646 149.672074 
L 142.182646 151.246875 
L 142.182646 152.821676 
L 142.182646 154.396478 
L 142.182646 155.971279 
L 142.182646 157.54608 
L 142.182646 159.120882 
L 142.182646 160.695683 
L 142.182646 162.270484 
L 142.182646 163.845286 
L 142.182646 165.420087 
L 142.182646 166.994888 
L 142.182646 168.56969 
L 142.182646 170.144491 
L 142.182646 171.719293 
L 142.182646 173.294094 
L 142.182646 174.868895 
L 142.182646 176.443697 
L 142.182646 178.018498 
L 142.182646 179.593299 
L 142.182646 181.168101 
L 142.182646 182.742902 
L 142.182646 184.317703 
L 142.182646 185.892505 
L 142.182646 187.467306 
L 142.182646 189.042108 
L 142.182646 190.616909 
L 142.182646 192.19171 
L 142.182646 193.766512 
L 142.182646 195.341313 
L 142.182646 196.916114 
L 142.182646 198.490916 
L 142.182646 200.065717 
L 142.182646 201.640518 
L 142.182646 203.21532 
L 142.182646 204.790121 
L 142.182646 206.364922 
L 142.182646 207.939724 
L 142.182646 209.514525 
L 142.182646 211.089327 
L 142.182646 212.664128 
L 142.182646 214.238929 
L 142.182646 215.813731 
L 142.182646 217.388532 
L 142.182646 218.963333 
L 142.182646 220.538135 
L 142.182646 222.112936 
L 142.182646 223.687737 
L 142.182646 225.262539 
L 142.182646 226.83734 
L 142.182646 228.412142 
L 142.182646 229.986943 
L 142.182646 231.561744 
L 142.182646 233.136546 
L 142.182646 234.711347 
L 142.182646 236.286148 
L 142.182646 237.86095 
L 142.182646 239.435751 
L 142.182646 241.010552 
L 142.182646 242.585354 
L 143.757448 242.585354 
L 145.332249 242.585354 
L 146.90705 242.585354 
L 148.481852 242.585354 
L 150.056653 242.585354 
L 151.631454 242.585354 
L 153.206256 242.585354 
L 154.781057 242.585354 
L 156.355858 242.585354 
L 157.93066 242.585354 
L 159.505461 242.585354 
L 161.080263 242.585354 
L 162.655064 242.585354 
L 164.229865 242.585354 
L 165.804667 242.585354 
L 167.379468 242.585354 
L 168.954269 242.585354 
L 170.529071 242.585354 
L 172.103872 242.585354 
L 173.678673 242.585354 
L 175.253475 242.585354 
L 176.828276 242.585354 
L 178.403078 242.585354 
L 179.977879 242.585354 
L 181.55268 242.585354 
L 183.127482 242.585354 
L 184.702283 242.585354 
L 186.277084 242.585354 
L 187.851886 242.585354 
L 189.426687 242.585354 
L 191.001488 242.585354 
L 192.57629 242.585354 
L 194.151091 242.585354 
L 195.725892 242.585354 
L 197.300694 242.585354 
L 198.875495 242.585354 
L 200.450297 242.585354 
L 202.025098 242.585354 
L 203.599899 242.585354 
L 205.174701 242.585354 
L 206.749502 242.585354 
L 208.324303 242.585354 
L 209.899105 242.585354 
L 211.473906 242.585354 
L 213.048707 242.585354 
L 214.623509 242.585354 
L 216.19831 242.585354 
L 217.773112 242.585354 
L 219.347913 242.585354 
L 220.922714 242.585354 
L 222.497516 242.585354 
L 224.072317 242.585354 
L 225.647118 242.585354 
L 227.22192 242.585354 
L 228.796721 242.585354 
L 230.371522 242.585354 
L 231.946324 242.585354 
L 233.521125 242.585354 
L 235.095926 242.585354 
L 236.670728 242.585354 
L 238.245529 242.585354 
L 239.820331 242.585354 
L 241.395132 242.585354 
L 242.969933 242.585354 
L 244.544735 242.585354 
L 246.119536 242.585354 
L 247.694337 242.585354 
L 249.269139 242.585354 
L 250.84394 242.585354 
L 252.418741 242.585354 
L 253.993543 242.585354 
L 255.568344 242.585354 
L 257.143145 242.585354 
L 258.717947 242.585354 
L 260.292748 242.585354 
L 261.86755 242.585354 
L 263.442351 242.585354 
L 265.017152 242.585354 
L 266.591954 242.585354 
L 268.166755 242.585354 
L 269.741556 242.585354 
L 271.316358 242.585354 
L 272.891159 242.585354 
L 274.46596 242.585354 
L 276.040762 242.585354 
L 277.615563 242.585354 
L 279.190365 242.585354 
L 280.765166 242.585354 
L 282.339967 242.585354 
L 283.914769 242.585354 
L 285.48957 242.585354 
L 285.48957 241.010552 
L 285.48957 239.435751 
L 285.48957 237.86095 
L 285.48957 236.286148 
L 285.48957 234.711347 
L 285.48957 233.136546 
L 285.48957 231.561744 
L 285.48957 229.986943 
L 285.48957 228.412142 
L 285.48957 226.83734 
L 285.48957 225.262539 
L 285.48957 223.687737 
L 285.48957 222.112936 
L 285.48957 220.538135 
L 285.48957 218.963333 
L 285.48957 217.388532 
L 285.48957 215.813731 
L 285.48957 214.238929 
L 285.48957 212.664128 
L 285.48957 211.089327 
L 285.48957 209.514525 
L 285.48957 207.939724 
L 285.48957 206.364922 
L 285.48957 204.790121 
L 285.48957 203.21532 
L 285.48957 201.640518 
L 285.48957 200.065717 
L 285.48957 198.490916 
L 285.48957 196.916114 
L 285.48957 195.341313 
L 285.48957 193.766512 
L 285.48957 192.19171 
L 285.48957 190.616909 
L 285.48957 189.042108 
L 285.48957 187.467306 
L 285.48957 185.892505 
L 285.48957 184.317703 
L 285.48957 182.742902 
L 285.48957 181.168101 
L 285.48957 179.593299 
L 285.48957 178.018498 
L 285.48957 176.443697 
L 285.48957 174.868895 
L 285.48957 173.294094 
L 285.48957 171.719293 
L 285.48957 170.144491 
L 285.48957 168.56969 
L 285.48957 166.994888 
L 285.48957 165.420087 
L 285.48957 163.845286 
L 285.48957 162.270484 
L 285.48957 160.695683 
L 285.48957 159.120882 
L 285.48957 157.54608 
L 285.48957 155.971279 
L 285.48957 154.396478 
L 285.48957 152.821676 
L 285.48957 151.246875 
L 285.48957 149.672074 
L 285.48957 148.097272 
L 285.48957 146.522471 
L 285.48957 144.947669 
L 285.48957 143.372868 
L 285.48957 141.798067 
L 285.48957 140.223265 
L 285.48957 138.648464 
L 285.48957 137.073663 
L 285.48957 135.498861 
L 285.48957 133.92406 
L 285.48957 132.349259 
L 285.48957 130.774457 
L 285.48957 129.199656 
L 285.48957 127.624855 
L 285.48957 126.050053 
L 285.48957 124.475252 
L 285.48957 122.90045 
L 285.48957 121.325649 
L 285.48957 119.750848 
L 285.48957 118.176046 
L 285.48957 116.601245 
L 285.48957 115.026444 
L 285.48957 113.451642 
L 285.48957 111.876841 
L 285.48957 110.30204 
L 285.48957 108.727238 
L 285.48957 107.152437 
L 285.48957 105.577635 
L 285.48957 104.002834 
L 285.48957 102.428033 
L 285.48957 100.853231 
L 285.48957 99.27843 
L 283.914769 99.27843 
L 282.339967 99.27843 
L 280.765166 99.27843 
L 279.190365 99.27843 
L 277.615563 99.27843 
L 276.040762 99.27843 
L 274.46596 99.27843 
L 272.891159 99.27843 
L 271.316358 99.27843 
L 269.741556 99.27843 
L 268.166755 99.27843 
L 266.591954 99.27843 
L 265.017152 99.27843 
L 263.442351 99.27843 
L 261.86755 99.27843 
L 260.292748 99.27843 
L 258.717947 99.27843 
L 257.143145 99.27843 
L 255.568344 99.27843 
L 253.993543 99.27843 
L 252.418741 99.27843 
L 250.84394 99.27843 
L 249.269139 99.27843 
L 247.694337 99.27843 
L 246.119536 99.27843 
L 244.544735 99.27843 
L 242.969933 99.27843 
L 241.395132 99.27843 
L 239.820331 99.27843 
L 238.245529 99.27843 
L 236.670728 99.27843 
L 235.095926 99.27843 
L 233.521125 99.27843 
L 231.946324 99.27843 
L 230.371522 99.27843 
L 228.796721 99.27843 
L 227.22192 99.27843 
L 225.647118 99.27843 
L 224.072317 99.27843 
L 222.497516 99.27843 
L 220.922714 99.27843 
L 219.347913 99.27843 
L 217.773112 99.27843 
L 216.19831 99.27843 
L 214.623509 99.27843 
L 213.048707 99.27843 
L 211.473906 99.27843 
L 209.899105 99.27843 
L 208.324303 99.27843 
L 206.749502 99.27843 
L 205.174701 99.27843 
L 203.599899 99.27843 
L 202.025098 99.27843 
L 200.450297 99.27843 
L 198.875495 99.27843 
L 197.300694 99.27843 
L 195.725892 99.27843 
L 194.151091 99.27843 
L 192.57629 99.27843 
L 191.001488 99.27843 
L 189.426687 99.27843 
L 187.851886 99.27843 
L 186.277084 99.27843 
L 184.702283 99.27843 
L 183.127482 99.27843 
L 181.55268 99.27843 
L 179.977879 99.27843 
L 178.403078 99.27843 
L 176.828276 99.27843 
L 175.253475 99.27843 
L 173.678673 99.27843 
L 172.103872 99.27843 
L 170.529071 99.27843 
L 168.954269 99.27843 
L 167.379468 99.27843 
L 165.804667 99.27843 
L 164.229865 99.27843 
L 162.655064 99.27843 
L 161.080263 99.27843 
L 159.505461 99.27843 
L 157.93066 99.27843 
L 156.355858 99.27843 
L 154.781057 99.27843 
L 153.206256 99.27843 
L 151.631454 99.27843 
L 150.056653 99.27843 
L 148.481852 99.27843 
L 146.90705 99.27843 
L 145.332249 99.27843 
L 143.757448 99.27843 
L 142.182646 99.27843 
z
M 194.151091 181.557958 
L 194.208344 181.168101 
L 194.562499 179.593299 
L 195.053147 178.018498 
L 195.69567 176.443697 
L 195.725892 176.381 
L 196.404384 174.868895 
L 197.281912 173.294094 
L 197.300694 173.263946 
L 198.222313 171.719293 
L 198.875495 170.780614 
L 199.306593 170.144491 
L 200.450297 168.657384 
L 200.517152 168.56969 
L 201.820886 166.994888 
L 202.025098 166.766027 
L 203.248434 165.420087 
L 203.599899 165.056215 
L 204.813513 163.845286 
L 205.174701 163.499298 
L 206.531727 162.270484 
L 206.749502 162.077502 
L 208.324303 160.774084 
L 208.426501 160.695683 
L 209.899105 159.560186 
L 210.540724 159.120882 
L 211.473906 158.466642 
L 212.993052 157.54608 
L 213.048707 157.510933 
L 214.623509 156.614318 
L 216.01064 155.971279 
L 216.19831 155.87793 
L 217.773112 155.210875 
L 219.347913 154.696981 
L 220.59486 154.396478 
L 220.922714 154.307872 
L 222.497516 154.016486 
L 224.072317 153.866084 
L 225.647118 153.854855 
L 227.22192 153.986549 
L 228.796721 154.270733 
L 229.250849 154.396478 
L 230.371522 154.677782 
L 231.946324 155.233089 
L 233.500307 155.971279 
L 233.521125 155.980567 
L 235.095926 156.826927 
L 236.177234 157.54608 
L 236.670728 157.864742 
L 238.245529 159.060337 
L 238.317729 159.120882 
L 239.820331 160.380495 
L 240.160228 160.695683 
L 241.395132 161.859995 
L 241.800533 162.270484 
L 242.969933 163.495188 
L 243.289415 163.845286 
L 244.544735 165.293487 
L 244.652039 165.420087 
L 245.924454 166.994888 
L 246.119536 167.25491 
L 247.111389 168.56969 
L 247.694337 169.428746 
L 248.191966 170.144491 
L 249.166429 171.719293 
L 249.269139 171.902594 
L 250.089692 173.294094 
L 250.84394 174.822243 
L 250.868569 174.868895 
L 251.610112 176.443697 
L 252.208587 178.018498 
L 252.418741 178.695564 
L 252.728325 179.593299 
L 253.154659 181.168101 
L 253.463605 182.742902 
L 253.664263 184.317703 
L 253.762287 185.892505 
L 253.759826 187.467306 
L 253.655662 189.042108 
L 253.444907 190.616909 
L 253.118898 192.19171 
L 252.664593 193.766512 
L 252.418741 194.438499 
L 252.112633 195.341313 
L 251.445258 196.916114 
L 250.84394 198.068014 
L 250.631401 198.490916 
L 249.70441 200.065717 
L 249.269139 200.703065 
L 248.628313 201.640518 
L 247.694337 202.82753 
L 247.380552 203.21532 
L 246.119536 204.614853 
L 245.952468 204.790121 
L 244.544735 206.15843 
L 244.31315 206.364922 
L 242.969933 207.508353 
L 242.400052 207.939724 
L 241.395132 208.686588 
L 240.100262 209.514525 
L 239.820331 209.695025 
L 238.245529 210.593817 
L 237.188637 211.089327 
L 236.670728 211.343686 
L 235.095926 211.995207 
L 233.521125 212.499945 
L 232.858285 212.664128 
L 231.946324 212.913346 
L 230.371522 213.224112 
L 228.796721 213.416674 
L 227.22192 213.498393 
L 225.647118 213.472952 
L 224.072317 213.340497 
L 222.497516 213.097889 
L 220.922714 212.738653 
L 220.670921 212.664128 
L 219.347913 212.314715 
L 217.773112 211.783445 
L 216.19831 211.119366 
L 216.135472 211.089327 
L 214.623509 210.418793 
L 213.048707 209.575718 
L 212.944027 209.514525 
L 211.473906 208.696605 
L 210.292529 207.939724 
L 209.899105 207.695565 
L 208.324303 206.625336 
L 207.967518 206.364922 
L 206.749502 205.481315 
L 205.870483 204.790121 
L 205.174701 204.235139 
L 203.973546 203.21532 
L 203.599899 202.8862 
L 202.248516 201.640518 
L 202.025098 201.421312 
L 200.683003 200.065717 
L 200.450297 199.808173 
L 199.275577 198.490916 
L 198.875495 197.982638 
L 198.033485 196.916114 
L 197.300694 195.82306 
L 196.97142 195.341313 
L 196.063135 193.766512 
L 195.725892 193.036867 
L 195.314727 192.19171 
L 194.71961 190.616909 
L 194.296908 189.042108 
L 194.151091 188.215558 
L 194.004885 187.467306 
L 193.845272 185.892505 
L 193.829675 184.317703 
L 193.953399 182.742902 
z
" clip-path="url(#pb2e6aafa1b)" style="fill: #310597"/>
   </g>
   <g id="text_18">
    <!-- Mass of the anomaly at depth of 2.0 m -->
    <g transform="translate(16.000938 35.472) scale(0.2 -0.2)">
     <defs>
      <path id="DejaVuSans-61" d="M 2194 1759 
Q 1497 1759 1228 1600 
Q 959 1441 959 1056 
Q 959 750 1161 570 
Q 1363 391 1709 391 
Q 2188 391 2477 730 
Q 2766 1069 2766 1631 
L 2766 1759 
L 2194 1759 
z
M 3341 1997 
L 3341 0 
L 2766 0 
L 2766 531 
Q 2569 213 2275 61 
Q 1981 -91 1556 -91 
Q 1019 -91 701 211 
Q 384 513 384 1019 
Q 384 1609 779 1909 
Q 1175 2209 1959 2209 
L 2766 2209 
L 2766 2266 
Q 2766 2663 2505 2880 
Q 2244 3097 1772 3097 
Q 1472 3097 1187 3025 
Q 903 2953 641 2809 
L 641 3341 
Q 956 3463 1253 3523 
Q 1550 3584 1831 3584 
Q 2591 3584 2966 3190 
Q 3341 2797 3341 1997 
z
" transform="scale(0.015625)"/>
      <path id="DejaVuSans-73" d="M 2834 3397 
L 2834 2853 
Q 2591 2978 2328 3040 
Q 2066 3103 1784 3103 
Q 1356 3103 1142 2972 
Q 928 2841 928 2578 
Q 928 2378 1081 2264 
Q 1234 2150 1697 2047 
L 1894 2003 
Q 2506 1872 2764 1633 
Q 3022 1394 3022 966 
Q 3022 478 2636 193 
Q 2250 -91 1575 -91 
Q 1294 -91 989 -36 
Q 684 19 347 128 
L 347 722 
Q 666 556 975 473 
Q 1284 391 1588 391 
Q 1994 391 2212 530 
Q 2431 669 2431 922 
Q 2431 1156 2273 1281 
Q 2116 1406 1581 1522 
L 1381 1569 
Q 847 1681 609 1914 
Q 372 2147 372 2553 
Q 372 3047 722 3315 
Q 1072 3584 1716 3584 
Q 2034 3584 2315 3537 
Q 2597 3491 2834 3397 
z
" transform="scale(0.015625)"/>
      <path id="DejaVuSans-6f" d="M 1959 3097 
Q 1497 3097 1228 2736 
Q 959 2375 959 1747 
Q 959 1119 1226 758 
Q 1494 397 1959 397 
Q 2419 397 2687 759 
Q 2956 1122 2956 1747 
Q 2956 2369 2687 2733 
Q 2419 3097 1959 3097 
z
M 1959 3584 
Q 2709 3584 3137 3096 
Q 3566 2609 3566 1747 
Q 3566 888 3137 398 
Q 2709 -91 1959 -91 
Q 1206 -91 779 398 
Q 353 888 353 1747 
Q 353 2609 779 3096 
Q 1206 3584 1959 3584 
z
" transform="scale(0.015625)"/>
      <path id="DejaVuSans-66" d="M 2375 4863 
L 2375 4384 
L 1825 4384 
Q 1516 4384 1395 4259 
Q 1275 4134 1275 3809 
L 1275 3500 
L 2222 3500 
L 2222 3053 
L 1275 3053 
L 1275 0 
L 697 0 
L 697 3053 
L 147 3053 
L 147 3500 
L 697 3500 
L 697 3744 
Q 697 4328 969 4595 
Q 1241 4863 1831 4863 
L 2375 4863 
z
" transform="scale(0.015625)"/>
      <path id="DejaVuSans-74" d="M 1172 4494 
L 1172 3500 
L 2356 3500 
L 2356 3053 
L 1172 3053 
L 1172 1153 
Q 1172 725 1289 603 
Q 1406 481 1766 481 
L 2356 481 
L 2356 0 
L 1766 0 
Q 1100 0 847 248 
Q 594 497 594 1153 
L 594 3053 
L 172 3053 
L 172 3500 
L 594 3500 
L 594 4494 
L 1172 4494 
z
" transform="scale(0.015625)"/>
      <path id="DejaVuSans-68" d="M 3513 2113 
L 3513 0 
L 2938 0 
L 2938 2094 
Q 2938 2591 2744 2837 
Q 2550 3084 2163 3084 
Q 1697 3084 1428 2787 
Q 1159 2491 1159 1978 
L 1159 0 
L 581 0 
L 581 4863 
L 1159 4863 
L 1159 2956 
Q 1366 3272 1645 3428 
Q 1925 3584 2291 3584 
Q 2894 3584 3203 3211 
Q 3513 2838 3513 2113 
z
" transform="scale(0.015625)"/>
      <path id="DejaVuSans-65" d="M 3597 1894 
L 3597 1613 
L 953 1613 
Q 991 1019 1311 708 
Q 1631 397 2203 397 
Q 2534 397 2845 478 
Q 3156 559 3463 722 
L 3463 178 
Q 3153 47 2828 -22 
Q 2503 -91 2169 -91 
Q 1331 -91 842 396 
Q 353 884 353 1716 
Q 353 2575 817 3079 
Q 1281 3584 2069 3584 
Q 2775 3584 3186 3129 
Q 3597 2675 3597 1894 
z
M 3022 2063 
Q 3016 2534 2758 2815 
Q 2500 3097 2075 3097 
Q 1594 3097 1305 2825 
Q 1016 2553 972 2059 
L 3022 2063 
z
" transform="scale(0.015625)"/>
      <path id="DejaVuSans-6e" d="M 3513 2113 
L 3513 0 
L 2938 0 
L 2938 2094 
Q 2938 2591 2744 2837 
Q 2550 3084 2163 3084 
Q 1697 3084 1428 2787 
Q 1159 2491 1159 1978 
L 1159 0 
L 581 0 
L 581 3500 
L 1159 3500 
L 1159 2956 
Q 1366 3272 1645 3428 
Q 1925 3584 2291 3584 
Q 2894 3584 3203 3211 
Q 3513 2838 3513 2113 
z
" transform="scale(0.015625)"/>
      <path id="DejaVuSans-6c" d="M 603 4863 
L 1178 4863 
L 1178 0 
L 603 0 
L 603 4863 
z
" transform="scale(0.015625)"/>
      <path id="DejaVuSans-64" d="M 2906 2969 
L 2906 4863 
L 3481 4863 
L 3481 0 
L 2906 0 
L 2906 525 
Q 2725 213 2448 61 
Q 2172 -91 1784 -91 
Q 1150 -91 751 415 
Q 353 922 353 1747 
Q 353 2572 751 3078 
Q 1150 3584 1784 3584 
Q 2172 3584 2448 3432 
Q 2725 3281 2906 2969 
z
M 947 1747 
Q 947 1113 1208 752 
Q 1469 391 1925 391 
Q 2381 391 2643 752 
Q 2906 1113 2906 1747 
Q 2906 2381 2643 2742 
Q 2381 3103 1925 3103 
Q 1469 3103 1208 2742 
Q 947 2381 947 1747 
z
" transform="scale(0.015625)"/>
      <path id="DejaVuSans-70" d="M 1159 525 
L 1159 -1331 
L 581 -1331 
L 581 3500 
L 1159 3500 
L 1159 2969 
Q 1341 3281 1617 3432 
Q 1894 3584 2278 3584 
Q 2916 3584 3314 3078 
Q 3713 2572 3713 1747 
Q 3713 922 3314 415 
Q 2916 -91 2278 -91 
Q 1894 -91 1617 61 
Q 1341 213 1159 525 
z
M 3116 1747 
Q 3116 2381 2855 2742 
Q 2594 3103 2138 3103 
Q 1681 3103 1420 2742 
Q 1159 2381 1159 1747 
Q 1159 1113 1420 752 
Q 1681 391 2138 391 
Q 2594 391 2855 752 
Q 3116 1113 3116 1747 
z
" transform="scale(0.015625)"/>
     </defs>
     <use xlink:href="#DejaVuSans-4d"/>
     <use xlink:href="#DejaVuSans-61" x="86.279297"/>
     <use xlink:href="#DejaVuSans-73" x="147.558594"/>
     <use xlink:href="#DejaVuSans-73" x="199.658203"/>
     <use xlink:href="#DejaVuSans-20" x="251.757812"/>
     <use xlink:href="#DejaVuSans-6f" x="283.544922"/>
     <use xlink:href="#DejaVuSans-66" x="344.726562"/>
     <use xlink:href="#DejaVuSans-20" x="379.931641"/>
     <use xlink:href="#DejaVuSans-74" x="411.71875"/>
     <use xlink:href="#DejaVuSans-68" x="450.927734"/>
     <use xlink:href="#DejaVuSans-65" x="514.306641"/>
     <use xlink:href="#DejaVuSans-20" x="575.830078"/>
     <use xlink:href="#DejaVuSans-61" x="607.617188"/>
     <use xlink:href="#DejaVuSans-6e" x="668.896484"/>
     <use xlink:href="#DejaVuSans-6f" x="732.275391"/>
     <use xlink:href="#DejaVuSans-6d" x="793.457031"/>
     <use xlink:href="#DejaVuSans-61" x="890.869141"/>
     <use xlink:href="#DejaVuSans-6c" x="952.148438"/>
     <use xlink:href="#DejaVuSans-79" x="979.931641"/>
     <use xlink:href="#DejaVuSans-20" x="1039.111328"/>
     <use xlink:href="#DejaVuSans-61" x="1070.898438"/>
     <use xlink:href="#DejaVuSans-74" x="1132.177734"/>
     <use xlink:href="#DejaVuSans-20" x="1171.386719"/>
     <use xlink:href="#DejaVuSans-64" x="1203.173828"/>
     <use xlink:href="#DejaVuSans-65" x="1266.650391"/>
     <use xlink:href="#DejaVuSans-70" x="1328.173828"/>
     <use xlink:href="#DejaVuSans-74" x="1391.650391"/>
     <use xlink:href="#DejaVuSans-68" x="1430.859375"/>
     <use xlink:href="#DejaVuSans-20" x="1494.238281"/>
     <use xlink:href="#DejaVuSans-6f" x="1526.025391"/>
     <use xlink:href="#DejaVuSans-66" x="1587.207031"/>
     <use xlink:href="#DejaVuSans-20" x="1622.412109"/>
     <use xlink:href="#DejaVuSans-32" x="1654.199219"/>
     <use xlink:href="#DejaVuSans-2e" x="1717.822266"/>
     <use xlink:href="#DejaVuSans-30" x="1749.609375"/>
     <use xlink:href="#DejaVuSans-20" x="1813.232422"/>
     <use xlink:href="#DejaVuSans-6d" x="1845.019531"/>
    </g>
   </g>
   <g id="Poly3DCollection_2">
    <path d="M 193.717169 182.883231 
L 193.591975 184.476743 
L 193.607757 186.070255 
L 193.769267 187.663767 
L 193.91721 188.420909 
L 194.064759 189.257278 
L 194.492483 190.85079 
L 195.094671 192.444302 
L 195.510722 193.299501 
L 195.851971 194.037814 
L 196.771047 195.631326 
L 197.104233 196.118797 
L 197.845731 197.224838 
L 198.697745 198.304033 
L 199.10258 198.81835 
L 200.291257 200.151258 
L 200.526728 200.411861 
L 201.884769 201.783563 
L 202.110842 202.005373 
L 203.478281 203.265855 
L 203.856367 203.598885 
L 205.071793 204.630821 
L 205.775842 205.192397 
L 206.665305 205.891803 
L 207.897792 206.785909 
L 208.258817 207.049417 
L 209.852328 208.132361 
L 210.250427 208.379421 
L 211.44584 209.145294 
L 212.933428 209.972933 
L 213.039352 210.034853 
L 214.632864 210.887944 
L 216.162791 211.566445 
L 216.226376 211.596841 
L 217.819888 212.26881 
L 219.4134 212.806392 
L 220.752127 213.159956 
L 221.006912 213.235367 
L 222.600423 213.598871 
L 224.193935 213.844362 
L 225.787447 213.97839 
L 227.380959 214.004133 
L 228.974471 213.921443 
L 230.567983 213.726593 
L 232.161495 213.412135 
L 233.084291 213.159956 
L 233.755006 212.993823 
L 235.348518 212.483088 
L 236.94203 211.823826 
L 237.466092 211.566445 
L 238.535542 211.065048 
L 240.129054 210.155577 
L 240.412311 209.972933 
L 241.722566 209.135158 
L 242.739425 208.379421 
L 243.316078 207.942925 
L 244.675253 206.785909 
L 244.90959 206.576963 
L 246.334048 205.192397 
L 246.503101 205.015046 
L 247.7791 203.598885 
L 248.096613 203.206489 
L 249.041686 202.005373 
L 249.690125 201.056782 
L 250.130568 200.411861 
L 251.068573 198.81835 
L 251.283637 198.390423 
L 251.892099 197.224838 
L 252.567404 195.631326 
L 252.877149 194.717786 
L 253.125921 194.037814 
L 253.585624 192.444302 
L 253.915507 190.85079 
L 254.128766 189.257278 
L 254.234168 187.663767 
L 254.236658 186.070255 
L 254.137469 184.476743 
L 253.934427 182.883231 
L 253.62181 181.289719 
L 253.190411 179.696207 
L 252.877149 178.787806 
L 252.664498 178.102695 
L 252.058912 176.509183 
L 251.308559 174.915672 
L 251.283637 174.868465 
L 250.520428 173.32216 
L 249.690125 171.914127 
L 249.586195 171.728648 
L 248.600155 170.135136 
L 248.096613 169.410887 
L 247.506739 168.541624 
L 246.503101 167.211223 
L 246.305702 166.948112 
L 245.018169 165.3546 
L 244.90959 165.226496 
L 243.639355 163.761088 
L 243.316078 163.406831 
L 242.132784 162.167577 
L 241.722566 161.752211 
L 240.47299 160.574065 
L 240.129054 160.255131 
L 238.608599 158.980553 
L 238.535542 158.919289 
L 236.94203 157.709488 
L 236.442673 157.387041 
L 235.348518 156.659343 
L 233.755006 155.802928 
L 233.733941 155.793529 
L 232.161495 155.046569 
L 230.567983 154.484664 
L 229.433994 154.200017 
L 228.974471 154.072779 
L 227.380959 153.785218 
L 225.787447 153.65196 
L 224.193935 153.663322 
L 222.600423 153.815511 
L 221.006912 154.110359 
L 220.675162 154.200017 
L 219.4134 154.504091 
L 217.819888 155.024091 
L 216.226376 155.699071 
L 216.036476 155.793529 
L 214.632864 156.444208 
L 213.039352 157.351476 
L 212.983036 157.387041 
L 211.44584 158.31854 
L 210.501571 158.980553 
L 209.852328 159.425077 
L 208.362228 160.574065 
L 208.258817 160.653397 
L 206.665305 161.972302 
L 206.444942 162.167577 
L 205.071793 163.41099 
L 204.706314 163.761088 
L 203.478281 164.986405 
L 203.12264 165.3546 
L 201.884769 166.716532 
L 201.678131 166.948112 
L 200.358907 168.541624 
L 200.291257 168.63036 
L 199.133965 170.135136 
L 198.697745 170.778817 
L 198.036802 171.728648 
L 197.104233 173.291653 
L 197.085229 173.32216 
L 196.197275 174.915672 
L 195.510722 176.445742 
L 195.48014 176.509183 
L 194.829983 178.102695 
L 194.333506 179.696207 
L 193.975142 181.289719 
L 193.91721 181.684208 
z
M 201.884769 178.719038 
L 202.080485 178.102695 
L 202.738235 176.509183 
L 203.478281 175.103394 
L 203.573466 174.915672 
L 204.526283 173.32216 
L 205.071793 172.548147 
L 205.649757 171.728648 
L 206.665305 170.473127 
L 206.946331 170.135136 
L 208.258817 168.71189 
L 208.424923 168.541624 
L 209.852328 167.180286 
L 210.117958 166.948112 
L 211.44584 165.835685 
L 212.093751 165.3546 
L 213.039352 164.662303 
L 214.480143 163.761088 
L 214.632864 163.664333 
L 216.226376 162.783902 
L 217.637169 162.167577 
L 217.819888 162.083507 
L 219.4134 161.491668 
L 221.006912 161.068177 
L 222.600423 160.800087 
L 224.193935 160.68043 
L 225.787447 160.708034 
L 227.380959 160.887736 
L 228.974471 161.2306 
L 230.567983 161.754547 
L 231.496784 162.167577 
L 232.161495 162.449136 
L 233.755006 163.310759 
L 234.437685 163.761088 
L 235.348518 164.357199 
L 236.627934 165.3546 
L 236.94203 165.604035 
L 238.428971 166.948112 
L 238.535542 167.048947 
L 239.977306 168.541624 
L 240.129054 168.710723 
L 241.33902 170.135136 
L 241.722566 170.635346 
L 242.541354 171.728648 
L 243.316078 172.909587 
L 243.588068 173.32216 
L 244.516375 174.915672 
L 244.90959 175.715531 
L 245.316389 176.509183 
L 245.997135 178.102695 
L 246.503101 179.611259 
L 246.533891 179.696207 
L 246.991844 181.289719 
L 247.313506 182.883231 
L 247.508043 184.476743 
L 247.580159 186.070255 
L 247.529931 187.663767 
L 247.352834 189.257278 
L 247.039185 190.85079 
L 246.573803 192.444302 
L 246.503101 192.631691 
L 245.99646 194.037814 
L 245.242255 195.631326 
L 244.90959 196.210421 
L 244.324569 197.224838 
L 243.316078 198.655314 
L 243.196429 198.81835 
L 241.848807 200.411861 
L 241.722566 200.545543 
L 240.208435 202.005373 
L 240.129054 202.075851 
L 238.535542 203.346066 
L 238.163614 203.598885 
L 236.94203 204.4055 
L 235.465157 205.192397 
L 235.348518 205.254946 
L 233.755006 205.974076 
L 232.161495 206.513955 
L 231.054982 206.785909 
L 230.567983 206.914527 
L 228.974471 207.197996 
L 227.380959 207.342239 
L 225.787447 207.354997 
L 224.193935 207.239054 
L 222.600423 206.992686 
L 221.726553 206.785909 
L 221.006912 206.631551 
L 219.4134 206.167451 
L 217.819888 205.561581 
L 217.022414 205.192397 
L 216.226376 204.8415 
L 214.632864 204.002579 
L 213.968698 203.598885 
L 213.039352 203.040886 
L 211.548856 202.005373 
L 211.44584 201.932666 
L 209.852328 200.703448 
L 209.505397 200.411861 
L 208.258817 199.304744 
L 207.746151 198.81835 
L 206.665305 197.698085 
L 206.226875 197.224838 
L 205.071793 195.811205 
L 204.927183 195.631326 
L 203.808862 194.037814 
L 203.478281 193.463952 
L 202.878645 192.444302 
L 202.144392 190.85079 
L 201.884769 190.101311 
L 201.574511 189.257278 
L 201.16631 187.663767 
L 200.931532 186.070255 
L 200.856455 184.476743 
L 200.93398 182.883231 
L 201.163402 181.289719 
L 201.550124 179.696207 
z
" clip-path="url(#pb2e6aafa1b)" style="fill: #6600a7"/>
   </g>
   <g id="Poly3DCollection_3">
    <path d="M 201.402397 179.80159 
L 201.011024 181.414262 
L 200.778844 183.026934 
L 200.700387 184.639607 
L 200.776367 186.252279 
L 201.013967 187.864951 
L 201.427077 189.477624 
L 201.741066 190.331805 
L 202.00381 191.090296 
L 202.746892 192.702968 
L 203.353738 193.734879 
L 203.688294 194.315641 
L 204.820062 195.928313 
L 204.96641 196.110355 
L 206.135381 197.540985 
L 206.579083 198.019923 
L 207.672925 199.153658 
L 208.191755 199.645901 
L 209.453324 200.76633 
L 209.804427 201.061422 
L 211.4171 202.305421 
L 211.521354 202.379002 
L 213.029772 203.426966 
L 213.970292 203.991675 
L 214.642444 204.400223 
L 216.255117 205.24923 
L 217.060726 205.604347 
L 217.867789 205.97797 
L 219.480461 206.591125 
L 221.093134 207.060805 
L 221.821428 207.217019 
L 222.705806 207.426282 
L 224.318478 207.675613 
L 225.931151 207.79295 
L 227.543823 207.780038 
L 229.156495 207.634061 
L 230.769168 207.347184 
L 231.262023 207.217019 
L 232.38184 206.941795 
L 233.994512 206.395425 
L 235.607185 205.667648 
L 235.725226 205.604347 
L 237.219857 204.807988 
L 238.456129 203.991675 
L 238.832529 203.735816 
L 240.445202 202.450328 
L 240.525537 202.379002 
L 242.057874 200.901619 
L 242.185633 200.76633 
L 243.549459 199.153658 
L 243.670546 198.988662 
L 244.691164 197.540985 
L 245.283219 196.514371 
L 245.619884 195.928313 
L 246.383157 194.315641 
L 246.895891 192.89261 
L 246.967443 192.702968 
L 247.43842 191.090296 
L 247.75584 189.477624 
L 247.935068 187.864951 
L 247.985899 186.252279 
L 247.912916 184.639607 
L 247.71604 183.026934 
L 247.39051 181.414262 
L 246.927051 179.80159 
L 246.895891 179.71562 
L 246.383841 178.188917 
L 245.69491 176.576245 
L 245.283219 175.77305 
L 244.885276 174.963573 
L 243.945807 173.3509 
L 243.670546 172.933367 
L 242.886507 171.738228 
L 242.057874 170.631781 
L 241.669716 170.125556 
L 240.445202 168.684015 
L 240.291629 168.512883 
L 238.832529 167.002258 
L 238.724677 166.900211 
L 237.219857 165.539973 
L 236.901984 165.287539 
L 235.607185 164.278144 
L 234.685399 163.674866 
L 233.994512 163.219122 
L 232.38184 162.347139 
L 231.709137 162.062194 
L 230.769168 161.644198 
L 229.156495 161.113951 
L 227.543823 160.766965 
L 225.931151 160.585102 
L 224.318478 160.557166 
L 222.705806 160.678261 
L 221.093134 160.949575 
L 219.480461 161.378159 
L 217.867789 161.977113 
L 217.682873 162.062194 
L 216.255117 162.68593 
L 214.642444 163.576948 
L 214.487887 163.674866 
L 213.029772 164.586917 
L 212.0728 165.287539 
L 211.4171 165.774408 
L 210.073251 166.900211 
L 209.804427 167.135176 
L 208.359859 168.512883 
L 208.191755 168.685197 
L 206.863488 170.125556 
L 206.579083 170.467611 
L 205.551324 171.738228 
L 204.96641 172.567581 
L 204.414341 173.3509 
L 203.450068 174.963573 
L 203.353738 175.153552 
L 202.604794 176.576245 
L 201.939135 178.188917 
L 201.741066 178.812671 
z
M 206.579083 178.309705 
L 206.621891 178.188917 
L 207.362131 176.576245 
L 208.191755 175.168517 
L 208.313464 174.963573 
L 209.449255 173.3509 
L 209.804427 172.915381 
L 210.81896 171.738228 
L 211.4171 171.119687 
L 212.47153 170.125556 
L 213.029772 169.638279 
L 214.503124 168.512883 
L 214.642444 168.410787 
L 216.255117 167.381529 
L 217.193309 166.900211 
L 217.867789 166.552245 
L 219.480461 165.898168 
L 221.093134 165.435038 
L 221.912099 165.287539 
L 222.705806 165.134378 
L 224.318478 165.003886 
L 225.931151 165.056524 
L 227.474573 165.287539 
L 227.543823 165.297202 
L 229.156495 165.701345 
L 230.769168 166.309524 
L 231.926546 166.900211 
L 232.38184 167.131124 
L 233.994512 168.15767 
L 234.460886 168.512883 
L 235.607185 169.421739 
L 236.374419 170.125556 
L 237.219857 170.960178 
L 237.933336 171.738228 
L 238.832529 172.830556 
L 239.236343 173.3509 
L 240.330386 174.963573 
L 240.445202 175.159239 
L 241.267839 176.576245 
L 242.020537 178.188917 
L 242.057874 178.28697 
L 242.654864 179.80159 
L 243.12908 181.414262 
L 243.45427 183.026934 
L 243.63917 184.639607 
L 243.670546 185.697065 
L 243.688801 186.252279 
L 243.670546 186.54865 
L 243.595627 187.864951 
L 243.356511 189.477624 
L 242.9548 191.090296 
L 242.368244 192.702968 
L 242.057874 193.356758 
L 241.596682 194.315641 
L 240.598432 195.928313 
L 240.445202 196.137556 
L 239.338266 197.540985 
L 238.832529 198.088151 
L 237.719983 199.153658 
L 237.219857 199.583689 
L 235.607185 200.750621 
L 235.581166 200.76633 
L 233.994512 201.683485 
L 232.389366 202.379002 
L 232.38184 202.382261 
L 230.769168 202.922943 
L 229.156495 203.281711 
L 227.543823 203.477734 
L 225.931151 203.523166 
L 224.318478 203.423765 
L 222.705806 203.179575 
L 221.093134 202.785103 
L 219.899897 202.379002 
L 219.480461 202.242266 
L 217.867789 201.571976 
L 216.337736 200.76633 
L 216.255117 200.722738 
L 214.642444 199.73319 
L 213.834929 199.153658 
L 213.029772 198.546596 
L 211.848383 197.540985 
L 211.4171 197.140136 
L 210.21967 195.928313 
L 209.804427 195.44905 
L 208.871579 194.315641 
L 208.191755 193.325415 
L 207.772695 192.702968 
L 206.895177 191.090296 
L 206.579083 190.326485 
L 206.218864 189.477624 
L 205.732999 187.864951 
L 205.442261 186.252279 
L 205.331136 184.639607 
L 205.391467 183.026934 
L 205.622245 181.414262 
L 206.029319 179.80159 
z
" clip-path="url(#pb2e6aafa1b)" style="fill: #9511a1"/>
   </g>
   <g id="Poly3DCollection_4">
    <path d="M 205.934308 179.909537 
L 205.52228 181.541837 
L 205.288693 183.174136 
L 205.227627 184.806435 
L 205.340105 186.438734 
L 205.634381 188.071033 
L 206.126159 189.703332 
L 206.490762 190.562525 
L 206.810703 191.335632 
L 207.698901 192.967931 
L 208.123061 193.597953 
L 208.811159 194.60023 
L 209.75536 195.747433 
L 210.175656 196.232529 
L 211.387659 197.4591 
L 211.824192 197.864828 
L 213.019959 198.882678 
L 213.834914 199.497128 
L 214.652258 200.083713 
L 216.284557 201.085304 
L 216.368182 201.129427 
L 217.916856 201.944878 
L 219.549155 202.623326 
L 219.973696 202.761726 
L 221.181454 203.172769 
L 222.813754 203.572041 
L 224.446053 203.819203 
L 226.078352 203.919814 
L 227.710651 203.873829 
L 229.34295 203.675421 
L 230.975249 203.312286 
L 232.607549 202.765024 
L 232.615167 202.761726 
L 234.239848 202.057744 
L 235.845812 201.129427 
L 235.872147 201.113526 
L 237.504446 199.932393 
L 238.010659 199.497128 
L 239.136745 198.418654 
L 239.648637 197.864828 
L 240.769045 196.444318 
L 240.924139 196.232529 
L 241.934539 194.60023 
L 242.401344 193.629677 
L 242.715491 192.967931 
L 243.309186 191.335632 
L 243.715786 189.703332 
L 243.957812 188.071033 
L 244.033643 186.738712 
L 244.05212 186.438734 
L 244.033643 185.876763 
L 244.001885 184.806435 
L 243.814734 183.174136 
L 243.485587 181.541837 
L 243.0056 179.909537 
L 242.401344 178.376484 
L 242.363553 178.277238 
L 241.601694 176.644939 
L 240.769045 175.210687 
L 240.652831 175.01264 
L 239.545473 173.380341 
L 239.136745 172.853663 
L 238.226608 171.748041 
L 237.504446 170.960523 
L 236.648719 170.115742 
L 235.872147 169.40336 
L 234.711898 168.483443 
L 234.239848 168.123907 
L 232.607549 167.084868 
L 232.146713 166.851144 
L 230.975249 166.253268 
L 229.34295 165.637688 
L 227.710651 165.228626 
L 227.640558 165.218845 
L 226.078352 164.985019 
L 224.446053 164.93174 
L 222.813754 165.06382 
L 222.010387 165.218845 
L 221.181454 165.36814 
L 219.549155 165.836906 
L 217.916856 166.498943 
L 217.234167 166.851144 
L 216.284557 167.338319 
L 214.652258 168.380105 
L 214.511242 168.483443 
L 213.019959 169.622535 
L 212.454922 170.115742 
L 211.387659 171.121972 
L 210.78224 171.748041 
L 209.75536 172.939521 
L 209.395866 173.380341 
L 208.246251 175.01264 
L 208.123061 175.220078 
L 207.28334 176.644939 
L 206.534091 178.277238 
L 206.490762 178.399496 
z
M 209.75536 179.650366 
L 210.310844 178.277238 
L 211.203047 176.644939 
L 211.387659 176.368561 
L 212.344218 175.01264 
L 213.019959 174.212543 
L 213.795924 173.380341 
L 214.652258 172.572366 
L 215.666437 171.748041 
L 216.284557 171.285155 
L 217.916856 170.280328 
L 218.257078 170.115742 
L 219.549155 169.506324 
L 221.181454 168.957499 
L 222.813754 168.621052 
L 224.446053 168.487069 
L 226.078352 168.553344 
L 227.710651 168.8256 
L 229.34295 169.317688 
L 230.975249 170.052375 
L 231.084711 170.115742 
L 232.607549 171.0282 
L 233.560149 171.748041 
L 234.239848 172.300635 
L 235.365288 173.380341 
L 235.872147 173.925462 
L 236.776944 175.01264 
L 237.504446 176.036965 
L 237.909587 176.644939 
L 238.814427 178.277238 
L 239.136745 179.010514 
L 239.528194 179.909537 
L 240.06268 181.541837 
L 240.420557 183.174136 
L 240.610818 184.806435 
L 240.635506 186.438734 
L 240.48926 188.071033 
L 240.159006 189.703332 
L 239.622757 191.335632 
L 239.136745 192.387025 
L 238.854232 192.967931 
L 237.813736 194.60023 
L 237.504446 194.995016 
L 236.407854 196.232529 
L 235.872147 196.745362 
L 234.4664 197.864828 
L 234.239848 198.027094 
L 232.607549 198.977454 
L 231.38569 199.497128 
L 230.975249 199.665634 
L 229.34295 200.138508 
L 227.710651 200.408573 
L 226.078352 200.493836 
L 224.446053 200.403812 
L 222.813754 200.140526 
L 221.181454 199.698847 
L 220.644571 199.497128 
L 219.549155 199.085995 
L 217.916856 198.282843 
L 217.224565 197.864828 
L 216.284557 197.266907 
L 214.92559 196.232529 
L 214.652258 196.003349 
L 213.184113 194.60023 
L 213.019959 194.418416 
L 211.819892 192.967931 
L 211.387659 192.324805 
L 210.753637 191.335632 
L 209.953633 189.703332 
L 209.75536 189.1393 
L 209.378233 188.071033 
L 209.021233 186.438734 
L 208.875057 184.806435 
L 208.930485 183.174136 
L 209.186605 181.541837 
L 209.650507 179.909537 
z
" clip-path="url(#pb2e6aafa1b)" style="fill: #bc3587"/>
   </g>
   <g id="Poly3DCollection_5">
    <path d="M 209.598939 180.020145 
L 209.129321 181.672555 
L 208.870046 183.324964 
L 208.813935 184.977374 
L 208.961912 186.629783 
L 209.32331 188.282193 
L 209.705084 189.363621 
L 209.9058 189.934603 
L 210.71566 191.587012 
L 211.357494 192.588373 
L 211.795052 193.239422 
L 213.009903 194.707777 
L 213.17608 194.891832 
L 214.662313 196.312238 
L 214.939013 196.544241 
L 216.314723 197.591364 
L 217.266312 198.196651 
L 217.967132 198.619816 
L 219.619542 199.432863 
L 220.728454 199.849061 
L 221.271951 200.053265 
L 222.924361 200.500386 
L 224.576771 200.766916 
L 226.22918 200.858049 
L 227.88159 200.771735 
L 229.534 200.498343 
L 231.186409 200.019643 
L 231.601907 199.849061 
L 232.838819 199.322984 
L 234.491229 198.360916 
L 234.720572 198.196651 
L 236.143638 197.063393 
L 236.685945 196.544241 
L 237.796048 195.291482 
L 238.109148 194.891832 
L 239.162463 193.239422 
L 239.448458 192.65136 
L 239.940457 191.587012 
L 240.483312 189.934603 
L 240.817635 188.282193 
L 240.965684 186.629783 
L 240.940692 184.977374 
L 240.748086 183.324964 
L 240.3858 181.672555 
L 239.844729 180.020145 
L 239.448458 179.110046 
L 239.122169 178.367735 
L 238.20618 176.715326 
L 237.796048 176.099861 
L 237.059582 175.062916 
L 236.143638 173.962344 
L 235.630535 173.410506 
L 234.491229 172.317498 
L 233.803155 171.758097 
L 232.838819 171.029386 
L 231.29722 170.105687 
L 231.186409 170.041539 
L 229.534 169.2978 
L 227.88159 168.79965 
L 226.22918 168.524039 
L 224.576771 168.456948 
L 222.924361 168.592581 
L 221.271951 168.933174 
L 219.619542 169.48876 
L 218.311545 170.105687 
L 217.967132 170.2723 
L 216.314723 171.289507 
L 215.688987 171.758097 
L 214.662313 172.592577 
L 213.795429 173.410506 
L 213.009903 174.252962 
L 212.325838 175.062916 
L 211.357494 176.435543 
L 211.170607 176.715326 
L 210.267412 178.367735 
L 209.705084 179.75778 
z
M 213.009903 179.941311 
L 213.791056 178.367735 
L 214.662313 177.06307 
L 214.92124 176.715326 
L 216.314723 175.200148 
L 216.464503 175.062916 
L 217.967132 173.871362 
L 218.712704 173.410506 
L 219.619542 172.897308 
L 221.271951 172.222868 
L 222.924361 171.811372 
L 223.46563 171.758097 
L 224.576771 171.649362 
L 226.22918 171.734657 
L 226.345749 171.758097 
L 227.88159 172.071713 
L 229.534 172.675993 
L 230.899215 173.410506 
L 231.186409 173.577121 
L 232.838819 174.829908 
L 233.091114 175.062916 
L 234.491229 176.545355 
L 234.630797 176.715326 
L 235.77638 178.367735 
L 236.143638 179.039458 
L 236.6428 180.020145 
L 237.266367 181.672555 
L 237.674091 183.324964 
L 237.796048 184.326775 
L 237.875476 184.977374 
L 237.86932 186.629783 
L 237.796048 187.18236 
L 237.646131 188.282193 
L 237.185265 189.934603 
L 236.45335 191.587012 
L 236.143638 192.101556 
L 235.366075 193.239422 
L 234.491229 194.232843 
L 233.783788 194.891832 
L 232.838819 195.632753 
L 231.289927 196.544241 
L 231.186409 196.599052 
L 229.534 197.232894 
L 227.88159 197.605907 
L 226.22918 197.745307 
L 224.576771 197.666591 
L 222.924361 197.375055 
L 221.271951 196.866412 
L 220.534251 196.544241 
L 219.619542 196.121568 
L 217.967132 195.116922 
L 217.662141 194.891832 
L 216.314723 193.768808 
L 215.772575 193.239422 
L 214.662313 191.938403 
L 214.392769 191.587012 
L 213.390615 189.934603 
L 213.009903 189.057466 
L 212.688699 188.282193 
L 212.256928 186.629783 
L 212.074652 184.977374 
L 212.131856 183.324964 
L 212.428241 181.672555 
L 212.972901 180.020145 
z
" clip-path="url(#pb2e6aafa1b)" style="fill: #da5a6a"/>
   </g>
   <g id="Poly3DCollection_6">
    <path d="M 212.962134 180.133512 
L 212.41068 181.806534 
L 212.110597 183.479556 
L 212.05268 185.152577 
L 212.237229 186.825599 
L 212.674387 188.498621 
L 212.999597 189.283564 
L 213.385057 190.171643 
L 214.399712 191.844665 
L 214.672619 192.200438 
L 215.79673 193.517686 
L 216.345641 194.053676 
L 217.709867 195.190708 
L 218.018663 195.418606 
L 219.691684 196.435785 
L 220.617803 196.86373 
L 221.364706 197.18992 
L 223.037728 197.704908 
L 224.71075 198.00008 
L 226.383772 198.079778 
L 228.056794 197.938639 
L 229.729815 197.560973 
L 231.402837 196.919225 
L 231.507647 196.86373 
L 233.075859 195.940872 
L 234.032615 195.190708 
L 234.748881 194.5235 
L 235.634641 193.517686 
L 236.421903 192.365627 
L 236.735477 191.844665 
L 237.476522 190.171643 
L 237.943138 188.498621 
L 238.094924 187.385068 
L 238.169111 186.825599 
L 238.175343 185.152577 
L 238.094924 184.493863 
L 237.971446 183.479556 
L 237.558636 181.806534 
L 236.927291 180.133512 
L 236.421903 179.140591 
L 236.050063 178.46049 
L 234.89019 176.787468 
L 234.748881 176.615378 
L 233.331301 175.114446 
L 233.075859 174.878532 
L 231.402837 173.610118 
L 231.112061 173.441425 
L 229.729815 172.697748 
L 228.056794 172.085931 
L 226.501794 171.768403 
L 226.383772 171.744671 
L 224.71075 171.658312 
L 223.585749 171.768403 
L 223.037728 171.822343 
L 221.364706 172.238972 
L 219.691684 172.921824 
L 218.773535 173.441425 
L 218.018663 173.908029 
L 216.49729 175.114446 
L 216.345641 175.25339 
L 214.934776 176.787468 
L 214.672619 177.139551 
L 213.790494 178.46049 
L 212.999597 180.053694 
z
M 216.345641 180.337982 
L 216.442121 180.133512 
L 217.588669 178.46049 
L 218.018663 177.980826 
L 219.353461 176.787468 
L 219.691684 176.535908 
L 221.364706 175.62025 
L 222.876062 175.114446 
L 223.037728 175.065413 
L 224.71075 174.859697 
L 226.383772 174.963042 
L 226.997058 175.114446 
L 228.056794 175.39898 
L 229.729815 176.197143 
L 230.587661 176.787468 
L 231.402837 177.443542 
L 232.384576 178.46049 
L 233.075859 179.359027 
L 233.580579 180.133512 
L 234.383845 181.806534 
L 234.748881 182.994551 
L 234.885716 183.479556 
L 235.098717 185.152577 
L 235.044929 186.825599 
L 234.748881 188.30445 
L 234.705264 188.498621 
L 233.998267 190.171643 
L 233.075859 191.582582 
L 232.862072 191.844665 
L 231.402837 193.186936 
L 230.898892 193.517686 
L 229.729815 194.15452 
L 228.056794 194.713091 
L 226.383772 194.946592 
L 224.71075 194.882359 
L 223.037728 194.532236 
L 221.364706 193.893822 
L 220.680723 193.517686 
L 219.691684 192.891795 
L 218.429676 191.844665 
L 218.018663 191.421237 
L 217.012818 190.171643 
L 216.345641 189.028933 
L 216.071416 188.498621 
L 215.520011 186.825599 
L 215.285027 185.152577 
L 215.355988 183.479556 
L 215.734475 181.806534 
z
" clip-path="url(#pb2e6aafa1b)" style="fill: #f07f4f"/>
   </g>
   <g id="Poly3DCollection_7">
    <path d="M 215.758454 181.943898 
L 215.375186 183.638052 
L 215.303329 185.332207 
L 215.541281 187.026362 
L 216.099651 188.720517 
L 216.37734 189.257527 
L 217.052945 190.414671 
L 218.071495 191.680049 
L 218.4877 192.108826 
L 219.76565 193.169184 
L 220.767182 193.802981 
L 221.459804 194.183868 
L 223.153959 194.830345 
L 224.848114 195.184891 
L 226.542269 195.249936 
L 228.236423 195.013485 
L 229.930578 194.447859 
L 231.114422 193.802981 
L 231.624733 193.468053 
L 233.1024 192.108826 
L 233.318887 191.843433 
L 234.252947 190.414671 
L 234.968874 188.720517 
L 235.013042 188.523893 
L 235.31283 187.026362 
L 235.367298 185.332207 
L 235.151606 183.638052 
L 235.013042 183.146921 
L 234.643395 181.943898 
L 233.829982 180.249743 
L 233.318887 179.465475 
L 232.618873 178.555588 
L 231.624733 177.525794 
L 230.799259 176.861433 
L 229.930578 176.263651 
L 228.236423 175.455407 
L 227.163302 175.167279 
L 226.542269 175.013962 
L 224.848114 174.909312 
L 223.153959 175.117626 
L 222.990251 175.167279 
L 221.459804 175.679471 
L 219.76565 176.606695 
L 219.423153 176.861433 
L 218.071495 178.069865 
L 217.636069 178.555588 
L 216.475039 180.249743 
L 216.37734 180.456796 
z
M 219.76565 181.880301 
L 221.083573 180.249743 
L 221.459804 179.925328 
L 223.153959 178.996923 
L 224.848114 178.620731 
L 226.542269 178.776866 
L 228.236423 179.462053 
L 229.333402 180.249743 
L 229.930578 180.829265 
L 230.748582 181.943898 
L 231.523931 183.638052 
L 231.624733 184.20406 
L 231.789482 185.332207 
L 231.63791 187.026362 
L 231.624733 187.066254 
L 230.913639 188.720517 
L 229.930578 189.974628 
L 229.398681 190.414671 
L 228.236423 191.093013 
L 226.542269 191.551198 
L 224.848114 191.521144 
L 223.153959 191.033261 
L 222.03389 190.414671 
L 221.459804 189.995929 
L 220.265314 188.720517 
L 219.76565 187.883207 
L 219.364876 187.026362 
L 219.0276 185.332207 
L 219.145479 183.638052 
L 219.726953 181.943898 
z
" clip-path="url(#pb2e6aafa1b)" style="fill: #fdac33"/>
   </g>
   <g id="Poly3DCollection_8">
    <path d="M 219.802315 182.084776 
L 219.213403 183.800604 
L 219.094016 185.516433 
L 219.435607 187.232261 
L 219.841507 188.100068 
L 220.347564 188.94809 
L 221.557336 190.239818 
L 222.138765 190.663918 
L 223.273164 191.290422 
L 224.988992 191.784546 
L 226.704821 191.814984 
L 228.420649 191.350938 
L 229.597776 190.663918 
L 230.136477 190.218245 
L 231.132115 188.94809 
L 231.852306 187.272664 
L 231.865652 187.232261 
L 232.019163 185.516433 
L 231.852306 184.373853 
L 231.750215 183.800604 
L 230.964946 182.084776 
L 230.136477 180.955883 
L 229.531661 180.368948 
L 228.420649 179.571181 
L 226.704821 178.877228 
L 224.988992 178.719096 
L 223.273164 179.100101 
L 221.557336 180.040383 
L 221.176291 180.368948 
L 219.841507 182.020366 
z
" clip-path="url(#pb2e6aafa1b)" style="fill: #f8df25"/>
   </g>
  </g>
  <g id="axes_2">
   <g id="patch_6">
    <path d="M 361.152 241.056 
L 387.7632 241.056 
L 387.7632 108 
L 361.152 108 
z
" style="fill: #ffffff"/>
   </g>
   <g id="patch_7">
    <path clip-path="url(#p31975c373b)" style="fill: #ffffff; stroke: #ffffff; stroke-width: 0.01; stroke-linejoin: miter"/>
   </g>
   <g id="QuadMesh_1">
    <path d="M 361.152 241.056 
L 387.7632 241.056 
L 387.7632 224.424 
L 361.152 224.424 
L 361.152 241.056 
" clip-path="url(#p31975c373b)" style="fill: #310597"/>
    <path d="M 361.152 224.424 
L 387.7632 224.424 
L 387.7632 207.792 
L 361.152 207.792 
L 361.152 224.424 
" clip-path="url(#p31975c373b)" style="fill: #6600a7"/>
    <path d="M 361.152 207.792 
L 387.7632 207.792 
L 387.7632 191.16 
L 361.152 191.16 
L 361.152 207.792 
" clip-path="url(#p31975c373b)" style="fill: #9511a1"/>
    <path d="M 361.152 191.16 
L 387.7632 191.16 
L 387.7632 174.528 
L 361.152 174.528 
L 361.152 191.16 
" clip-path="url(#p31975c373b)" style="fill: #bc3587"/>
    <path d="M 361.152 174.528 
L 387.7632 174.528 
L 387.7632 157.896 
L 361.152 157.896 
L 361.152 174.528 
" clip-path="url(#p31975c373b)" style="fill: #da5a6a"/>
    <path d="M 361.152 157.896 
L 387.7632 157.896 
L 387.7632 141.264 
L 361.152 141.264 
L 361.152 157.896 
" clip-path="url(#p31975c373b)" style="fill: #f07f4f"/>
    <path d="M 361.152 141.264 
L 387.7632 141.264 
L 387.7632 124.632 
L 361.152 124.632 
L 361.152 141.264 
" clip-path="url(#p31975c373b)" style="fill: #fdac33"/>
    <path d="M 361.152 124.632 
L 387.7632 124.632 
L 387.7632 108 
L 361.152 108 
L 361.152 124.632 
" clip-path="url(#p31975c373b)" style="fill: #f8df25"/>
   </g>
   <g id="matplotlib.axis_1"/>
   <g id="matplotlib.axis_2">
    <g id="ytick_1">
     <g id="line2d_18">
      <defs>
       <path id="m8f7c8ee1dc" d="M 0 0 
L 3.5 0 
" style="stroke: #000000; stroke-width: 0.8"/>
      </defs>
      <g>
       <use xlink:href="#m8f7c8ee1dc" x="387.7632" y="241.056" style="stroke: #000000; stroke-width: 0.8"/>
      </g>
     </g>
     <g id="text_19">
      <!-- 0.0000 -->
      <g transform="translate(394.7632 244.855219) scale(0.1 -0.1)">
       <use xlink:href="#DejaVuSans-30"/>
       <use xlink:href="#DejaVuSans-2e" x="63.623047"/>
       <use xlink:href="#DejaVuSans-30" x="95.410156"/>
       <use xlink:href="#DejaVuSans-30" x="159.033203"/>
       <use xlink:href="#DejaVuSans-30" x="222.65625"/>
       <use xlink:href="#DejaVuSans-30" x="286.279297"/>
      </g>
     </g>
    </g>
    <g id="ytick_2">
     <g id="line2d_19">
      <g>
       <use xlink:href="#m8f7c8ee1dc" x="387.7632" y="224.424" style="stroke: #000000; stroke-width: 0.8"/>
      </g>
     </g>
     <g id="text_20">
      <!-- 0.0006 -->
      <g transform="translate(394.7632 228.223219) scale(0.1 -0.1)">
       <defs>
        <path id="DejaVuSans-36" d="M 2113 2584 
Q 1688 2584 1439 2293 
Q 1191 2003 1191 1497 
Q 1191 994 1439 701 
Q 1688 409 2113 409 
Q 2538 409 2786 701 
Q 3034 994 3034 1497 
Q 3034 2003 2786 2293 
Q 2538 2584 2113 2584 
z
M 3366 4563 
L 3366 3988 
Q 3128 4100 2886 4159 
Q 2644 4219 2406 4219 
Q 1781 4219 1451 3797 
Q 1122 3375 1075 2522 
Q 1259 2794 1537 2939 
Q 1816 3084 2150 3084 
Q 2853 3084 3261 2657 
Q 3669 2231 3669 1497 
Q 3669 778 3244 343 
Q 2819 -91 2113 -91 
Q 1303 -91 875 529 
Q 447 1150 447 2328 
Q 447 3434 972 4092 
Q 1497 4750 2381 4750 
Q 2619 4750 2861 4703 
Q 3103 4656 3366 4563 
z
" transform="scale(0.015625)"/>
       </defs>
       <use xlink:href="#DejaVuSans-30"/>
       <use xlink:href="#DejaVuSans-2e" x="63.623047"/>
       <use xlink:href="#DejaVuSans-30" x="95.410156"/>
       <use xlink:href="#DejaVuSans-30" x="159.033203"/>
       <use xlink:href="#DejaVuSans-30" x="222.65625"/>
       <use xlink:href="#DejaVuSans-36" x="286.279297"/>
      </g>
     </g>
    </g>
    <g id="ytick_3">
     <g id="line2d_20">
      <g>
       <use xlink:href="#m8f7c8ee1dc" x="387.7632" y="207.792" style="stroke: #000000; stroke-width: 0.8"/>
      </g>
     </g>
     <g id="text_21">
      <!-- 0.0012 -->
      <g transform="translate(394.7632 211.591219) scale(0.1 -0.1)">
       <use xlink:href="#DejaVuSans-30"/>
       <use xlink:href="#DejaVuSans-2e" x="63.623047"/>
       <use xlink:href="#DejaVuSans-30" x="95.410156"/>
       <use xlink:href="#DejaVuSans-30" x="159.033203"/>
       <use xlink:href="#DejaVuSans-31" x="222.65625"/>
       <use xlink:href="#DejaVuSans-32" x="286.279297"/>
      </g>
     </g>
    </g>
    <g id="ytick_4">
     <g id="line2d_21">
      <g>
       <use xlink:href="#m8f7c8ee1dc" x="387.7632" y="191.16" style="stroke: #000000; stroke-width: 0.8"/>
      </g>
     </g>
     <g id="text_22">
      <!-- 0.0018 -->
      <g transform="translate(394.7632 194.959219) scale(0.1 -0.1)">
       <defs>
        <path id="DejaVuSans-38" d="M 2034 2216 
Q 1584 2216 1326 1975 
Q 1069 1734 1069 1313 
Q 1069 891 1326 650 
Q 1584 409 2034 409 
Q 2484 409 2743 651 
Q 3003 894 3003 1313 
Q 3003 1734 2745 1975 
Q 2488 2216 2034 2216 
z
M 1403 2484 
Q 997 2584 770 2862 
Q 544 3141 544 3541 
Q 544 4100 942 4425 
Q 1341 4750 2034 4750 
Q 2731 4750 3128 4425 
Q 3525 4100 3525 3541 
Q 3525 3141 3298 2862 
Q 3072 2584 2669 2484 
Q 3125 2378 3379 2068 
Q 3634 1759 3634 1313 
Q 3634 634 3220 271 
Q 2806 -91 2034 -91 
Q 1263 -91 848 271 
Q 434 634 434 1313 
Q 434 1759 690 2068 
Q 947 2378 1403 2484 
z
M 1172 3481 
Q 1172 3119 1398 2916 
Q 1625 2713 2034 2713 
Q 2441 2713 2670 2916 
Q 2900 3119 2900 3481 
Q 2900 3844 2670 4047 
Q 2441 4250 2034 4250 
Q 1625 4250 1398 4047 
Q 1172 3844 1172 3481 
z
" transform="scale(0.015625)"/>
       </defs>
       <use xlink:href="#DejaVuSans-30"/>
       <use xlink:href="#DejaVuSans-2e" x="63.623047"/>
       <use xlink:href="#DejaVuSans-30" x="95.410156"/>
       <use xlink:href="#DejaVuSans-30" x="159.033203"/>
       <use xlink:href="#DejaVuSans-31" x="222.65625"/>
       <use xlink:href="#DejaVuSans-38" x="286.279297"/>
      </g>
     </g>
    </g>
    <g id="ytick_5">
     <g id="line2d_22">
      <g>
       <use xlink:href="#m8f7c8ee1dc" x="387.7632" y="174.528" style="stroke: #000000; stroke-width: 0.8"/>
      </g>
     </g>
     <g id="text_23">
      <!-- 0.0024 -->
      <g transform="translate(394.7632 178.327219) scale(0.1 -0.1)">
       <use xlink:href="#DejaVuSans-30"/>
       <use xlink:href="#DejaVuSans-2e" x="63.623047"/>
       <use xlink:href="#DejaVuSans-30" x="95.410156"/>
       <use xlink:href="#DejaVuSans-30" x="159.033203"/>
       <use xlink:href="#DejaVuSans-32" x="222.65625"/>
       <use xlink:href="#DejaVuSans-34" x="286.279297"/>
      </g>
     </g>
    </g>
    <g id="ytick_6">
     <g id="line2d_23">
      <g>
       <use xlink:href="#m8f7c8ee1dc" x="387.7632" y="157.896" style="stroke: #000000; stroke-width: 0.8"/>
      </g>
     </g>
     <g id="text_24">
      <!-- 0.0030 -->
      <g transform="translate(394.7632 161.695219) scale(0.1 -0.1)">
       <use xlink:href="#DejaVuSans-30"/>
       <use xlink:href="#DejaVuSans-2e" x="63.623047"/>
       <use xlink:href="#DejaVuSans-30" x="95.410156"/>
       <use xlink:href="#DejaVuSans-30" x="159.033203"/>
       <use xlink:href="#DejaVuSans-33" x="222.65625"/>
       <use xlink:href="#DejaVuSans-30" x="286.279297"/>
      </g>
     </g>
    </g>
    <g id="ytick_7">
     <g id="line2d_24">
      <g>
       <use xlink:href="#m8f7c8ee1dc" x="387.7632" y="141.264" style="stroke: #000000; stroke-width: 0.8"/>
      </g>
     </g>
     <g id="text_25">
      <!-- 0.0036 -->
      <g transform="translate(394.7632 145.063219) scale(0.1 -0.1)">
       <use xlink:href="#DejaVuSans-30"/>
       <use xlink:href="#DejaVuSans-2e" x="63.623047"/>
       <use xlink:href="#DejaVuSans-30" x="95.410156"/>
       <use xlink:href="#DejaVuSans-30" x="159.033203"/>
       <use xlink:href="#DejaVuSans-33" x="222.65625"/>
       <use xlink:href="#DejaVuSans-36" x="286.279297"/>
      </g>
     </g>
    </g>
    <g id="ytick_8">
     <g id="line2d_25">
      <g>
       <use xlink:href="#m8f7c8ee1dc" x="387.7632" y="124.632" style="stroke: #000000; stroke-width: 0.8"/>
      </g>
     </g>
     <g id="text_26">
      <!-- 0.0042 -->
      <g transform="translate(394.7632 128.431219) scale(0.1 -0.1)">
       <use xlink:href="#DejaVuSans-30"/>
       <use xlink:href="#DejaVuSans-2e" x="63.623047"/>
       <use xlink:href="#DejaVuSans-30" x="95.410156"/>
       <use xlink:href="#DejaVuSans-30" x="159.033203"/>
       <use xlink:href="#DejaVuSans-34" x="222.65625"/>
       <use xlink:href="#DejaVuSans-32" x="286.279297"/>
      </g>
     </g>
    </g>
    <g id="ytick_9">
     <g id="line2d_26">
      <g>
       <use xlink:href="#m8f7c8ee1dc" x="387.7632" y="108" style="stroke: #000000; stroke-width: 0.8"/>
      </g>
     </g>
     <g id="text_27">
      <!-- 0.0048 -->
      <g transform="translate(394.7632 111.799219) scale(0.1 -0.1)">
       <use xlink:href="#DejaVuSans-30"/>
       <use xlink:href="#DejaVuSans-2e" x="63.623047"/>
       <use xlink:href="#DejaVuSans-30" x="95.410156"/>
       <use xlink:href="#DejaVuSans-30" x="159.033203"/>
       <use xlink:href="#DejaVuSans-34" x="222.65625"/>
       <use xlink:href="#DejaVuSans-38" x="286.279297"/>
      </g>
     </g>
    </g>
   </g>
   <g id="LineCollection_1"/>
   <g id="patch_8">
    <path d="M 361.152 241.056 
L 374.4576 241.056 
L 387.7632 241.056 
L 387.7632 108 
L 374.4576 108 
L 361.152 108 
L 361.152 241.056 
z
" style="fill: none; stroke: #000000; stroke-width: 0.8; stroke-linejoin: miter; stroke-linecap: square"/>
   </g>
  </g>
 </g>
 <defs>
  <clipPath id="pb2e6aafa1b">
   <rect x="77.184" y="41.472" width="266.112" height="266.112"/>
  </clipPath>
  <clipPath id="p31975c373b">
   <rect x="361.152" y="108" width="26.6112" height="133.056"/>
  </clipPath>
 </defs>
</svg>
