<?xml version="1.0" encoding="utf-8" standalone="no"?>
<!DOCTYPE svg PUBLIC "-//W3C//DTD SVG 1.1//EN"
  "http://www.w3.org/Graphics/SVG/1.1/DTD/svg11.dtd">
<svg xmlns:xlink="http://www.w3.org/1999/xlink" width="460.8pt" height="345.6pt" viewBox="0 0 460.8 345.6" xmlns="http://www.w3.org/2000/svg" version="1.1">
 <metadata>
  <rdf:RDF xmlns:dc="http://purl.org/dc/elements/1.1/" xmlns:cc="http://creativecommons.org/ns#" xmlns:rdf="http://www.w3.org/1999/02/22-rdf-syntax-ns#">
   <cc:Work>
    <dc:type rdf:resource="http://purl.org/dc/dcmitype/StillImage"/>
    <dc:date>2023-04-20T18:56:09.087088</dc:date>
    <dc:format>image/svg+xml</dc:format>
    <dc:creator>
     <cc:Agent>
      <dc:title>Matplotlib v3.6.0, https://matplotlib.org/</dc:title>
     </cc:Agent>
    </dc:creator>
   </cc:Work>
  </rdf:RDF>
 </metadata>
 <defs>
  <style type="text/css">*{stroke-linejoin: round; stroke-linecap: butt}</style>
 </defs>
 <g id="figure_1">
  <g id="patch_1">
   <path d="M 0 345.6 
L 460.8 345.6 
L 460.8 0 
L 0 0 
z
" style="fill: #ffffff"/>
  </g>
  <g id="patch_2">
   <path d="M 77.184 307.584 
L 343.296 307.584 
L 343.296 41.472 
L 77.184 41.472 
z
" style="fill: #ffffff"/>
  </g>
  <g id="pane3d_1">
   <g id="patch_3">
    <path d="M 131.87353 252.89447 
L 295.798686 252.89447 
L 303.45874 260.554524 
L 124.213476 260.554524 
" style="fill: #f2f2f2; opacity: 0.5; stroke: #f2f2f2; stroke-linejoin: miter"/>
   </g>
  </g>
  <g id="pane3d_2">
   <g id="patch_4">
    <path d="M 295.798686 88.969314 
L 295.798686 252.89447 
L 303.45874 260.554524 
L 303.45874 81.30926 
" style="fill: #e6e6e6; opacity: 0.5; stroke: #e6e6e6; stroke-linejoin: miter"/>
   </g>
  </g>
  <g id="pane3d_3">
   <g id="patch_5">
    <path d="M 131.87353 88.969314 
L 131.87353 252.89447 
L 295.798686 252.89447 
L 295.798686 88.969314 
" style="fill: #ececec; opacity: 0.5; stroke: #ececec; stroke-linejoin: miter"/>
   </g>
  </g>
  <g id="axis3d_1">
   <g id="line2d_1">
    <path d="M 131.87353 252.89447 
L 131.87353 88.969314 
" style="fill: none; stroke: #000000; stroke-width: 0.8; stroke-linecap: square"/>
   </g>
   <g id="text_1">
    <!-- x (m) -->
    <g transform="translate(108.137889 190.912361) rotate(-90) scale(0.15 -0.15)">
     <defs>
      <path id="DejaVuSans-78" d="M 3513 3500 
L 2247 1797 
L 3578 0 
L 2900 0 
L 1881 1375 
L 863 0 
L 184 0 
L 1544 1831 
L 300 3500 
L 978 3500 
L 1906 2253 
L 2834 3500 
L 3513 3500 
z
" transform="scale(0.015625)"/>
      <path id="DejaVuSans-20" transform="scale(0.015625)"/>
      <path id="DejaVuSans-28" d="M 1984 4856 
Q 1566 4138 1362 3434 
Q 1159 2731 1159 2009 
Q 1159 1288 1364 580 
Q 1569 -128 1984 -844 
L 1484 -844 
Q 1016 -109 783 600 
Q 550 1309 550 2009 
Q 550 2706 781 3412 
Q 1013 4119 1484 4856 
L 1984 4856 
z
" transform="scale(0.015625)"/>
      <path id="DejaVuSans-6d" d="M 3328 2828 
Q 3544 3216 3844 3400 
Q 4144 3584 4550 3584 
Q 5097 3584 5394 3201 
Q 5691 2819 5691 2113 
L 5691 0 
L 5113 0 
L 5113 2094 
Q 5113 2597 4934 2840 
Q 4756 3084 4391 3084 
Q 3944 3084 3684 2787 
Q 3425 2491 3425 1978 
L 3425 0 
L 2847 0 
L 2847 2094 
Q 2847 2600 2669 2842 
Q 2491 3084 2119 3084 
Q 1678 3084 1418 2786 
Q 1159 2488 1159 1978 
L 1159 0 
L 581 0 
L 581 3500 
L 1159 3500 
L 1159 2956 
Q 1356 3278 1631 3431 
Q 1906 3584 2284 3584 
Q 2666 3584 2933 3390 
Q 3200 3197 3328 2828 
z
" transform="scale(0.015625)"/>
      <path id="DejaVuSans-29" d="M 513 4856 
L 1013 4856 
Q 1481 4119 1714 3412 
Q 1947 2706 1947 2009 
Q 1947 1309 1714 600 
Q 1481 -109 1013 -844 
L 513 -844 
Q 928 -128 1133 580 
Q 1338 1288 1338 2009 
Q 1338 2731 1133 3434 
Q 928 4138 513 4856 
z
" transform="scale(0.015625)"/>
     </defs>
     <use xlink:href="#DejaVuSans-78"/>
     <use xlink:href="#DejaVuSans-20" x="59.179688"/>
     <use xlink:href="#DejaVuSans-28" x="90.966797"/>
     <use xlink:href="#DejaVuSans-6d" x="129.980469"/>
     <use xlink:href="#DejaVuSans-29" x="227.392578"/>
    </g>
   </g>
   <g id="Line3DCollection_1">
    <path d="M 131.87353 99.400915 
L 295.798686 99.400915 
L 303.45874 92.715777 
" style="fill: none; stroke: #b0b0b0; stroke-width: 0.8"/>
    <path d="M 131.87353 135.54136 
L 295.798686 135.54136 
L 303.45874 132.233834 
" style="fill: none; stroke: #b0b0b0; stroke-width: 0.8"/>
    <path d="M 131.87353 171.681806 
L 295.798686 171.681806 
L 303.45874 171.751892 
" style="fill: none; stroke: #b0b0b0; stroke-width: 0.8"/>
    <path d="M 131.87353 207.822252 
L 295.798686 207.822252 
L 303.45874 211.269949 
" style="fill: none; stroke: #b0b0b0; stroke-width: 0.8"/>
    <path d="M 131.87353 243.962698 
L 295.798686 243.962698 
L 303.45874 250.788007 
" style="fill: none; stroke: #b0b0b0; stroke-width: 0.8"/>
   </g>
   <g id="xtick_1">
    <g id="line2d_2">
     <path d="M 133.184931 99.400915 
L 129.250727 99.400915 
" style="fill: none; stroke: #000000; stroke-width: 0.8; stroke-linecap: square"/>
    </g>
    <g id="text_2">
     <!-- −4 -->
     <g transform="translate(111.574078 107.503054) scale(0.1 -0.1)">
      <defs>
       <path id="DejaVuSans-2212" d="M 678 2272 
L 4684 2272 
L 4684 1741 
L 678 1741 
L 678 2272 
z
" transform="scale(0.015625)"/>
       <path id="DejaVuSans-34" d="M 2419 4116 
L 825 1625 
L 2419 1625 
L 2419 4116 
z
M 2253 4666 
L 3047 4666 
L 3047 1625 
L 3713 1625 
L 3713 1100 
L 3047 1100 
L 3047 0 
L 2419 0 
L 2419 1100 
L 313 1100 
L 313 1709 
L 2253 4666 
z
" transform="scale(0.015625)"/>
      </defs>
      <use xlink:href="#DejaVuSans-2212"/>
      <use xlink:href="#DejaVuSans-34" x="83.789062"/>
     </g>
    </g>
   </g>
   <g id="xtick_2">
    <g id="line2d_3">
     <path d="M 133.184931 135.54136 
L 129.250727 135.54136 
" style="fill: none; stroke: #000000; stroke-width: 0.8; stroke-linecap: square"/>
    </g>
    <g id="text_3">
     <!-- −2 -->
     <g transform="translate(111.574078 143.389009) scale(0.1 -0.1)">
      <defs>
       <path id="DejaVuSans-32" d="M 1228 531 
L 3431 531 
L 3431 0 
L 469 0 
L 469 531 
Q 828 903 1448 1529 
Q 2069 2156 2228 2338 
Q 2531 2678 2651 2914 
Q 2772 3150 2772 3378 
Q 2772 3750 2511 3984 
Q 2250 4219 1831 4219 
Q 1534 4219 1204 4116 
Q 875 4013 500 3803 
L 500 4441 
Q 881 4594 1212 4672 
Q 1544 4750 1819 4750 
Q 2544 4750 2975 4387 
Q 3406 4025 3406 3419 
Q 3406 3131 3298 2873 
Q 3191 2616 2906 2266 
Q 2828 2175 2409 1742 
Q 1991 1309 1228 531 
z
" transform="scale(0.015625)"/>
      </defs>
      <use xlink:href="#DejaVuSans-2212"/>
      <use xlink:href="#DejaVuSans-32" x="83.789062"/>
     </g>
    </g>
   </g>
   <g id="xtick_3">
    <g id="line2d_4">
     <path d="M 133.184931 171.681806 
L 129.250727 171.681806 
" style="fill: none; stroke: #000000; stroke-width: 0.8; stroke-linecap: square"/>
    </g>
    <g id="text_4">
     <!-- 0 -->
     <g transform="translate(115.763922 179.274963) scale(0.1 -0.1)">
      <defs>
       <path id="DejaVuSans-30" d="M 2034 4250 
Q 1547 4250 1301 3770 
Q 1056 3291 1056 2328 
Q 1056 1369 1301 889 
Q 1547 409 2034 409 
Q 2525 409 2770 889 
Q 3016 1369 3016 2328 
Q 3016 3291 2770 3770 
Q 2525 4250 2034 4250 
z
M 2034 4750 
Q 2819 4750 3233 4129 
Q 3647 3509 3647 2328 
Q 3647 1150 3233 529 
Q 2819 -91 2034 -91 
Q 1250 -91 836 529 
Q 422 1150 422 2328 
Q 422 3509 836 4129 
Q 1250 4750 2034 4750 
z
" transform="scale(0.015625)"/>
      </defs>
      <use xlink:href="#DejaVuSans-30"/>
     </g>
    </g>
   </g>
   <g id="xtick_4">
    <g id="line2d_5">
     <path d="M 133.184931 207.822252 
L 129.250727 207.822252 
" style="fill: none; stroke: #000000; stroke-width: 0.8; stroke-linecap: square"/>
    </g>
    <g id="text_5">
     <!-- 2 -->
     <g transform="translate(115.763922 215.160917) scale(0.1 -0.1)">
      <use xlink:href="#DejaVuSans-32"/>
     </g>
    </g>
   </g>
   <g id="xtick_5">
    <g id="line2d_6">
     <path d="M 133.184931 243.962698 
L 129.250727 243.962698 
" style="fill: none; stroke: #000000; stroke-width: 0.8; stroke-linecap: square"/>
    </g>
    <g id="text_6">
     <!-- 4 -->
     <g transform="translate(115.763922 251.046872) scale(0.1 -0.1)">
      <use xlink:href="#DejaVuSans-34"/>
     </g>
    </g>
   </g>
  </g>
  <g id="axis3d_2">
   <g id="line2d_7">
    <path d="M 295.798686 88.969314 
L 131.87353 88.969314 
" style="fill: none; stroke: #000000; stroke-width: 0.8; stroke-linecap: square"/>
   </g>
   <g id="text_7">
    <!-- y (m) -->
    <g transform="translate(193.855639 65.233673) scale(0.15 -0.15)">
     <defs>
      <path id="DejaVuSans-79" d="M 2059 -325 
Q 1816 -950 1584 -1140 
Q 1353 -1331 966 -1331 
L 506 -1331 
L 506 -850 
L 844 -850 
Q 1081 -850 1212 -737 
Q 1344 -625 1503 -206 
L 1606 56 
L 191 3500 
L 800 3500 
L 1894 763 
L 2988 3500 
L 3597 3500 
L 2059 -325 
z
" transform="scale(0.015625)"/>
     </defs>
     <use xlink:href="#DejaVuSans-79"/>
     <use xlink:href="#DejaVuSans-20" x="59.179688"/>
     <use xlink:href="#DejaVuSans-28" x="90.966797"/>
     <use xlink:href="#DejaVuSans-6d" x="129.980469"/>
     <use xlink:href="#DejaVuSans-29" x="227.392578"/>
    </g>
   </g>
   <g id="Line3DCollection_2">
    <path d="M 135.619993 260.554524 
L 142.305131 252.89447 
L 142.305131 88.969314 
" style="fill: none; stroke: #b0b0b0; stroke-width: 0.8"/>
    <path d="M 175.13805 260.554524 
L 178.445577 252.89447 
L 178.445577 88.969314 
" style="fill: none; stroke: #b0b0b0; stroke-width: 0.8"/>
    <path d="M 214.656108 260.554524 
L 214.586022 252.89447 
L 214.586022 88.969314 
" style="fill: none; stroke: #b0b0b0; stroke-width: 0.8"/>
    <path d="M 254.174165 260.554524 
L 250.726468 252.89447 
L 250.726468 88.969314 
" style="fill: none; stroke: #b0b0b0; stroke-width: 0.8"/>
    <path d="M 293.692223 260.554524 
L 286.866914 252.89447 
L 286.866914 88.969314 
" style="fill: none; stroke: #b0b0b0; stroke-width: 0.8"/>
   </g>
   <g id="xtick_6">
    <g id="line2d_8">
     <path d="M 142.305131 90.280715 
L 142.305131 86.346511 
" style="fill: none; stroke: #000000; stroke-width: 0.8; stroke-linecap: square"/>
    </g>
    <g id="text_8">
     <!-- −4 -->
     <g transform="translate(135.437739 83.639393) scale(0.1 -0.1)">
      <use xlink:href="#DejaVuSans-2212"/>
      <use xlink:href="#DejaVuSans-34" x="83.789062"/>
     </g>
    </g>
   </g>
   <g id="xtick_7">
    <g id="line2d_9">
     <path d="M 178.445577 90.280715 
L 178.445577 86.346511 
" style="fill: none; stroke: #000000; stroke-width: 0.8; stroke-linecap: square"/>
    </g>
    <g id="text_9">
     <!-- −2 -->
     <g transform="translate(171.323694 83.639393) scale(0.1 -0.1)">
      <use xlink:href="#DejaVuSans-2212"/>
      <use xlink:href="#DejaVuSans-32" x="83.789062"/>
     </g>
    </g>
   </g>
   <g id="xtick_8">
    <g id="line2d_10">
     <path d="M 214.586022 90.280715 
L 214.586022 86.346511 
" style="fill: none; stroke: #000000; stroke-width: 0.8; stroke-linecap: square"/>
    </g>
    <g id="text_10">
     <!-- 0 -->
     <g transform="translate(211.399492 83.639393) scale(0.1 -0.1)">
      <use xlink:href="#DejaVuSans-30"/>
     </g>
    </g>
   </g>
   <g id="xtick_9">
    <g id="line2d_11">
     <path d="M 250.726468 90.280715 
L 250.726468 86.346511 
" style="fill: none; stroke: #000000; stroke-width: 0.8; stroke-linecap: square"/>
    </g>
    <g id="text_11">
     <!-- 2 -->
     <g transform="translate(247.285446 83.639393) scale(0.1 -0.1)">
      <use xlink:href="#DejaVuSans-32"/>
     </g>
    </g>
   </g>
   <g id="xtick_10">
    <g id="line2d_12">
     <path d="M 286.866914 90.280715 
L 286.866914 86.346511 
" style="fill: none; stroke: #000000; stroke-width: 0.8; stroke-linecap: square"/>
    </g>
    <g id="text_12">
     <!-- 4 -->
     <g transform="translate(283.1714 83.639393) scale(0.1 -0.1)">
      <use xlink:href="#DejaVuSans-34"/>
     </g>
    </g>
   </g>
  </g>
  <g id="axis3d_3">
   <g id="line2d_13">
    <path d="M 295.798686 88.969314 
L 303.45874 81.30926 
" style="fill: none; stroke: #000000; stroke-width: 0.8; stroke-linecap: square"/>
   </g>
   <g id="text_13">
    <!-- M (kg) -->
    <g transform="translate(316.435368 74.18615) rotate(-45) scale(0.15 -0.15)">
     <defs>
      <path id="DejaVuSans-4d" d="M 628 4666 
L 1569 4666 
L 2759 1491 
L 3956 4666 
L 4897 4666 
L 4897 0 
L 4281 0 
L 4281 4097 
L 3078 897 
L 2444 897 
L 1241 4097 
L 1241 0 
L 628 0 
L 628 4666 
z
" transform="scale(0.015625)"/>
      <path id="DejaVuSans-6b" d="M 581 4863 
L 1159 4863 
L 1159 1991 
L 2875 3500 
L 3609 3500 
L 1753 1863 
L 3688 0 
L 2938 0 
L 1159 1709 
L 1159 0 
L 581 0 
L 581 4863 
z
" transform="scale(0.015625)"/>
      <path id="DejaVuSans-67" d="M 2906 1791 
Q 2906 2416 2648 2759 
Q 2391 3103 1925 3103 
Q 1463 3103 1205 2759 
Q 947 2416 947 1791 
Q 947 1169 1205 825 
Q 1463 481 1925 481 
Q 2391 481 2648 825 
Q 2906 1169 2906 1791 
z
M 3481 434 
Q 3481 -459 3084 -895 
Q 2688 -1331 1869 -1331 
Q 1566 -1331 1297 -1286 
Q 1028 -1241 775 -1147 
L 775 -588 
Q 1028 -725 1275 -790 
Q 1522 -856 1778 -856 
Q 2344 -856 2625 -561 
Q 2906 -266 2906 331 
L 2906 616 
Q 2728 306 2450 153 
Q 2172 0 1784 0 
Q 1141 0 747 490 
Q 353 981 353 1791 
Q 353 2603 747 3093 
Q 1141 3584 1784 3584 
Q 2172 3584 2450 3431 
Q 2728 3278 2906 2969 
L 2906 3500 
L 3481 3500 
L 3481 434 
z
" transform="scale(0.015625)"/>
     </defs>
     <use xlink:href="#DejaVuSans-4d"/>
     <use xlink:href="#DejaVuSans-20" x="86.279297"/>
     <use xlink:href="#DejaVuSans-28" x="118.066406"/>
     <use xlink:href="#DejaVuSans-6b" x="157.080078"/>
     <use xlink:href="#DejaVuSans-67" x="214.990234"/>
     <use xlink:href="#DejaVuSans-29" x="278.466797"/>
    </g>
   </g>
   <g id="Line3DCollection_3">
    <path d="M 296.750327 88.017673 
L 296.750327 253.846111 
L 130.921889 253.846111 
" style="fill: none; stroke: #b0b0b0; stroke-width: 0.8"/>
    <path d="M 298.082282 86.685718 
L 298.082282 255.178066 
L 129.589934 255.178066 
" style="fill: none; stroke: #b0b0b0; stroke-width: 0.8"/>
    <path d="M 299.45773 85.31027 
L 299.45773 256.553514 
L 128.214486 256.553514 
" style="fill: none; stroke: #b0b0b0; stroke-width: 0.8"/>
    <path d="M 300.878836 83.889164 
L 300.878836 257.974619 
L 126.793381 257.974619 
" style="fill: none; stroke: #b0b0b0; stroke-width: 0.8"/>
    <path d="M 302.347911 82.420089 
L 302.347911 259.443695 
L 125.324305 259.443695 
" style="fill: none; stroke: #b0b0b0; stroke-width: 0.8"/>
   </g>
   <g id="xtick_11">
    <g id="line2d_14">
     <path d="M 296.750327 89.344301 
L 296.750327 85.364418 
" style="fill: none; stroke: #000000; stroke-width: 0.8; stroke-linecap: square"/>
    </g>
    <g id="text_14">
     <!-- 0.02 -->
     <g transform="translate(299.376728 81.856897) scale(0.1 -0.1)">
      <defs>
       <path id="DejaVuSans-2e" d="M 684 794 
L 1344 794 
L 1344 0 
L 684 0 
L 684 794 
z
" transform="scale(0.015625)"/>
      </defs>
      <use xlink:href="#DejaVuSans-30"/>
      <use xlink:href="#DejaVuSans-2e" x="63.623047"/>
      <use xlink:href="#DejaVuSans-30" x="95.410156"/>
      <use xlink:href="#DejaVuSans-32" x="159.033203"/>
     </g>
    </g>
   </g>
   <g id="xtick_12">
    <g id="line2d_15">
     <path d="M 298.082282 88.033657 
L 298.082282 83.98984 
" style="fill: none; stroke: #000000; stroke-width: 0.8; stroke-linecap: square"/>
    </g>
    <g id="text_15">
     <!-- 0.04 -->
     <g transform="translate(300.929715 80.30391) scale(0.1 -0.1)">
      <use xlink:href="#DejaVuSans-30"/>
      <use xlink:href="#DejaVuSans-2e" x="63.623047"/>
      <use xlink:href="#DejaVuSans-30" x="95.410156"/>
      <use xlink:href="#DejaVuSans-34" x="159.033203"/>
     </g>
    </g>
   </g>
   <g id="xtick_13">
    <g id="line2d_16">
     <path d="M 299.45773 86.680216 
L 299.45773 82.570378 
" style="fill: none; stroke: #000000; stroke-width: 0.8; stroke-linecap: square"/>
    </g>
    <g id="text_16">
     <!-- 0.06 -->
     <g transform="translate(302.533412 78.700213) scale(0.1 -0.1)">
      <defs>
       <path id="DejaVuSans-36" d="M 2113 2584 
Q 1688 2584 1439 2293 
Q 1191 2003 1191 1497 
Q 1191 994 1439 701 
Q 1688 409 2113 409 
Q 2538 409 2786 701 
Q 3034 994 3034 1497 
Q 3034 2003 2786 2293 
Q 2538 2584 2113 2584 
z
M 3366 4563 
L 3366 3988 
Q 3128 4100 2886 4159 
Q 2644 4219 2406 4219 
Q 1781 4219 1451 3797 
Q 1122 3375 1075 2522 
Q 1259 2794 1537 2939 
Q 1816 3084 2150 3084 
Q 2853 3084 3261 2657 
Q 3669 2231 3669 1497 
Q 3669 778 3244 343 
Q 2819 -91 2113 -91 
Q 1303 -91 875 529 
Q 447 1150 447 2328 
Q 447 3434 972 4092 
Q 1497 4750 2381 4750 
Q 2619 4750 2861 4703 
Q 3103 4656 3366 4563 
z
" transform="scale(0.015625)"/>
      </defs>
      <use xlink:href="#DejaVuSans-30"/>
      <use xlink:href="#DejaVuSans-2e" x="63.623047"/>
      <use xlink:href="#DejaVuSans-30" x="95.410156"/>
      <use xlink:href="#DejaVuSans-36" x="159.033203"/>
     </g>
    </g>
   </g>
   <g id="xtick_14">
    <g id="line2d_17">
     <path d="M 300.878836 85.281848 
L 300.878836 81.103797 
" style="fill: none; stroke: #000000; stroke-width: 0.8; stroke-linecap: square"/>
    </g>
    <g id="text_17">
     <!-- 0.08 -->
     <g transform="translate(304.190343 77.043282) scale(0.1 -0.1)">
      <defs>
       <path id="DejaVuSans-38" d="M 2034 2216 
Q 1584 2216 1326 1975 
Q 1069 1734 1069 1313 
Q 1069 891 1326 650 
Q 1584 409 2034 409 
Q 2484 409 2743 651 
Q 3003 894 3003 1313 
Q 3003 1734 2745 1975 
Q 2488 2216 2034 2216 
z
M 1403 2484 
Q 997 2584 770 2862 
Q 544 3141 544 3541 
Q 544 4100 942 4425 
Q 1341 4750 2034 4750 
Q 2731 4750 3128 4425 
Q 3525 4100 3525 3541 
Q 3525 3141 3298 2862 
Q 3072 2584 2669 2484 
Q 3125 2378 3379 2068 
Q 3634 1759 3634 1313 
Q 3634 634 3220 271 
Q 2806 -91 2034 -91 
Q 1263 -91 848 271 
Q 434 634 434 1313 
Q 434 1759 690 2068 
Q 947 2378 1403 2484 
z
M 1172 3481 
Q 1172 3119 1398 2916 
Q 1625 2713 2034 2713 
Q 2441 2713 2670 2916 
Q 2900 3119 2900 3481 
Q 2900 3844 2670 4047 
Q 2441 4250 2034 4250 
Q 1625 4250 1398 4047 
Q 1172 3844 1172 3481 
z
" transform="scale(0.015625)"/>
      </defs>
      <use xlink:href="#DejaVuSans-30"/>
      <use xlink:href="#DejaVuSans-2e" x="63.623047"/>
      <use xlink:href="#DejaVuSans-30" x="95.410156"/>
      <use xlink:href="#DejaVuSans-38" x="159.033203"/>
     </g>
    </g>
   </g>
   <g id="xtick_15">
    <g id="line2d_18">
     <path d="M 302.347911 83.836278 
L 302.347911 79.587711 
" style="fill: none; stroke: #000000; stroke-width: 0.8; stroke-linecap: square"/>
    </g>
    <g id="text_18">
     <!-- 0.10 -->
     <g transform="translate(305.903205 75.33042) scale(0.1 -0.1)">
      <defs>
       <path id="DejaVuSans-31" d="M 794 531 
L 1825 531 
L 1825 4091 
L 703 3866 
L 703 4441 
L 1819 4666 
L 2450 4666 
L 2450 531 
L 3481 531 
L 3481 0 
L 794 0 
L 794 531 
z
" transform="scale(0.015625)"/>
      </defs>
      <use xlink:href="#DejaVuSans-30"/>
      <use xlink:href="#DejaVuSans-2e" x="63.623047"/>
      <use xlink:href="#DejaVuSans-31" x="95.410156"/>
      <use xlink:href="#DejaVuSans-30" x="159.033203"/>
     </g>
    </g>
   </g>
  </g>
  <g id="axes_1">
   <g id="Poly3DCollection_1">
    <path d="M 142.182646 100.853231 
L 142.182646 102.428033 
L 142.182646 104.002834 
L 142.182646 105.577635 
L 142.182646 107.152437 
L 142.182646 108.727238 
L 142.182646 110.30204 
L 142.182646 111.876841 
L 142.182646 113.451642 
L 142.182646 115.026444 
L 142.182646 116.601245 
L 142.182646 118.176046 
L 142.182646 119.750848 
L 142.182646 121.325649 
L 142.182646 122.90045 
L 142.182646 124.475252 
L 142.182646 126.050053 
L 142.182646 127.624855 
L 142.182646 129.199656 
L 142.182646 130.774457 
L 142.182646 132.349259 
L 142.182646 133.92406 
L 142.182646 135.498861 
L 142.182646 137.073663 
L 142.182646 138.648464 
L 142.182646 140.223265 
L 142.182646 141.798067 
L 142.182646 143.372868 
L 142.182646 144.947669 
L 142.182646 146.522471 
L 142.182646 148.097272 
L 142.182646 149.672074 
L 142.182646 151.246875 
L 142.182646 152.821676 
L 142.182646 154.396478 
L 142.182646 155.971279 
L 142.182646 157.54608 
L 142.182646 159.120882 
L 142.182646 160.695683 
L 142.182646 162.270484 
L 142.182646 163.845286 
L 142.182646 165.420087 
L 142.182646 166.994888 
L 142.182646 168.56969 
L 142.182646 170.144491 
L 142.182646 171.719293 
L 142.182646 173.294094 
L 142.182646 174.868895 
L 142.182646 176.443697 
L 142.182646 178.018498 
L 142.182646 179.593299 
L 142.182646 181.168101 
L 142.182646 182.742902 
L 142.182646 184.317703 
L 142.182646 185.892505 
L 142.182646 187.467306 
L 142.182646 189.042108 
L 142.182646 190.616909 
L 142.182646 192.19171 
L 142.182646 193.766512 
L 142.182646 195.341313 
L 142.182646 196.916114 
L 142.182646 198.490916 
L 142.182646 200.065717 
L 142.182646 201.640518 
L 142.182646 203.21532 
L 142.182646 204.790121 
L 142.182646 206.364922 
L 142.182646 207.939724 
L 142.182646 209.514525 
L 142.182646 211.089327 
L 142.182646 212.664128 
L 142.182646 214.238929 
L 142.182646 215.813731 
L 142.182646 217.388532 
L 142.182646 218.963333 
L 142.182646 220.538135 
L 142.182646 222.112936 
L 142.182646 223.687737 
L 142.182646 225.262539 
L 142.182646 226.83734 
L 142.182646 228.412142 
L 142.182646 229.986943 
L 142.182646 231.561744 
L 142.182646 233.136546 
L 142.182646 234.711347 
L 142.182646 236.286148 
L 142.182646 237.86095 
L 142.182646 239.435751 
L 142.182646 241.010552 
L 142.182646 242.585354 
L 143.757448 242.585354 
L 145.332249 242.585354 
L 146.90705 242.585354 
L 148.481852 242.585354 
L 150.056653 242.585354 
L 151.631454 242.585354 
L 153.206256 242.585354 
L 154.781057 242.585354 
L 156.355858 242.585354 
L 157.93066 242.585354 
L 159.505461 242.585354 
L 161.080263 242.585354 
L 162.655064 242.585354 
L 164.229865 242.585354 
L 165.804667 242.585354 
L 167.379468 242.585354 
L 168.954269 242.585354 
L 170.529071 242.585354 
L 172.103872 242.585354 
L 173.678673 242.585354 
L 175.253475 242.585354 
L 176.828276 242.585354 
L 178.403078 242.585354 
L 179.977879 242.585354 
L 181.55268 242.585354 
L 183.127482 242.585354 
L 184.702283 242.585354 
L 186.277084 242.585354 
L 187.851886 242.585354 
L 189.426687 242.585354 
L 191.001488 242.585354 
L 192.57629 242.585354 
L 194.151091 242.585354 
L 195.725892 242.585354 
L 197.300694 242.585354 
L 198.875495 242.585354 
L 200.450297 242.585354 
L 202.025098 242.585354 
L 203.599899 242.585354 
L 205.174701 242.585354 
L 206.749502 242.585354 
L 208.324303 242.585354 
L 209.899105 242.585354 
L 211.473906 242.585354 
L 213.048707 242.585354 
L 214.623509 242.585354 
L 216.19831 242.585354 
L 217.773112 242.585354 
L 219.347913 242.585354 
L 220.922714 242.585354 
L 222.497516 242.585354 
L 224.072317 242.585354 
L 225.647118 242.585354 
L 227.22192 242.585354 
L 228.796721 242.585354 
L 230.371522 242.585354 
L 231.946324 242.585354 
L 233.521125 242.585354 
L 235.095926 242.585354 
L 236.670728 242.585354 
L 238.245529 242.585354 
L 239.820331 242.585354 
L 241.395132 242.585354 
L 242.969933 242.585354 
L 244.544735 242.585354 
L 246.119536 242.585354 
L 247.694337 242.585354 
L 249.269139 242.585354 
L 250.84394 242.585354 
L 252.418741 242.585354 
L 253.993543 242.585354 
L 255.568344 242.585354 
L 257.143145 242.585354 
L 258.717947 242.585354 
L 260.292748 242.585354 
L 261.86755 242.585354 
L 263.442351 242.585354 
L 265.017152 242.585354 
L 266.591954 242.585354 
L 268.166755 242.585354 
L 269.741556 242.585354 
L 271.316358 242.585354 
L 272.891159 242.585354 
L 274.46596 242.585354 
L 276.040762 242.585354 
L 277.615563 242.585354 
L 279.190365 242.585354 
L 280.765166 242.585354 
L 282.339967 242.585354 
L 283.914769 242.585354 
L 285.48957 242.585354 
L 285.48957 241.010552 
L 285.48957 239.435751 
L 285.48957 237.86095 
L 285.48957 236.286148 
L 285.48957 234.711347 
L 285.48957 233.136546 
L 285.48957 231.561744 
L 285.48957 229.986943 
L 285.48957 228.412142 
L 285.48957 226.83734 
L 285.48957 225.262539 
L 285.48957 223.687737 
L 285.48957 222.112936 
L 285.48957 220.538135 
L 285.48957 218.963333 
L 285.48957 217.388532 
L 285.48957 215.813731 
L 285.48957 214.238929 
L 285.48957 212.664128 
L 285.48957 211.089327 
L 285.48957 209.514525 
L 285.48957 207.939724 
L 285.48957 206.364922 
L 285.48957 204.790121 
L 285.48957 203.21532 
L 285.48957 201.640518 
L 285.48957 200.065717 
L 285.48957 198.490916 
L 285.48957 196.916114 
L 285.48957 195.341313 
L 285.48957 193.766512 
L 285.48957 192.19171 
L 285.48957 190.616909 
L 285.48957 189.042108 
L 285.48957 187.467306 
L 285.48957 185.892505 
L 285.48957 184.317703 
L 285.48957 182.742902 
L 285.48957 181.168101 
L 285.48957 179.593299 
L 285.48957 178.018498 
L 285.48957 176.443697 
L 285.48957 174.868895 
L 285.48957 173.294094 
L 285.48957 171.719293 
L 285.48957 170.144491 
L 285.48957 168.56969 
L 285.48957 166.994888 
L 285.48957 165.420087 
L 285.48957 163.845286 
L 285.48957 162.270484 
L 285.48957 160.695683 
L 285.48957 159.120882 
L 285.48957 157.54608 
L 285.48957 155.971279 
L 285.48957 154.396478 
L 285.48957 152.821676 
L 285.48957 151.246875 
L 285.48957 149.672074 
L 285.48957 148.097272 
L 285.48957 146.522471 
L 285.48957 144.947669 
L 285.48957 143.372868 
L 285.48957 141.798067 
L 285.48957 140.223265 
L 285.48957 138.648464 
L 285.48957 137.073663 
L 285.48957 135.498861 
L 285.48957 133.92406 
L 285.48957 132.349259 
L 285.48957 130.774457 
L 285.48957 129.199656 
L 285.48957 127.624855 
L 285.48957 126.050053 
L 285.48957 124.475252 
L 285.48957 122.90045 
L 285.48957 121.325649 
L 285.48957 119.750848 
L 285.48957 118.176046 
L 285.48957 116.601245 
L 285.48957 115.026444 
L 285.48957 113.451642 
L 285.48957 111.876841 
L 285.48957 110.30204 
L 285.48957 108.727238 
L 285.48957 107.152437 
L 285.48957 105.577635 
L 285.48957 104.002834 
L 285.48957 102.428033 
L 285.48957 100.853231 
L 285.48957 99.27843 
L 283.914769 99.27843 
L 282.339967 99.27843 
L 280.765166 99.27843 
L 279.190365 99.27843 
L 277.615563 99.27843 
L 276.040762 99.27843 
L 274.46596 99.27843 
L 272.891159 99.27843 
L 271.316358 99.27843 
L 269.741556 99.27843 
L 268.166755 99.27843 
L 266.591954 99.27843 
L 265.017152 99.27843 
L 263.442351 99.27843 
L 261.86755 99.27843 
L 260.292748 99.27843 
L 258.717947 99.27843 
L 257.143145 99.27843 
L 255.568344 99.27843 
L 253.993543 99.27843 
L 252.418741 99.27843 
L 250.84394 99.27843 
L 249.269139 99.27843 
L 247.694337 99.27843 
L 246.119536 99.27843 
L 244.544735 99.27843 
L 242.969933 99.27843 
L 241.395132 99.27843 
L 239.820331 99.27843 
L 238.245529 99.27843 
L 236.670728 99.27843 
L 235.095926 99.27843 
L 233.521125 99.27843 
L 231.946324 99.27843 
L 230.371522 99.27843 
L 228.796721 99.27843 
L 227.22192 99.27843 
L 225.647118 99.27843 
L 224.072317 99.27843 
L 222.497516 99.27843 
L 220.922714 99.27843 
L 219.347913 99.27843 
L 217.773112 99.27843 
L 216.19831 99.27843 
L 214.623509 99.27843 
L 213.048707 99.27843 
L 211.473906 99.27843 
L 209.899105 99.27843 
L 208.324303 99.27843 
L 206.749502 99.27843 
L 205.174701 99.27843 
L 203.599899 99.27843 
L 202.025098 99.27843 
L 200.450297 99.27843 
L 198.875495 99.27843 
L 197.300694 99.27843 
L 195.725892 99.27843 
L 194.151091 99.27843 
L 192.57629 99.27843 
L 191.001488 99.27843 
L 189.426687 99.27843 
L 187.851886 99.27843 
L 186.277084 99.27843 
L 184.702283 99.27843 
L 183.127482 99.27843 
L 181.55268 99.27843 
L 179.977879 99.27843 
L 178.403078 99.27843 
L 176.828276 99.27843 
L 175.253475 99.27843 
L 173.678673 99.27843 
L 172.103872 99.27843 
L 170.529071 99.27843 
L 168.954269 99.27843 
L 167.379468 99.27843 
L 165.804667 99.27843 
L 164.229865 99.27843 
L 162.655064 99.27843 
L 161.080263 99.27843 
L 159.505461 99.27843 
L 157.93066 99.27843 
L 156.355858 99.27843 
L 154.781057 99.27843 
L 153.206256 99.27843 
L 151.631454 99.27843 
L 150.056653 99.27843 
L 148.481852 99.27843 
L 146.90705 99.27843 
L 145.332249 99.27843 
L 143.757448 99.27843 
L 142.182646 99.27843 
z
M 209.899105 178.00627 
L 210.643742 176.443697 
L 211.473906 175.225185 
L 211.687919 174.868895 
L 212.891598 173.294094 
L 213.048707 173.114692 
L 214.265109 171.719293 
L 214.623509 171.345929 
L 215.891358 170.144491 
L 216.19831 169.856089 
L 217.773112 168.63211 
L 217.878917 168.56969 
L 219.347913 167.592171 
L 220.799727 166.994888 
L 220.922714 166.933132 
L 222.497516 166.478497 
L 224.072317 166.386008 
L 225.647118 166.649472 
L 226.48876 166.994888 
L 227.22192 167.234887 
L 228.796721 168.11452 
L 229.375543 168.56969 
L 230.371522 169.280722 
L 231.322654 170.144491 
L 231.946324 170.702882 
L 232.956008 171.719293 
L 233.521125 172.329241 
L 234.402641 173.294094 
L 235.095926 174.174909 
L 235.680475 174.868895 
L 236.670728 176.337332 
L 236.752278 176.443697 
L 237.744609 178.018498 
L 238.245529 179.1662 
L 238.474413 179.593299 
L 239.07217 181.168101 
L 239.418992 182.742902 
L 239.558184 184.317703 
L 239.502998 185.892505 
L 239.239184 187.467306 
L 238.721333 189.042108 
L 238.245529 189.967791 
L 237.967195 190.616909 
L 236.989395 192.19171 
L 236.670728 192.592627 
L 235.788445 193.766512 
L 235.095926 194.521035 
L 234.310612 195.341313 
L 233.521125 196.096543 
L 232.528855 196.916114 
L 231.946324 197.406605 
L 230.371522 198.446528 
L 230.28105 198.490916 
L 228.796721 199.340507 
L 227.22192 199.881595 
L 226.097967 200.065717 
L 225.647118 200.162323 
L 224.072317 200.171058 
L 223.556223 200.065717 
L 222.497516 199.901596 
L 220.922714 199.375833 
L 219.368606 198.490916 
L 219.347913 198.480983 
L 217.773112 197.44641 
L 217.159447 196.916114 
L 216.19831 196.13375 
L 215.37982 195.341313 
L 214.623509 194.594995 
L 213.844644 193.766512 
L 213.048707 192.825293 
L 212.502798 192.19171 
L 211.473906 190.740643 
L 211.376726 190.616909 
L 210.356684 189.042108 
L 209.899105 188.007969 
L 209.604358 187.467306 
L 209.029788 185.892505 
L 208.734373 184.317703 
L 208.670937 182.742902 
L 208.825756 181.168101 
L 209.21565 179.593299 
L 209.892009 178.018498 
z
" clip-path="url(#p264286a241)" style="fill: #310597"/>
   </g>
   <g id="text_19">
    <!-- Mass of the anomaly at depth of 1.0 m -->
    <g transform="translate(16.000938 35.472) scale(0.2 -0.2)">
     <defs>
      <path id="DejaVuSans-61" d="M 2194 1759 
Q 1497 1759 1228 1600 
Q 959 1441 959 1056 
Q 959 750 1161 570 
Q 1363 391 1709 391 
Q 2188 391 2477 730 
Q 2766 1069 2766 1631 
L 2766 1759 
L 2194 1759 
z
M 3341 1997 
L 3341 0 
L 2766 0 
L 2766 531 
Q 2569 213 2275 61 
Q 1981 -91 1556 -91 
Q 1019 -91 701 211 
Q 384 513 384 1019 
Q 384 1609 779 1909 
Q 1175 2209 1959 2209 
L 2766 2209 
L 2766 2266 
Q 2766 2663 2505 2880 
Q 2244 3097 1772 3097 
Q 1472 3097 1187 3025 
Q 903 2953 641 2809 
L 641 3341 
Q 956 3463 1253 3523 
Q 1550 3584 1831 3584 
Q 2591 3584 2966 3190 
Q 3341 2797 3341 1997 
z
" transform="scale(0.015625)"/>
      <path id="DejaVuSans-73" d="M 2834 3397 
L 2834 2853 
Q 2591 2978 2328 3040 
Q 2066 3103 1784 3103 
Q 1356 3103 1142 2972 
Q 928 2841 928 2578 
Q 928 2378 1081 2264 
Q 1234 2150 1697 2047 
L 1894 2003 
Q 2506 1872 2764 1633 
Q 3022 1394 3022 966 
Q 3022 478 2636 193 
Q 2250 -91 1575 -91 
Q 1294 -91 989 -36 
Q 684 19 347 128 
L 347 722 
Q 666 556 975 473 
Q 1284 391 1588 391 
Q 1994 391 2212 530 
Q 2431 669 2431 922 
Q 2431 1156 2273 1281 
Q 2116 1406 1581 1522 
L 1381 1569 
Q 847 1681 609 1914 
Q 372 2147 372 2553 
Q 372 3047 722 3315 
Q 1072 3584 1716 3584 
Q 2034 3584 2315 3537 
Q 2597 3491 2834 3397 
z
" transform="scale(0.015625)"/>
      <path id="DejaVuSans-6f" d="M 1959 3097 
Q 1497 3097 1228 2736 
Q 959 2375 959 1747 
Q 959 1119 1226 758 
Q 1494 397 1959 397 
Q 2419 397 2687 759 
Q 2956 1122 2956 1747 
Q 2956 2369 2687 2733 
Q 2419 3097 1959 3097 
z
M 1959 3584 
Q 2709 3584 3137 3096 
Q 3566 2609 3566 1747 
Q 3566 888 3137 398 
Q 2709 -91 1959 -91 
Q 1206 -91 779 398 
Q 353 888 353 1747 
Q 353 2609 779 3096 
Q 1206 3584 1959 3584 
z
" transform="scale(0.015625)"/>
      <path id="DejaVuSans-66" d="M 2375 4863 
L 2375 4384 
L 1825 4384 
Q 1516 4384 1395 4259 
Q 1275 4134 1275 3809 
L 1275 3500 
L 2222 3500 
L 2222 3053 
L 1275 3053 
L 1275 0 
L 697 0 
L 697 3053 
L 147 3053 
L 147 3500 
L 697 3500 
L 697 3744 
Q 697 4328 969 4595 
Q 1241 4863 1831 4863 
L 2375 4863 
z
" transform="scale(0.015625)"/>
      <path id="DejaVuSans-74" d="M 1172 4494 
L 1172 3500 
L 2356 3500 
L 2356 3053 
L 1172 3053 
L 1172 1153 
Q 1172 725 1289 603 
Q 1406 481 1766 481 
L 2356 481 
L 2356 0 
L 1766 0 
Q 1100 0 847 248 
Q 594 497 594 1153 
L 594 3053 
L 172 3053 
L 172 3500 
L 594 3500 
L 594 4494 
L 1172 4494 
z
" transform="scale(0.015625)"/>
      <path id="DejaVuSans-68" d="M 3513 2113 
L 3513 0 
L 2938 0 
L 2938 2094 
Q 2938 2591 2744 2837 
Q 2550 3084 2163 3084 
Q 1697 3084 1428 2787 
Q 1159 2491 1159 1978 
L 1159 0 
L 581 0 
L 581 4863 
L 1159 4863 
L 1159 2956 
Q 1366 3272 1645 3428 
Q 1925 3584 2291 3584 
Q 2894 3584 3203 3211 
Q 3513 2838 3513 2113 
z
" transform="scale(0.015625)"/>
      <path id="DejaVuSans-65" d="M 3597 1894 
L 3597 1613 
L 953 1613 
Q 991 1019 1311 708 
Q 1631 397 2203 397 
Q 2534 397 2845 478 
Q 3156 559 3463 722 
L 3463 178 
Q 3153 47 2828 -22 
Q 2503 -91 2169 -91 
Q 1331 -91 842 396 
Q 353 884 353 1716 
Q 353 2575 817 3079 
Q 1281 3584 2069 3584 
Q 2775 3584 3186 3129 
Q 3597 2675 3597 1894 
z
M 3022 2063 
Q 3016 2534 2758 2815 
Q 2500 3097 2075 3097 
Q 1594 3097 1305 2825 
Q 1016 2553 972 2059 
L 3022 2063 
z
" transform="scale(0.015625)"/>
      <path id="DejaVuSans-6e" d="M 3513 2113 
L 3513 0 
L 2938 0 
L 2938 2094 
Q 2938 2591 2744 2837 
Q 2550 3084 2163 3084 
Q 1697 3084 1428 2787 
Q 1159 2491 1159 1978 
L 1159 0 
L 581 0 
L 581 3500 
L 1159 3500 
L 1159 2956 
Q 1366 3272 1645 3428 
Q 1925 3584 2291 3584 
Q 2894 3584 3203 3211 
Q 3513 2838 3513 2113 
z
" transform="scale(0.015625)"/>
      <path id="DejaVuSans-6c" d="M 603 4863 
L 1178 4863 
L 1178 0 
L 603 0 
L 603 4863 
z
" transform="scale(0.015625)"/>
      <path id="DejaVuSans-64" d="M 2906 2969 
L 2906 4863 
L 3481 4863 
L 3481 0 
L 2906 0 
L 2906 525 
Q 2725 213 2448 61 
Q 2172 -91 1784 -91 
Q 1150 -91 751 415 
Q 353 922 353 1747 
Q 353 2572 751 3078 
Q 1150 3584 1784 3584 
Q 2172 3584 2448 3432 
Q 2725 3281 2906 2969 
z
M 947 1747 
Q 947 1113 1208 752 
Q 1469 391 1925 391 
Q 2381 391 2643 752 
Q 2906 1113 2906 1747 
Q 2906 2381 2643 2742 
Q 2381 3103 1925 3103 
Q 1469 3103 1208 2742 
Q 947 2381 947 1747 
z
" transform="scale(0.015625)"/>
      <path id="DejaVuSans-70" d="M 1159 525 
L 1159 -1331 
L 581 -1331 
L 581 3500 
L 1159 3500 
L 1159 2969 
Q 1341 3281 1617 3432 
Q 1894 3584 2278 3584 
Q 2916 3584 3314 3078 
Q 3713 2572 3713 1747 
Q 3713 922 3314 415 
Q 2916 -91 2278 -91 
Q 1894 -91 1617 61 
Q 1341 213 1159 525 
z
M 3116 1747 
Q 3116 2381 2855 2742 
Q 2594 3103 2138 3103 
Q 1681 3103 1420 2742 
Q 1159 2381 1159 1747 
Q 1159 1113 1420 752 
Q 1681 391 2138 391 
Q 2594 391 2855 752 
Q 3116 1113 3116 1747 
z
" transform="scale(0.015625)"/>
     </defs>
     <use xlink:href="#DejaVuSans-4d"/>
     <use xlink:href="#DejaVuSans-61" x="86.279297"/>
     <use xlink:href="#DejaVuSans-73" x="147.558594"/>
     <use xlink:href="#DejaVuSans-73" x="199.658203"/>
     <use xlink:href="#DejaVuSans-20" x="251.757812"/>
     <use xlink:href="#DejaVuSans-6f" x="283.544922"/>
     <use xlink:href="#DejaVuSans-66" x="344.726562"/>
     <use xlink:href="#DejaVuSans-20" x="379.931641"/>
     <use xlink:href="#DejaVuSans-74" x="411.71875"/>
     <use xlink:href="#DejaVuSans-68" x="450.927734"/>
     <use xlink:href="#DejaVuSans-65" x="514.306641"/>
     <use xlink:href="#DejaVuSans-20" x="575.830078"/>
     <use xlink:href="#DejaVuSans-61" x="607.617188"/>
     <use xlink:href="#DejaVuSans-6e" x="668.896484"/>
     <use xlink:href="#DejaVuSans-6f" x="732.275391"/>
     <use xlink:href="#DejaVuSans-6d" x="793.457031"/>
     <use xlink:href="#DejaVuSans-61" x="890.869141"/>
     <use xlink:href="#DejaVuSans-6c" x="952.148438"/>
     <use xlink:href="#DejaVuSans-79" x="979.931641"/>
     <use xlink:href="#DejaVuSans-20" x="1039.111328"/>
     <use xlink:href="#DejaVuSans-61" x="1070.898438"/>
     <use xlink:href="#DejaVuSans-74" x="1132.177734"/>
     <use xlink:href="#DejaVuSans-20" x="1171.386719"/>
     <use xlink:href="#DejaVuSans-64" x="1203.173828"/>
     <use xlink:href="#DejaVuSans-65" x="1266.650391"/>
     <use xlink:href="#DejaVuSans-70" x="1328.173828"/>
     <use xlink:href="#DejaVuSans-74" x="1391.650391"/>
     <use xlink:href="#DejaVuSans-68" x="1430.859375"/>
     <use xlink:href="#DejaVuSans-20" x="1494.238281"/>
     <use xlink:href="#DejaVuSans-6f" x="1526.025391"/>
     <use xlink:href="#DejaVuSans-66" x="1587.207031"/>
     <use xlink:href="#DejaVuSans-20" x="1622.412109"/>
     <use xlink:href="#DejaVuSans-31" x="1654.199219"/>
     <use xlink:href="#DejaVuSans-2e" x="1717.822266"/>
     <use xlink:href="#DejaVuSans-30" x="1749.609375"/>
     <use xlink:href="#DejaVuSans-20" x="1813.232422"/>
     <use xlink:href="#DejaVuSans-6d" x="1845.019531"/>
    </g>
   </g>
   <g id="Poly3DCollection_2">
    <path d="M 209.845149 178.102695 
L 209.160754 179.696207 
L 208.766227 181.289719 
L 208.609569 182.883231 
L 208.673759 184.476743 
L 208.972683 186.070255 
L 209.554079 187.663767 
L 209.852328 188.210853 
L 210.315344 189.257278 
L 211.347506 190.85079 
L 211.44584 190.975994 
L 212.486956 192.444302 
L 213.039352 193.085413 
L 213.844745 194.037814 
L 214.632864 194.876141 
L 215.398161 195.631326 
L 216.226376 196.433178 
L 217.198933 197.224838 
L 217.819888 197.761434 
L 219.4134 198.808299 
L 219.434339 198.81835 
L 221.006912 199.713781 
L 222.600423 200.24579 
L 223.67171 200.411861 
L 224.193935 200.518454 
L 225.787447 200.509615 
L 226.243653 200.411861 
L 227.380959 200.225552 
L 228.974471 199.678035 
L 230.476436 198.81835 
L 230.567983 198.773435 
L 232.161495 197.721156 
L 232.750947 197.224838 
L 233.755006 196.395529 
L 234.553874 195.631326 
L 235.348518 194.801302 
L 236.049265 194.037814 
L 236.94203 192.849983 
L 237.264483 192.444302 
L 238.253901 190.85079 
L 238.535542 190.19396 
L 239.016999 189.257278 
L 239.541003 187.663767 
L 239.807951 186.070255 
L 239.863793 184.476743 
L 239.722947 182.883231 
L 239.372004 181.289719 
L 238.767145 179.696207 
L 238.535542 179.264033 
L 238.028671 178.102695 
L 237.02455 176.509183 
L 236.94203 176.401555 
L 235.940012 174.915672 
L 235.348518 174.21344 
L 234.646996 173.32216 
L 233.755006 172.345843 
L 233.183175 171.728648 
L 232.161495 170.700161 
L 231.530415 170.135136 
L 230.567983 169.261104 
L 229.560169 168.541624 
L 228.974471 168.081047 
L 227.380959 167.190962 
L 226.639088 166.948112 
L 225.787447 166.598591 
L 224.193935 166.331998 
L 222.600423 166.425585 
L 221.006912 166.885622 
L 220.882463 166.948112 
L 219.4134 167.552491 
L 217.926951 168.541624 
L 217.819888 168.604786 
L 216.226376 169.843308 
L 215.915777 170.135136 
L 214.632864 171.350848 
L 214.270206 171.728648 
L 213.039352 173.140626 
L 212.880376 173.32216 
L 211.662396 174.915672 
L 211.44584 175.276194 
L 210.605813 176.509183 
L 209.852328 178.090322 
z
M 213.039352 179.108677 
L 213.382535 178.102695 
L 214.196283 176.509183 
L 214.632864 175.869459 
L 215.288304 174.915672 
L 216.226376 173.837497 
L 216.741525 173.32216 
L 217.819888 172.361837 
L 218.76776 171.728648 
L 219.4134 171.295251 
L 221.006912 170.569759 
L 222.600423 170.195199 
L 223.833397 170.135136 
L 224.193935 170.113194 
L 224.327145 170.135136 
L 225.787447 170.33125 
L 227.380959 170.874597 
L 228.813738 171.728648 
L 228.974471 171.820752 
L 230.567983 173.088279 
L 230.809408 173.32216 
L 232.161495 174.789661 
L 232.269473 174.915672 
L 233.438279 176.509183 
L 233.755006 177.075675 
L 234.372908 178.102695 
L 235.061569 179.696207 
L 235.348518 180.682049 
L 235.562483 181.289719 
L 235.904558 182.883231 
L 236.034127 184.476743 
L 235.958832 186.070255 
L 235.657264 187.663767 
L 235.348518 188.544093 
L 235.132791 189.257278 
L 234.366691 190.85079 
L 233.755006 191.729164 
L 233.236351 192.444302 
L 232.161495 193.585744 
L 231.641676 194.037814 
L 230.567983 194.883082 
L 229.198709 195.631326 
L 228.974471 195.759986 
L 227.380959 196.377931 
L 225.787447 196.66884 
L 224.193935 196.682346 
L 222.600423 196.424709 
L 221.006912 195.860188 
L 220.58479 195.631326 
L 219.4134 195.053446 
L 218.010849 194.037814 
L 217.819888 193.897399 
L 216.267259 192.444302 
L 216.226376 192.40046 
L 214.932312 190.85079 
L 214.632864 190.385412 
L 213.897834 189.257278 
L 213.175978 187.663767 
L 213.039352 187.206734 
L 212.641403 186.070255 
L 212.342374 184.476743 
L 212.273799 182.883231 
L 212.4236 181.289719 
L 212.808166 179.696207 
z
" clip-path="url(#p264286a241)" style="fill: #6600a7"/>
   </g>
   <g id="Poly3DCollection_3">
    <path d="M 212.795806 179.80159 
L 212.406616 181.414262 
L 212.255014 183.026934 
L 212.324413 184.639607 
L 212.627038 186.252279 
L 213.029772 187.402424 
L 213.168041 187.864951 
L 213.898576 189.477624 
L 214.642444 190.619322 
L 214.945493 191.090296 
L 216.255117 192.658599 
L 216.296491 192.702968 
L 217.867789 194.173538 
L 218.061046 194.315641 
L 219.480461 195.343485 
L 220.665936 195.928313 
L 221.093134 196.159927 
L 222.705806 196.731236 
L 224.318478 196.99197 
L 225.931151 196.978303 
L 227.543823 196.683896 
L 229.156495 196.05852 
L 229.38343 195.928313 
L 230.769168 195.171072 
L 231.855771 194.315641 
L 232.38184 193.858135 
L 233.46962 192.702968 
L 233.994512 191.979232 
L 234.613552 191.090296 
L 235.388863 189.477624 
L 235.607185 188.755863 
L 235.919643 187.864951 
L 236.224837 186.252279 
L 236.301037 184.639607 
L 236.16991 183.026934 
L 235.823722 181.414262 
L 235.607185 180.799286 
L 235.316785 179.80159 
L 234.619843 178.188917 
L 233.994512 177.149548 
L 233.673977 176.576245 
L 232.491117 174.963573 
L 232.38184 174.836047 
L 231.013495 173.3509 
L 230.769168 173.114208 
L 229.156495 171.831439 
L 228.99383 171.738228 
L 227.543823 170.873908 
L 225.931151 170.324028 
L 224.45329 170.125556 
L 224.318478 170.10335 
L 223.953605 170.125556 
L 222.705806 170.186341 
L 221.093134 170.565405 
L 219.480461 171.29962 
L 218.827059 171.738228 
L 217.867789 172.379031 
L 216.77646 173.3509 
L 216.255117 173.872434 
L 215.305765 174.963573 
L 214.642444 175.928828 
L 214.200614 176.576245 
L 213.377082 178.188917 
L 213.029772 179.206995 
z
M 214.642444 182.211144 
L 214.715914 181.414262 
L 215.091426 179.80159 
L 215.740822 178.188917 
L 216.255117 177.3125 
L 216.716537 176.576245 
L 217.867789 175.212897 
L 218.129732 174.963573 
L 219.480461 173.871428 
L 220.449342 173.3509 
L 221.093134 173.015348 
L 222.705806 172.544834 
L 224.318478 172.441211 
L 225.931151 172.695179 
L 227.541179 173.3509 
L 227.543823 173.351962 
L 229.156495 174.400099 
L 229.778453 174.963573 
L 230.769168 176.007936 
L 231.230945 176.576245 
L 232.257299 178.188917 
L 232.38184 178.449967 
L 233.037994 179.80159 
L 233.558228 181.414262 
L 233.858518 183.026934 
L 233.964584 184.639607 
L 233.875259 186.252279 
L 233.56032 187.864951 
L 232.951651 189.477624 
L 232.38184 190.436343 
L 231.952468 191.090296 
L 230.769168 192.37386 
L 230.362403 192.702968 
L 229.156495 193.541656 
L 227.543823 194.22143 
L 227.085609 194.315641 
L 225.931151 194.571779 
L 224.318478 194.597375 
L 222.793641 194.315641 
L 222.705806 194.301059 
L 221.093134 193.73344 
L 219.480461 192.781321 
L 219.379629 192.702968 
L 217.867789 191.405527 
L 217.570052 191.090296 
L 216.345218 189.477624 
L 216.255117 189.316989 
L 215.471326 187.864951 
L 214.923017 186.252279 
L 214.642444 184.683958 
L 214.633516 184.639607 
L 214.556496 183.026934 
z
" clip-path="url(#p264286a241)" style="fill: #9511a1"/>
   </g>
   <g id="Poly3DCollection_4">
    <path d="M 214.565263 183.174136 
L 214.643221 184.806435 
L 214.652258 184.851326 
L 214.936245 186.438734 
L 215.491227 188.071033 
L 216.284557 189.540742 
L 216.375755 189.703332 
L 217.615495 191.335632 
L 217.916856 191.6547 
L 219.447096 192.967931 
L 219.549155 193.047237 
L 221.181454 194.010944 
L 222.813754 194.585471 
L 222.902657 194.60023 
L 224.446053 194.885393 
L 226.078352 194.859486 
L 227.24686 194.60023 
L 227.710651 194.504873 
L 229.34295 193.816825 
L 230.563534 192.967931 
L 230.975249 192.634818 
L 232.172951 191.335632 
L 232.607549 190.67372 
L 233.184294 189.703332 
L 233.800371 188.071033 
L 234.119144 186.438734 
L 234.209555 184.806435 
L 234.102198 183.174136 
L 233.798253 181.541837 
L 233.271688 179.909537 
L 232.607549 178.541465 
L 232.481492 178.277238 
L 231.442646 176.644939 
L 230.975249 176.069713 
L 229.972477 175.01264 
L 229.34295 174.442308 
L 227.710651 173.381416 
L 227.707974 173.380341 
L 226.078352 172.716639 
L 224.446053 172.45958 
L 222.813754 172.564464 
L 221.181454 173.040705 
L 220.529827 173.380341 
L 219.549155 173.907203 
L 218.181987 175.01264 
L 217.916856 175.264999 
L 216.751593 176.644939 
L 216.284557 177.390154 
L 215.764004 178.277238 
L 215.106704 179.909537 
L 214.726622 181.541837 
L 214.652258 182.348417 
z
M 217.916856 178.198233 
L 219.166965 176.644939 
L 219.549155 176.278448 
L 221.181454 175.177348 
L 221.62277 175.01264 
L 222.813754 174.599486 
L 224.446053 174.463402 
L 226.078352 174.754899 
L 226.655033 175.01264 
L 227.710651 175.516232 
L 229.122318 176.644939 
L 229.34295 176.857831 
L 230.464268 178.277238 
L 230.975249 179.159746 
L 231.369581 179.909537 
L 231.9598 181.541837 
L 232.294966 183.174136 
L 232.399418 184.806435 
L 232.264329 186.438734 
L 231.843341 188.071033 
L 231.040231 189.703332 
L 230.975249 189.795053 
L 229.585668 191.335632 
L 229.34295 191.539559 
L 227.710651 192.457103 
L 226.078352 192.886744 
L 224.446053 192.929738 
L 222.813754 192.617158 
L 221.181454 191.921336 
L 220.313185 191.335632 
L 219.549155 190.73308 
L 218.57634 189.703332 
L 217.916856 188.759137 
L 217.498614 188.071033 
L 216.83875 186.438734 
L 216.493083 184.806435 
L 216.41712 183.174136 
L 216.600278 181.541837 
L 217.063583 179.909537 
L 217.863776 178.277238 
z
" clip-path="url(#p264286a241)" style="fill: #bc3587"/>
   </g>
   <g id="Poly3DCollection_5">
    <path d="M 217.913398 178.367735 
L 217.103347 180.020145 
L 216.634334 181.672555 
L 216.448919 183.324964 
L 216.525818 184.977374 
L 216.875743 186.629783 
L 217.543737 188.282193 
L 217.967132 188.978774 
L 218.634741 189.934603 
L 219.619542 190.977037 
L 220.392984 191.587012 
L 221.271951 192.179933 
L 222.924361 192.884328 
L 224.576771 193.200759 
L 226.22918 193.157235 
L 227.88159 192.7223 
L 229.534 191.793452 
L 229.779708 191.587012 
L 231.186409 190.027453 
L 231.252191 189.934603 
L 232.065196 188.282193 
L 232.491371 186.629783 
L 232.628124 184.977374 
L 232.522385 183.324964 
L 232.18309 181.672555 
L 231.585599 180.020145 
L 231.186409 179.261116 
L 230.669133 178.367735 
L 229.534 176.930841 
L 229.310649 176.715326 
L 227.88159 175.572712 
L 226.812966 175.062916 
L 226.22918 174.801999 
L 224.576771 174.506911 
L 222.924361 174.644672 
L 221.718704 175.062916 
L 221.271951 175.229653 
L 219.619542 176.34432 
L 219.232643 176.715326 
L 217.967132 178.287757 
z
M 219.619542 179.109287 
L 220.222689 178.367735 
L 221.271951 177.442231 
L 222.746231 176.715326 
L 222.924361 176.64126 
L 224.576771 176.455657 
L 225.847263 176.715326 
L 226.22918 176.802154 
L 227.88159 177.789771 
L 228.47826 178.367735 
L 229.534 179.713106 
L 229.722774 180.020145 
L 230.432091 181.672555 
L 230.826216 183.324964 
L 230.927121 184.977374 
L 230.712603 186.629783 
L 230.1085 188.282193 
L 229.534 189.169991 
L 228.816402 189.934603 
L 227.88159 190.633344 
L 226.22918 191.250404 
L 224.576771 191.335238 
L 222.924361 190.946983 
L 221.271951 190.061591 
L 221.115424 189.934603 
L 219.619542 188.3533 
L 219.56769 188.282193 
L 218.736564 186.629783 
L 218.3032 184.977374 
L 218.213809 183.324964 
L 218.457927 181.672555 
L 219.065917 180.020145 
z
" clip-path="url(#p264286a241)" style="fill: #da5a6a"/>
   </g>
   <g id="Poly3DCollection_6">
    <path d="M 219.131154 180.133512 
L 218.515579 181.806534 
L 218.268417 183.479556 
L 218.358923 185.152577 
L 218.797693 186.825599 
L 219.639186 188.498621 
L 219.691684 188.570615 
L 221.206226 190.171643 
L 221.364706 190.300216 
L 223.037728 191.196651 
L 224.71075 191.589749 
L 226.383772 191.503857 
L 228.056794 190.8791 
L 229.003266 190.171643 
L 229.729815 189.397493 
L 230.311482 188.498621 
L 230.923121 186.825599 
L 231.140315 185.152577 
L 231.038151 183.479556 
L 230.639109 181.806534 
L 229.920944 180.133512 
L 229.729815 179.822643 
L 228.660906 178.46049 
L 228.056794 177.875317 
L 226.383772 176.875379 
L 225.99709 176.787468 
L 224.71075 176.52456 
L 223.037728 176.712479 
L 222.857376 176.787468 
L 221.364706 177.523441 
L 220.302356 178.46049 
L 219.691684 179.211292 
z
M 221.364706 180.330822 
L 221.536146 180.133512 
L 223.037728 179.04223 
L 224.71075 178.70573 
L 226.383772 179.195622 
L 227.562898 180.133512 
L 228.056794 180.69819 
L 228.678853 181.806534 
L 229.191888 183.479556 
L 229.281529 185.152577 
L 228.896265 186.825599 
L 228.056794 188.259253 
L 227.799132 188.498621 
L 226.383772 189.318157 
L 224.71075 189.495098 
L 223.037728 188.985369 
L 222.339656 188.498621 
L 221.364706 187.516663 
L 220.91067 186.825599 
L 220.320197 185.152577 
L 220.212135 183.479556 
L 220.580202 181.806534 
z
" clip-path="url(#p264286a241)" style="fill: #f07f4f"/>
   </g>
   <g id="Poly3DCollection_7">
    <path d="M 220.665391 181.943898 
L 220.292674 183.638052 
L 220.402101 185.332207 
L 221.000033 187.026362 
L 221.459804 187.726155 
L 222.447069 188.720517 
L 223.153959 189.213413 
L 224.848114 189.729581 
L 226.542269 189.550404 
L 227.975507 188.720517 
L 228.236423 188.478125 
L 229.086499 187.026362 
L 229.476629 185.332207 
L 229.385856 183.638052 
L 228.866341 181.943898 
L 228.236423 180.821553 
L 227.736289 180.249743 
L 226.542269 179.300006 
L 224.848114 178.803926 
L 223.153959 179.144677 
L 221.63341 180.249743 
L 221.459804 180.449546 
z
M 223.153959 183.446279 
L 224.848114 182.040312 
L 226.542269 183.31559 
L 226.693365 183.638052 
L 226.713188 185.332207 
L 226.542269 185.67767 
L 224.848114 186.551062 
L 223.25974 185.332207 
L 223.153959 184.72469 
L 223.077155 183.638052 
z
" clip-path="url(#p264286a241)" style="fill: #fdac33"/>
   </g>
   <g id="Poly3DCollection_8">
    <path d="M 223.195378 183.800604 
L 223.273164 184.901143 
L 223.380298 185.516433 
L 224.988992 186.750881 
L 226.704821 185.866315 
L 226.877927 185.516433 
L 226.85785 183.800604 
L 226.704821 183.474017 
L 224.988992 182.182424 
L 223.273164 183.606377 
z
" clip-path="url(#p264286a241)" style="fill: #f9dd25"/>
   </g>
  </g>
  <g id="axes_2">
   <g id="patch_6">
    <path d="M 361.152 241.056 
L 387.7632 241.056 
L 387.7632 108 
L 361.152 108 
z
" style="fill: #ffffff"/>
   </g>
   <g id="patch_7">
    <path clip-path="url(#pf61ab15ca7)" style="fill: #ffffff; stroke: #ffffff; stroke-width: 0.01; stroke-linejoin: miter"/>
   </g>
   <g id="QuadMesh_1">
    <path d="M 361.152 241.056 
L 387.7632 241.056 
L 387.7632 224.424 
L 361.152 224.424 
L 361.152 241.056 
" clip-path="url(#pf61ab15ca7)" style="fill: #310597"/>
    <path d="M 361.152 224.424 
L 387.7632 224.424 
L 387.7632 207.792 
L 361.152 207.792 
L 361.152 224.424 
" clip-path="url(#pf61ab15ca7)" style="fill: #6600a7"/>
    <path d="M 361.152 207.792 
L 387.7632 207.792 
L 387.7632 191.16 
L 361.152 191.16 
L 361.152 207.792 
" clip-path="url(#pf61ab15ca7)" style="fill: #9511a1"/>
    <path d="M 361.152 191.16 
L 387.7632 191.16 
L 387.7632 174.528 
L 361.152 174.528 
L 361.152 191.16 
" clip-path="url(#pf61ab15ca7)" style="fill: #bc3587"/>
    <path d="M 361.152 174.528 
L 387.7632 174.528 
L 387.7632 157.896 
L 361.152 157.896 
L 361.152 174.528 
" clip-path="url(#pf61ab15ca7)" style="fill: #da5a6a"/>
    <path d="M 361.152 157.896 
L 387.7632 157.896 
L 387.7632 141.264 
L 361.152 141.264 
L 361.152 157.896 
" clip-path="url(#pf61ab15ca7)" style="fill: #f07f4f"/>
    <path d="M 361.152 141.264 
L 387.7632 141.264 
L 387.7632 124.632 
L 361.152 124.632 
L 361.152 141.264 
" clip-path="url(#pf61ab15ca7)" style="fill: #fdac33"/>
    <path d="M 361.152 124.632 
L 387.7632 124.632 
L 387.7632 108 
L 361.152 108 
L 361.152 124.632 
" clip-path="url(#pf61ab15ca7)" style="fill: #f9dd25"/>
   </g>
   <g id="matplotlib.axis_1"/>
   <g id="matplotlib.axis_2">
    <g id="ytick_1">
     <g id="line2d_19">
      <defs>
       <path id="mf94803cd6d" d="M 0 0 
L 3.5 0 
" style="stroke: #000000; stroke-width: 0.8"/>
      </defs>
      <g>
       <use xlink:href="#mf94803cd6d" x="387.7632" y="241.056" style="stroke: #000000; stroke-width: 0.8"/>
      </g>
     </g>
     <g id="text_20">
      <!-- 0.000 -->
      <g transform="translate(394.7632 244.855219) scale(0.1 -0.1)">
       <use xlink:href="#DejaVuSans-30"/>
       <use xlink:href="#DejaVuSans-2e" x="63.623047"/>
       <use xlink:href="#DejaVuSans-30" x="95.410156"/>
       <use xlink:href="#DejaVuSans-30" x="159.033203"/>
       <use xlink:href="#DejaVuSans-30" x="222.65625"/>
      </g>
     </g>
    </g>
    <g id="ytick_2">
     <g id="line2d_20">
      <g>
       <use xlink:href="#mf94803cd6d" x="387.7632" y="224.424" style="stroke: #000000; stroke-width: 0.8"/>
      </g>
     </g>
     <g id="text_21">
      <!-- 0.015 -->
      <g transform="translate(394.7632 228.223219) scale(0.1 -0.1)">
       <defs>
        <path id="DejaVuSans-35" d="M 691 4666 
L 3169 4666 
L 3169 4134 
L 1269 4134 
L 1269 2991 
Q 1406 3038 1543 3061 
Q 1681 3084 1819 3084 
Q 2600 3084 3056 2656 
Q 3513 2228 3513 1497 
Q 3513 744 3044 326 
Q 2575 -91 1722 -91 
Q 1428 -91 1123 -41 
Q 819 9 494 109 
L 494 744 
Q 775 591 1075 516 
Q 1375 441 1709 441 
Q 2250 441 2565 725 
Q 2881 1009 2881 1497 
Q 2881 1984 2565 2268 
Q 2250 2553 1709 2553 
Q 1456 2553 1204 2497 
Q 953 2441 691 2322 
L 691 4666 
z
" transform="scale(0.015625)"/>
       </defs>
       <use xlink:href="#DejaVuSans-30"/>
       <use xlink:href="#DejaVuSans-2e" x="63.623047"/>
       <use xlink:href="#DejaVuSans-30" x="95.410156"/>
       <use xlink:href="#DejaVuSans-31" x="159.033203"/>
       <use xlink:href="#DejaVuSans-35" x="222.65625"/>
      </g>
     </g>
    </g>
    <g id="ytick_3">
     <g id="line2d_21">
      <g>
       <use xlink:href="#mf94803cd6d" x="387.7632" y="207.792" style="stroke: #000000; stroke-width: 0.8"/>
      </g>
     </g>
     <g id="text_22">
      <!-- 0.030 -->
      <g transform="translate(394.7632 211.591219) scale(0.1 -0.1)">
       <defs>
        <path id="DejaVuSans-33" d="M 2597 2516 
Q 3050 2419 3304 2112 
Q 3559 1806 3559 1356 
Q 3559 666 3084 287 
Q 2609 -91 1734 -91 
Q 1441 -91 1130 -33 
Q 819 25 488 141 
L 488 750 
Q 750 597 1062 519 
Q 1375 441 1716 441 
Q 2309 441 2620 675 
Q 2931 909 2931 1356 
Q 2931 1769 2642 2001 
Q 2353 2234 1838 2234 
L 1294 2234 
L 1294 2753 
L 1863 2753 
Q 2328 2753 2575 2939 
Q 2822 3125 2822 3475 
Q 2822 3834 2567 4026 
Q 2313 4219 1838 4219 
Q 1578 4219 1281 4162 
Q 984 4106 628 3988 
L 628 4550 
Q 988 4650 1302 4700 
Q 1616 4750 1894 4750 
Q 2613 4750 3031 4423 
Q 3450 4097 3450 3541 
Q 3450 3153 3228 2886 
Q 3006 2619 2597 2516 
z
" transform="scale(0.015625)"/>
       </defs>
       <use xlink:href="#DejaVuSans-30"/>
       <use xlink:href="#DejaVuSans-2e" x="63.623047"/>
       <use xlink:href="#DejaVuSans-30" x="95.410156"/>
       <use xlink:href="#DejaVuSans-33" x="159.033203"/>
       <use xlink:href="#DejaVuSans-30" x="222.65625"/>
      </g>
     </g>
    </g>
    <g id="ytick_4">
     <g id="line2d_22">
      <g>
       <use xlink:href="#mf94803cd6d" x="387.7632" y="191.16" style="stroke: #000000; stroke-width: 0.8"/>
      </g>
     </g>
     <g id="text_23">
      <!-- 0.045 -->
      <g transform="translate(394.7632 194.959219) scale(0.1 -0.1)">
       <use xlink:href="#DejaVuSans-30"/>
       <use xlink:href="#DejaVuSans-2e" x="63.623047"/>
       <use xlink:href="#DejaVuSans-30" x="95.410156"/>
       <use xlink:href="#DejaVuSans-34" x="159.033203"/>
       <use xlink:href="#DejaVuSans-35" x="222.65625"/>
      </g>
     </g>
    </g>
    <g id="ytick_5">
     <g id="line2d_23">
      <g>
       <use xlink:href="#mf94803cd6d" x="387.7632" y="174.528" style="stroke: #000000; stroke-width: 0.8"/>
      </g>
     </g>
     <g id="text_24">
      <!-- 0.060 -->
      <g transform="translate(394.7632 178.327219) scale(0.1 -0.1)">
       <use xlink:href="#DejaVuSans-30"/>
       <use xlink:href="#DejaVuSans-2e" x="63.623047"/>
       <use xlink:href="#DejaVuSans-30" x="95.410156"/>
       <use xlink:href="#DejaVuSans-36" x="159.033203"/>
       <use xlink:href="#DejaVuSans-30" x="222.65625"/>
      </g>
     </g>
    </g>
    <g id="ytick_6">
     <g id="line2d_24">
      <g>
       <use xlink:href="#mf94803cd6d" x="387.7632" y="157.896" style="stroke: #000000; stroke-width: 0.8"/>
      </g>
     </g>
     <g id="text_25">
      <!-- 0.075 -->
      <g transform="translate(394.7632 161.695219) scale(0.1 -0.1)">
       <defs>
        <path id="DejaVuSans-37" d="M 525 4666 
L 3525 4666 
L 3525 4397 
L 1831 0 
L 1172 0 
L 2766 4134 
L 525 4134 
L 525 4666 
z
" transform="scale(0.015625)"/>
       </defs>
       <use xlink:href="#DejaVuSans-30"/>
       <use xlink:href="#DejaVuSans-2e" x="63.623047"/>
       <use xlink:href="#DejaVuSans-30" x="95.410156"/>
       <use xlink:href="#DejaVuSans-37" x="159.033203"/>
       <use xlink:href="#DejaVuSans-35" x="222.65625"/>
      </g>
     </g>
    </g>
    <g id="ytick_7">
     <g id="line2d_25">
      <g>
       <use xlink:href="#mf94803cd6d" x="387.7632" y="141.264" style="stroke: #000000; stroke-width: 0.8"/>
      </g>
     </g>
     <g id="text_26">
      <!-- 0.090 -->
      <g transform="translate(394.7632 145.063219) scale(0.1 -0.1)">
       <defs>
        <path id="DejaVuSans-39" d="M 703 97 
L 703 672 
Q 941 559 1184 500 
Q 1428 441 1663 441 
Q 2288 441 2617 861 
Q 2947 1281 2994 2138 
Q 2813 1869 2534 1725 
Q 2256 1581 1919 1581 
Q 1219 1581 811 2004 
Q 403 2428 403 3163 
Q 403 3881 828 4315 
Q 1253 4750 1959 4750 
Q 2769 4750 3195 4129 
Q 3622 3509 3622 2328 
Q 3622 1225 3098 567 
Q 2575 -91 1691 -91 
Q 1453 -91 1209 -44 
Q 966 3 703 97 
z
M 1959 2075 
Q 2384 2075 2632 2365 
Q 2881 2656 2881 3163 
Q 2881 3666 2632 3958 
Q 2384 4250 1959 4250 
Q 1534 4250 1286 3958 
Q 1038 3666 1038 3163 
Q 1038 2656 1286 2365 
Q 1534 2075 1959 2075 
z
" transform="scale(0.015625)"/>
       </defs>
       <use xlink:href="#DejaVuSans-30"/>
       <use xlink:href="#DejaVuSans-2e" x="63.623047"/>
       <use xlink:href="#DejaVuSans-30" x="95.410156"/>
       <use xlink:href="#DejaVuSans-39" x="159.033203"/>
       <use xlink:href="#DejaVuSans-30" x="222.65625"/>
      </g>
     </g>
    </g>
    <g id="ytick_8">
     <g id="line2d_26">
      <g>
       <use xlink:href="#mf94803cd6d" x="387.7632" y="124.632" style="stroke: #000000; stroke-width: 0.8"/>
      </g>
     </g>
     <g id="text_27">
      <!-- 0.105 -->
      <g transform="translate(394.7632 128.431219) scale(0.1 -0.1)">
       <use xlink:href="#DejaVuSans-30"/>
       <use xlink:href="#DejaVuSans-2e" x="63.623047"/>
       <use xlink:href="#DejaVuSans-31" x="95.410156"/>
       <use xlink:href="#DejaVuSans-30" x="159.033203"/>
       <use xlink:href="#DejaVuSans-35" x="222.65625"/>
      </g>
     </g>
    </g>
    <g id="ytick_9">
     <g id="line2d_27">
      <g>
       <use xlink:href="#mf94803cd6d" x="387.7632" y="108" style="stroke: #000000; stroke-width: 0.8"/>
      </g>
     </g>
     <g id="text_28">
      <!-- 0.120 -->
      <g transform="translate(394.7632 111.799219) scale(0.1 -0.1)">
       <use xlink:href="#DejaVuSans-30"/>
       <use xlink:href="#DejaVuSans-2e" x="63.623047"/>
       <use xlink:href="#DejaVuSans-31" x="95.410156"/>
       <use xlink:href="#DejaVuSans-32" x="159.033203"/>
       <use xlink:href="#DejaVuSans-30" x="222.65625"/>
      </g>
     </g>
    </g>
   </g>
   <g id="LineCollection_1"/>
   <g id="patch_8">
    <path d="M 361.152 241.056 
L 374.4576 241.056 
L 387.7632 241.056 
L 387.7632 108 
L 374.4576 108 
L 361.152 108 
L 361.152 241.056 
z
" style="fill: none; stroke: #000000; stroke-width: 0.8; stroke-linejoin: miter; stroke-linecap: square"/>
   </g>
  </g>
 </g>
 <defs>
  <clipPath id="p264286a241">
   <rect x="77.184" y="41.472" width="266.112" height="266.112"/>
  </clipPath>
  <clipPath id="pf61ab15ca7">
   <rect x="361.152" y="108" width="26.6112" height="133.056"/>
  </clipPath>
 </defs>
</svg>
