<?xml version="1.0" encoding="utf-8" standalone="no"?>
<!DOCTYPE svg PUBLIC "-//W3C//DTD SVG 1.1//EN"
  "http://www.w3.org/Graphics/SVG/1.1/DTD/svg11.dtd">
<svg xmlns:xlink="http://www.w3.org/1999/xlink" width="460.8pt" height="345.6pt" viewBox="0 0 460.8 345.6" xmlns="http://www.w3.org/2000/svg" version="1.1">
 <metadata>
  <rdf:RDF xmlns:dc="http://purl.org/dc/elements/1.1/" xmlns:cc="http://creativecommons.org/ns#" xmlns:rdf="http://www.w3.org/1999/02/22-rdf-syntax-ns#">
   <cc:Work>
    <dc:type rdf:resource="http://purl.org/dc/dcmitype/StillImage"/>
    <dc:date>2023-04-11T11:35:27.779932</dc:date>
    <dc:format>image/svg+xml</dc:format>
    <dc:creator>
     <cc:Agent>
      <dc:title>Matplotlib v3.6.0, https://matplotlib.org/</dc:title>
     </cc:Agent>
    </dc:creator>
   </cc:Work>
  </rdf:RDF>
 </metadata>
 <defs>
  <style type="text/css">*{stroke-linejoin: round; stroke-linecap: butt}</style>
 </defs>
 <g id="figure_1">
  <g id="patch_1">
   <path d="M 0 345.6 
L 460.8 345.6 
L 460.8 0 
L 0 0 
z
" style="fill: #ffffff"/>
  </g>
  <g id="patch_2">
   <path d="M 77.184 307.584 
L 343.296 307.584 
L 343.296 41.472 
L 77.184 41.472 
z
" style="fill: #ffffff"/>
  </g>
  <g id="pane3d_1">
   <g id="patch_3">
    <path d="M 131.87353 252.89447 
L 295.798686 252.89447 
L 303.45874 260.554524 
L 124.213476 260.554524 
" style="fill: #f2f2f2; opacity: 0.5; stroke: #f2f2f2; stroke-linejoin: miter"/>
   </g>
  </g>
  <g id="pane3d_2">
   <g id="patch_4">
    <path d="M 295.798686 88.969314 
L 295.798686 252.89447 
L 303.45874 260.554524 
L 303.45874 81.30926 
" style="fill: #e6e6e6; opacity: 0.5; stroke: #e6e6e6; stroke-linejoin: miter"/>
   </g>
  </g>
  <g id="pane3d_3">
   <g id="patch_5">
    <path d="M 131.87353 88.969314 
L 131.87353 252.89447 
L 295.798686 252.89447 
L 295.798686 88.969314 
" style="fill: #ececec; opacity: 0.5; stroke: #ececec; stroke-linejoin: miter"/>
   </g>
  </g>
  <g id="axis3d_1">
   <g id="line2d_1">
    <path d="M 131.87353 252.89447 
L 131.87353 88.969314 
" style="fill: none; stroke: #000000; stroke-width: 0.8; stroke-linecap: square"/>
   </g>
   <g id="text_1">
    <!-- x (m) -->
    <g transform="translate(108.137889 190.912361) rotate(-90) scale(0.15 -0.15)">
     <defs>
      <path id="DejaVuSans-78" d="M 3513 3500 
L 2247 1797 
L 3578 0 
L 2900 0 
L 1881 1375 
L 863 0 
L 184 0 
L 1544 1831 
L 300 3500 
L 978 3500 
L 1906 2253 
L 2834 3500 
L 3513 3500 
z
" transform="scale(0.015625)"/>
      <path id="DejaVuSans-20" transform="scale(0.015625)"/>
      <path id="DejaVuSans-28" d="M 1984 4856 
Q 1566 4138 1362 3434 
Q 1159 2731 1159 2009 
Q 1159 1288 1364 580 
Q 1569 -128 1984 -844 
L 1484 -844 
Q 1016 -109 783 600 
Q 550 1309 550 2009 
Q 550 2706 781 3412 
Q 1013 4119 1484 4856 
L 1984 4856 
z
" transform="scale(0.015625)"/>
      <path id="DejaVuSans-6d" d="M 3328 2828 
Q 3544 3216 3844 3400 
Q 4144 3584 4550 3584 
Q 5097 3584 5394 3201 
Q 5691 2819 5691 2113 
L 5691 0 
L 5113 0 
L 5113 2094 
Q 5113 2597 4934 2840 
Q 4756 3084 4391 3084 
Q 3944 3084 3684 2787 
Q 3425 2491 3425 1978 
L 3425 0 
L 2847 0 
L 2847 2094 
Q 2847 2600 2669 2842 
Q 2491 3084 2119 3084 
Q 1678 3084 1418 2786 
Q 1159 2488 1159 1978 
L 1159 0 
L 581 0 
L 581 3500 
L 1159 3500 
L 1159 2956 
Q 1356 3278 1631 3431 
Q 1906 3584 2284 3584 
Q 2666 3584 2933 3390 
Q 3200 3197 3328 2828 
z
" transform="scale(0.015625)"/>
      <path id="DejaVuSans-29" d="M 513 4856 
L 1013 4856 
Q 1481 4119 1714 3412 
Q 1947 2706 1947 2009 
Q 1947 1309 1714 600 
Q 1481 -109 1013 -844 
L 513 -844 
Q 928 -128 1133 580 
Q 1338 1288 1338 2009 
Q 1338 2731 1133 3434 
Q 928 4138 513 4856 
z
" transform="scale(0.015625)"/>
     </defs>
     <use xlink:href="#DejaVuSans-78"/>
     <use xlink:href="#DejaVuSans-20" x="59.179688"/>
     <use xlink:href="#DejaVuSans-28" x="90.966797"/>
     <use xlink:href="#DejaVuSans-6d" x="129.980469"/>
     <use xlink:href="#DejaVuSans-29" x="227.392578"/>
    </g>
   </g>
   <g id="Line3DCollection_1">
    <path d="M 131.87353 99.400915 
L 295.798686 99.400915 
L 303.45874 92.715777 
" style="fill: none; stroke: #b0b0b0; stroke-width: 0.8"/>
    <path d="M 131.87353 135.54136 
L 295.798686 135.54136 
L 303.45874 132.233834 
" style="fill: none; stroke: #b0b0b0; stroke-width: 0.8"/>
    <path d="M 131.87353 171.681806 
L 295.798686 171.681806 
L 303.45874 171.751892 
" style="fill: none; stroke: #b0b0b0; stroke-width: 0.8"/>
    <path d="M 131.87353 207.822252 
L 295.798686 207.822252 
L 303.45874 211.269949 
" style="fill: none; stroke: #b0b0b0; stroke-width: 0.8"/>
    <path d="M 131.87353 243.962698 
L 295.798686 243.962698 
L 303.45874 250.788007 
" style="fill: none; stroke: #b0b0b0; stroke-width: 0.8"/>
   </g>
   <g id="xtick_1">
    <g id="line2d_2">
     <path d="M 133.184931 99.400915 
L 129.250727 99.400915 
" style="fill: none; stroke: #000000; stroke-width: 0.8; stroke-linecap: square"/>
    </g>
    <g id="text_2">
     <!-- −4 -->
     <g transform="translate(111.574078 107.503054) scale(0.1 -0.1)">
      <defs>
       <path id="DejaVuSans-2212" d="M 678 2272 
L 4684 2272 
L 4684 1741 
L 678 1741 
L 678 2272 
z
" transform="scale(0.015625)"/>
       <path id="DejaVuSans-34" d="M 2419 4116 
L 825 1625 
L 2419 1625 
L 2419 4116 
z
M 2253 4666 
L 3047 4666 
L 3047 1625 
L 3713 1625 
L 3713 1100 
L 3047 1100 
L 3047 0 
L 2419 0 
L 2419 1100 
L 313 1100 
L 313 1709 
L 2253 4666 
z
" transform="scale(0.015625)"/>
      </defs>
      <use xlink:href="#DejaVuSans-2212"/>
      <use xlink:href="#DejaVuSans-34" x="83.789062"/>
     </g>
    </g>
   </g>
   <g id="xtick_2">
    <g id="line2d_3">
     <path d="M 133.184931 135.54136 
L 129.250727 135.54136 
" style="fill: none; stroke: #000000; stroke-width: 0.8; stroke-linecap: square"/>
    </g>
    <g id="text_3">
     <!-- −2 -->
     <g transform="translate(111.574078 143.389009) scale(0.1 -0.1)">
      <defs>
       <path id="DejaVuSans-32" d="M 1228 531 
L 3431 531 
L 3431 0 
L 469 0 
L 469 531 
Q 828 903 1448 1529 
Q 2069 2156 2228 2338 
Q 2531 2678 2651 2914 
Q 2772 3150 2772 3378 
Q 2772 3750 2511 3984 
Q 2250 4219 1831 4219 
Q 1534 4219 1204 4116 
Q 875 4013 500 3803 
L 500 4441 
Q 881 4594 1212 4672 
Q 1544 4750 1819 4750 
Q 2544 4750 2975 4387 
Q 3406 4025 3406 3419 
Q 3406 3131 3298 2873 
Q 3191 2616 2906 2266 
Q 2828 2175 2409 1742 
Q 1991 1309 1228 531 
z
" transform="scale(0.015625)"/>
      </defs>
      <use xlink:href="#DejaVuSans-2212"/>
      <use xlink:href="#DejaVuSans-32" x="83.789062"/>
     </g>
    </g>
   </g>
   <g id="xtick_3">
    <g id="line2d_4">
     <path d="M 133.184931 171.681806 
L 129.250727 171.681806 
" style="fill: none; stroke: #000000; stroke-width: 0.8; stroke-linecap: square"/>
    </g>
    <g id="text_4">
     <!-- 0 -->
     <g transform="translate(115.763922 179.274963) scale(0.1 -0.1)">
      <defs>
       <path id="DejaVuSans-30" d="M 2034 4250 
Q 1547 4250 1301 3770 
Q 1056 3291 1056 2328 
Q 1056 1369 1301 889 
Q 1547 409 2034 409 
Q 2525 409 2770 889 
Q 3016 1369 3016 2328 
Q 3016 3291 2770 3770 
Q 2525 4250 2034 4250 
z
M 2034 4750 
Q 2819 4750 3233 4129 
Q 3647 3509 3647 2328 
Q 3647 1150 3233 529 
Q 2819 -91 2034 -91 
Q 1250 -91 836 529 
Q 422 1150 422 2328 
Q 422 3509 836 4129 
Q 1250 4750 2034 4750 
z
" transform="scale(0.015625)"/>
      </defs>
      <use xlink:href="#DejaVuSans-30"/>
     </g>
    </g>
   </g>
   <g id="xtick_4">
    <g id="line2d_5">
     <path d="M 133.184931 207.822252 
L 129.250727 207.822252 
" style="fill: none; stroke: #000000; stroke-width: 0.8; stroke-linecap: square"/>
    </g>
    <g id="text_5">
     <!-- 2 -->
     <g transform="translate(115.763922 215.160917) scale(0.1 -0.1)">
      <use xlink:href="#DejaVuSans-32"/>
     </g>
    </g>
   </g>
   <g id="xtick_5">
    <g id="line2d_6">
     <path d="M 133.184931 243.962698 
L 129.250727 243.962698 
" style="fill: none; stroke: #000000; stroke-width: 0.8; stroke-linecap: square"/>
    </g>
    <g id="text_6">
     <!-- 4 -->
     <g transform="translate(115.763922 251.046872) scale(0.1 -0.1)">
      <use xlink:href="#DejaVuSans-34"/>
     </g>
    </g>
   </g>
  </g>
  <g id="axis3d_2">
   <g id="line2d_7">
    <path d="M 295.798686 88.969314 
L 131.87353 88.969314 
" style="fill: none; stroke: #000000; stroke-width: 0.8; stroke-linecap: square"/>
   </g>
   <g id="text_7">
    <!-- y (m) -->
    <g transform="translate(193.855639 65.233673) scale(0.15 -0.15)">
     <defs>
      <path id="DejaVuSans-79" d="M 2059 -325 
Q 1816 -950 1584 -1140 
Q 1353 -1331 966 -1331 
L 506 -1331 
L 506 -850 
L 844 -850 
Q 1081 -850 1212 -737 
Q 1344 -625 1503 -206 
L 1606 56 
L 191 3500 
L 800 3500 
L 1894 763 
L 2988 3500 
L 3597 3500 
L 2059 -325 
z
" transform="scale(0.015625)"/>
     </defs>
     <use xlink:href="#DejaVuSans-79"/>
     <use xlink:href="#DejaVuSans-20" x="59.179688"/>
     <use xlink:href="#DejaVuSans-28" x="90.966797"/>
     <use xlink:href="#DejaVuSans-6d" x="129.980469"/>
     <use xlink:href="#DejaVuSans-29" x="227.392578"/>
    </g>
   </g>
   <g id="Line3DCollection_2">
    <path d="M 135.619993 260.554524 
L 142.305131 252.89447 
L 142.305131 88.969314 
" style="fill: none; stroke: #b0b0b0; stroke-width: 0.8"/>
    <path d="M 175.13805 260.554524 
L 178.445577 252.89447 
L 178.445577 88.969314 
" style="fill: none; stroke: #b0b0b0; stroke-width: 0.8"/>
    <path d="M 214.656108 260.554524 
L 214.586022 252.89447 
L 214.586022 88.969314 
" style="fill: none; stroke: #b0b0b0; stroke-width: 0.8"/>
    <path d="M 254.174165 260.554524 
L 250.726468 252.89447 
L 250.726468 88.969314 
" style="fill: none; stroke: #b0b0b0; stroke-width: 0.8"/>
    <path d="M 293.692223 260.554524 
L 286.866914 252.89447 
L 286.866914 88.969314 
" style="fill: none; stroke: #b0b0b0; stroke-width: 0.8"/>
   </g>
   <g id="xtick_6">
    <g id="line2d_8">
     <path d="M 142.305131 90.280715 
L 142.305131 86.346511 
" style="fill: none; stroke: #000000; stroke-width: 0.8; stroke-linecap: square"/>
    </g>
    <g id="text_8">
     <!-- −4 -->
     <g transform="translate(135.437739 83.639393) scale(0.1 -0.1)">
      <use xlink:href="#DejaVuSans-2212"/>
      <use xlink:href="#DejaVuSans-34" x="83.789062"/>
     </g>
    </g>
   </g>
   <g id="xtick_7">
    <g id="line2d_9">
     <path d="M 178.445577 90.280715 
L 178.445577 86.346511 
" style="fill: none; stroke: #000000; stroke-width: 0.8; stroke-linecap: square"/>
    </g>
    <g id="text_9">
     <!-- −2 -->
     <g transform="translate(171.323694 83.639393) scale(0.1 -0.1)">
      <use xlink:href="#DejaVuSans-2212"/>
      <use xlink:href="#DejaVuSans-32" x="83.789062"/>
     </g>
    </g>
   </g>
   <g id="xtick_8">
    <g id="line2d_10">
     <path d="M 214.586022 90.280715 
L 214.586022 86.346511 
" style="fill: none; stroke: #000000; stroke-width: 0.8; stroke-linecap: square"/>
    </g>
    <g id="text_10">
     <!-- 0 -->
     <g transform="translate(211.399492 83.639393) scale(0.1 -0.1)">
      <use xlink:href="#DejaVuSans-30"/>
     </g>
    </g>
   </g>
   <g id="xtick_9">
    <g id="line2d_11">
     <path d="M 250.726468 90.280715 
L 250.726468 86.346511 
" style="fill: none; stroke: #000000; stroke-width: 0.8; stroke-linecap: square"/>
    </g>
    <g id="text_11">
     <!-- 2 -->
     <g transform="translate(247.285446 83.639393) scale(0.1 -0.1)">
      <use xlink:href="#DejaVuSans-32"/>
     </g>
    </g>
   </g>
   <g id="xtick_10">
    <g id="line2d_12">
     <path d="M 286.866914 90.280715 
L 286.866914 86.346511 
" style="fill: none; stroke: #000000; stroke-width: 0.8; stroke-linecap: square"/>
    </g>
    <g id="text_12">
     <!-- 4 -->
     <g transform="translate(283.1714 83.639393) scale(0.1 -0.1)">
      <use xlink:href="#DejaVuSans-34"/>
     </g>
    </g>
   </g>
  </g>
  <g id="axis3d_3">
   <g id="line2d_13">
    <path d="M 295.798686 88.969314 
L 303.45874 81.30926 
" style="fill: none; stroke: #000000; stroke-width: 0.8; stroke-linecap: square"/>
   </g>
   <g id="text_13">
    <!-- M (kg) -->
    <g transform="translate(316.435368 74.18615) rotate(-45) scale(0.15 -0.15)">
     <defs>
      <path id="DejaVuSans-4d" d="M 628 4666 
L 1569 4666 
L 2759 1491 
L 3956 4666 
L 4897 4666 
L 4897 0 
L 4281 0 
L 4281 4097 
L 3078 897 
L 2444 897 
L 1241 4097 
L 1241 0 
L 628 0 
L 628 4666 
z
" transform="scale(0.015625)"/>
      <path id="DejaVuSans-6b" d="M 581 4863 
L 1159 4863 
L 1159 1991 
L 2875 3500 
L 3609 3500 
L 1753 1863 
L 3688 0 
L 2938 0 
L 1159 1709 
L 1159 0 
L 581 0 
L 581 4863 
z
" transform="scale(0.015625)"/>
      <path id="DejaVuSans-67" d="M 2906 1791 
Q 2906 2416 2648 2759 
Q 2391 3103 1925 3103 
Q 1463 3103 1205 2759 
Q 947 2416 947 1791 
Q 947 1169 1205 825 
Q 1463 481 1925 481 
Q 2391 481 2648 825 
Q 2906 1169 2906 1791 
z
M 3481 434 
Q 3481 -459 3084 -895 
Q 2688 -1331 1869 -1331 
Q 1566 -1331 1297 -1286 
Q 1028 -1241 775 -1147 
L 775 -588 
Q 1028 -725 1275 -790 
Q 1522 -856 1778 -856 
Q 2344 -856 2625 -561 
Q 2906 -266 2906 331 
L 2906 616 
Q 2728 306 2450 153 
Q 2172 0 1784 0 
Q 1141 0 747 490 
Q 353 981 353 1791 
Q 353 2603 747 3093 
Q 1141 3584 1784 3584 
Q 2172 3584 2450 3431 
Q 2728 3278 2906 2969 
L 2906 3500 
L 3481 3500 
L 3481 434 
z
" transform="scale(0.015625)"/>
     </defs>
     <use xlink:href="#DejaVuSans-4d"/>
     <use xlink:href="#DejaVuSans-20" x="86.279297"/>
     <use xlink:href="#DejaVuSans-28" x="118.066406"/>
     <use xlink:href="#DejaVuSans-6b" x="157.080078"/>
     <use xlink:href="#DejaVuSans-67" x="214.990234"/>
     <use xlink:href="#DejaVuSans-29" x="278.466797"/>
    </g>
   </g>
   <g id="Line3DCollection_3">
    <path d="M 297.079352 87.688648 
L 297.079352 254.175135 
L 130.592865 254.175135 
" style="fill: none; stroke: #b0b0b0; stroke-width: 0.8"/>
    <path d="M 298.764437 86.003563 
L 298.764437 255.860221 
L 128.907779 255.860221 
" style="fill: none; stroke: #b0b0b0; stroke-width: 0.8"/>
    <path d="M 300.519155 84.248845 
L 300.519155 257.614939 
L 127.153061 257.614939 
" style="fill: none; stroke: #b0b0b0; stroke-width: 0.8"/>
    <path d="M 302.347911 82.420089 
L 302.347911 259.443695 
L 125.324305 259.443695 
" style="fill: none; stroke: #b0b0b0; stroke-width: 0.8"/>
   </g>
   <g id="xtick_11">
    <g id="line2d_14">
     <path d="M 297.079352 89.02054 
L 297.079352 85.024865 
" style="fill: none; stroke: #000000; stroke-width: 0.8; stroke-linecap: square"/>
    </g>
    <g id="text_14">
     <!-- 0.1 -->
     <g transform="translate(302.941603 81.473272) scale(0.1 -0.1)">
      <defs>
       <path id="DejaVuSans-2e" d="M 684 794 
L 1344 794 
L 1344 0 
L 684 0 
L 684 794 
z
" transform="scale(0.015625)"/>
       <path id="DejaVuSans-31" d="M 794 531 
L 1825 531 
L 1825 4091 
L 703 3866 
L 703 4441 
L 1819 4666 
L 2450 4666 
L 2450 531 
L 3481 531 
L 3481 0 
L 794 0 
L 794 531 
z
" transform="scale(0.015625)"/>
      </defs>
      <use xlink:href="#DejaVuSans-30"/>
      <use xlink:href="#DejaVuSans-2e" x="63.623047"/>
      <use xlink:href="#DejaVuSans-31" x="95.410156"/>
     </g>
    </g>
   </g>
   <g id="xtick_12">
    <g id="line2d_15">
     <path d="M 298.764437 87.362416 
L 298.764437 83.285856 
" style="fill: none; stroke: #000000; stroke-width: 0.8; stroke-linecap: square"/>
    </g>
    <g id="text_15">
     <!-- 0.2 -->
     <g transform="translate(304.906321 79.508554) scale(0.1 -0.1)">
      <use xlink:href="#DejaVuSans-30"/>
      <use xlink:href="#DejaVuSans-2e" x="63.623047"/>
      <use xlink:href="#DejaVuSans-32" x="95.410156"/>
     </g>
    </g>
   </g>
   <g id="xtick_13">
    <g id="line2d_16">
     <path d="M 300.519155 85.635774 
L 300.519155 81.474988 
" style="fill: none; stroke: #000000; stroke-width: 0.8; stroke-linecap: square"/>
    </g>
    <g id="text_16">
     <!-- 0.3 -->
     <g transform="translate(306.952225 77.46265) scale(0.1 -0.1)">
      <defs>
       <path id="DejaVuSans-33" d="M 2597 2516 
Q 3050 2419 3304 2112 
Q 3559 1806 3559 1356 
Q 3559 666 3084 287 
Q 2609 -91 1734 -91 
Q 1441 -91 1130 -33 
Q 819 25 488 141 
L 488 750 
Q 750 597 1062 519 
Q 1375 441 1716 441 
Q 2309 441 2620 675 
Q 2931 909 2931 1356 
Q 2931 1769 2642 2001 
Q 2353 2234 1838 2234 
L 1294 2234 
L 1294 2753 
L 1863 2753 
Q 2328 2753 2575 2939 
Q 2822 3125 2822 3475 
Q 2822 3834 2567 4026 
Q 2313 4219 1838 4219 
Q 1578 4219 1281 4162 
Q 984 4106 628 3988 
L 628 4550 
Q 988 4650 1302 4700 
Q 1616 4750 1894 4750 
Q 2613 4750 3031 4423 
Q 3450 4097 3450 3541 
Q 3450 3153 3228 2886 
Q 3006 2619 2597 2516 
z
" transform="scale(0.015625)"/>
      </defs>
      <use xlink:href="#DejaVuSans-30"/>
      <use xlink:href="#DejaVuSans-2e" x="63.623047"/>
      <use xlink:href="#DejaVuSans-33" x="95.410156"/>
     </g>
    </g>
   </g>
   <g id="xtick_14">
    <g id="line2d_17">
     <path d="M 302.347911 83.836278 
L 302.347911 79.587711 
" style="fill: none; stroke: #000000; stroke-width: 0.8; stroke-linecap: square"/>
    </g>
    <g id="text_17">
     <!-- 0.4 -->
     <g transform="translate(309.084455 75.33042) scale(0.1 -0.1)">
      <use xlink:href="#DejaVuSans-30"/>
      <use xlink:href="#DejaVuSans-2e" x="63.623047"/>
      <use xlink:href="#DejaVuSans-34" x="95.410156"/>
     </g>
    </g>
   </g>
  </g>
  <g id="axes_1">
   <g id="Poly3DCollection_1">
    <path d="M 142.182646 100.853231 
L 142.182646 102.428033 
L 142.182646 104.002834 
L 142.182646 105.577635 
L 142.182646 107.152437 
L 142.182646 108.727238 
L 142.182646 110.30204 
L 142.182646 111.876841 
L 142.182646 113.451642 
L 142.182646 115.026444 
L 142.182646 116.601245 
L 142.182646 118.176046 
L 142.182646 119.750848 
L 142.182646 121.325649 
L 142.182646 122.90045 
L 142.182646 124.475252 
L 142.182646 126.050053 
L 142.182646 127.624855 
L 142.182646 129.199656 
L 142.182646 130.774457 
L 142.182646 132.349259 
L 142.182646 133.92406 
L 142.182646 135.498861 
L 142.182646 137.073663 
L 142.182646 138.648464 
L 142.182646 140.223265 
L 142.182646 141.798067 
L 142.182646 143.372868 
L 142.182646 144.947669 
L 142.182646 146.522471 
L 142.182646 148.097272 
L 142.182646 149.672074 
L 142.182646 151.246875 
L 142.182646 152.821676 
L 142.182646 154.396478 
L 142.182646 155.971279 
L 142.182646 157.54608 
L 142.182646 159.120882 
L 142.182646 160.695683 
L 142.182646 162.270484 
L 142.182646 163.845286 
L 142.182646 165.420087 
L 142.182646 166.994888 
L 142.182646 168.56969 
L 142.182646 170.144491 
L 142.182646 171.719293 
L 142.182646 173.294094 
L 142.182646 174.868895 
L 142.182646 176.443697 
L 142.182646 178.018498 
L 142.182646 179.593299 
L 142.182646 181.168101 
L 142.182646 182.742902 
L 142.182646 184.317703 
L 142.182646 185.892505 
L 142.182646 187.467306 
L 142.182646 189.042108 
L 142.182646 190.616909 
L 142.182646 192.19171 
L 142.182646 193.766512 
L 142.182646 195.341313 
L 142.182646 196.916114 
L 142.182646 198.490916 
L 142.182646 200.065717 
L 142.182646 201.640518 
L 142.182646 203.21532 
L 142.182646 204.790121 
L 142.182646 206.364922 
L 142.182646 207.939724 
L 142.182646 209.514525 
L 142.182646 211.089327 
L 142.182646 212.664128 
L 142.182646 214.238929 
L 142.182646 215.813731 
L 142.182646 217.388532 
L 142.182646 218.963333 
L 142.182646 220.538135 
L 142.182646 222.112936 
L 142.182646 223.687737 
L 142.182646 225.262539 
L 142.182646 226.83734 
L 142.182646 228.412142 
L 142.182646 229.986943 
L 142.182646 231.561744 
L 142.182646 233.136546 
L 142.182646 234.711347 
L 142.182646 236.286148 
L 142.182646 237.86095 
L 142.182646 239.435751 
L 142.182646 241.010552 
L 142.182646 242.585354 
L 143.757448 242.585354 
L 145.332249 242.585354 
L 146.90705 242.585354 
L 148.481852 242.585354 
L 150.056653 242.585354 
L 151.631454 242.585354 
L 153.206256 242.585354 
L 154.781057 242.585354 
L 156.355858 242.585354 
L 157.93066 242.585354 
L 159.505461 242.585354 
L 161.080263 242.585354 
L 162.655064 242.585354 
L 164.229865 242.585354 
L 165.804667 242.585354 
L 167.379468 242.585354 
L 168.954269 242.585354 
L 170.529071 242.585354 
L 172.103872 242.585354 
L 173.678673 242.585354 
L 175.253475 242.585354 
L 176.828276 242.585354 
L 178.403078 242.585354 
L 179.977879 242.585354 
L 181.55268 242.585354 
L 183.127482 242.585354 
L 184.702283 242.585354 
L 186.277084 242.585354 
L 187.851886 242.585354 
L 189.426687 242.585354 
L 191.001488 242.585354 
L 192.57629 242.585354 
L 194.151091 242.585354 
L 195.725892 242.585354 
L 197.300694 242.585354 
L 198.875495 242.585354 
L 200.450297 242.585354 
L 202.025098 242.585354 
L 203.599899 242.585354 
L 205.174701 242.585354 
L 206.749502 242.585354 
L 208.324303 242.585354 
L 209.899105 242.585354 
L 211.473906 242.585354 
L 213.048707 242.585354 
L 214.623509 242.585354 
L 216.19831 242.585354 
L 217.773112 242.585354 
L 219.347913 242.585354 
L 220.922714 242.585354 
L 222.497516 242.585354 
L 224.072317 242.585354 
L 225.647118 242.585354 
L 227.22192 242.585354 
L 228.796721 242.585354 
L 230.371522 242.585354 
L 231.946324 242.585354 
L 233.521125 242.585354 
L 235.095926 242.585354 
L 236.670728 242.585354 
L 238.245529 242.585354 
L 239.820331 242.585354 
L 241.395132 242.585354 
L 242.969933 242.585354 
L 244.544735 242.585354 
L 246.119536 242.585354 
L 247.694337 242.585354 
L 249.269139 242.585354 
L 250.84394 242.585354 
L 252.418741 242.585354 
L 253.993543 242.585354 
L 255.568344 242.585354 
L 257.143145 242.585354 
L 258.717947 242.585354 
L 260.292748 242.585354 
L 261.86755 242.585354 
L 263.442351 242.585354 
L 265.017152 242.585354 
L 266.591954 242.585354 
L 268.166755 242.585354 
L 269.741556 242.585354 
L 271.316358 242.585354 
L 272.891159 242.585354 
L 274.46596 242.585354 
L 276.040762 242.585354 
L 277.615563 242.585354 
L 279.190365 242.585354 
L 280.765166 242.585354 
L 282.339967 242.585354 
L 283.914769 242.585354 
L 285.48957 242.585354 
L 285.48957 241.010552 
L 285.48957 239.435751 
L 285.48957 237.86095 
L 285.48957 236.286148 
L 285.48957 234.711347 
L 285.48957 233.136546 
L 285.48957 231.561744 
L 285.48957 229.986943 
L 285.48957 228.412142 
L 285.48957 226.83734 
L 285.48957 225.262539 
L 285.48957 223.687737 
L 285.48957 222.112936 
L 285.48957 220.538135 
L 285.48957 218.963333 
L 285.48957 217.388532 
L 285.48957 215.813731 
L 285.48957 214.238929 
L 285.48957 212.664128 
L 285.48957 211.089327 
L 285.48957 209.514525 
L 285.48957 207.939724 
L 285.48957 206.364922 
L 285.48957 204.790121 
L 285.48957 203.21532 
L 285.48957 201.640518 
L 285.48957 200.065717 
L 285.48957 198.490916 
L 285.48957 196.916114 
L 285.48957 195.341313 
L 285.48957 193.766512 
L 285.48957 192.19171 
L 285.48957 190.616909 
L 285.48957 189.042108 
L 285.48957 187.467306 
L 285.48957 185.892505 
L 285.48957 184.317703 
L 285.48957 182.742902 
L 285.48957 181.168101 
L 285.48957 179.593299 
L 285.48957 178.018498 
L 285.48957 176.443697 
L 285.48957 174.868895 
L 285.48957 173.294094 
L 285.48957 171.719293 
L 285.48957 170.144491 
L 285.48957 168.56969 
L 285.48957 166.994888 
L 285.48957 165.420087 
L 285.48957 163.845286 
L 285.48957 162.270484 
L 285.48957 160.695683 
L 285.48957 159.120882 
L 285.48957 157.54608 
L 285.48957 155.971279 
L 285.48957 154.396478 
L 285.48957 152.821676 
L 285.48957 151.246875 
L 285.48957 149.672074 
L 285.48957 148.097272 
L 285.48957 146.522471 
L 285.48957 144.947669 
L 285.48957 143.372868 
L 285.48957 141.798067 
L 285.48957 140.223265 
L 285.48957 138.648464 
L 285.48957 137.073663 
L 285.48957 135.498861 
L 285.48957 133.92406 
L 285.48957 132.349259 
L 285.48957 130.774457 
L 285.48957 129.199656 
L 285.48957 127.624855 
L 285.48957 126.050053 
L 285.48957 124.475252 
L 285.48957 122.90045 
L 285.48957 121.325649 
L 285.48957 119.750848 
L 285.48957 118.176046 
L 285.48957 116.601245 
L 285.48957 115.026444 
L 285.48957 113.451642 
L 285.48957 111.876841 
L 285.48957 110.30204 
L 285.48957 108.727238 
L 285.48957 107.152437 
L 285.48957 105.577635 
L 285.48957 104.002834 
L 285.48957 102.428033 
L 285.48957 100.853231 
L 285.48957 99.27843 
L 283.914769 99.27843 
L 282.339967 99.27843 
L 280.765166 99.27843 
L 279.190365 99.27843 
L 277.615563 99.27843 
L 276.040762 99.27843 
L 274.46596 99.27843 
L 272.891159 99.27843 
L 271.316358 99.27843 
L 269.741556 99.27843 
L 268.166755 99.27843 
L 266.591954 99.27843 
L 265.017152 99.27843 
L 263.442351 99.27843 
L 261.86755 99.27843 
L 260.292748 99.27843 
L 258.717947 99.27843 
L 257.143145 99.27843 
L 255.568344 99.27843 
L 253.993543 99.27843 
L 252.418741 99.27843 
L 250.84394 99.27843 
L 249.269139 99.27843 
L 247.694337 99.27843 
L 246.119536 99.27843 
L 244.544735 99.27843 
L 242.969933 99.27843 
L 241.395132 99.27843 
L 239.820331 99.27843 
L 238.245529 99.27843 
L 236.670728 99.27843 
L 235.095926 99.27843 
L 233.521125 99.27843 
L 231.946324 99.27843 
L 230.371522 99.27843 
L 228.796721 99.27843 
L 227.22192 99.27843 
L 225.647118 99.27843 
L 224.072317 99.27843 
L 222.497516 99.27843 
L 220.922714 99.27843 
L 219.347913 99.27843 
L 217.773112 99.27843 
L 216.19831 99.27843 
L 214.623509 99.27843 
L 213.048707 99.27843 
L 211.473906 99.27843 
L 209.899105 99.27843 
L 208.324303 99.27843 
L 206.749502 99.27843 
L 205.174701 99.27843 
L 203.599899 99.27843 
L 202.025098 99.27843 
L 200.450297 99.27843 
L 198.875495 99.27843 
L 197.300694 99.27843 
L 195.725892 99.27843 
L 194.151091 99.27843 
L 192.57629 99.27843 
L 191.001488 99.27843 
L 189.426687 99.27843 
L 187.851886 99.27843 
L 186.277084 99.27843 
L 184.702283 99.27843 
L 183.127482 99.27843 
L 181.55268 99.27843 
L 179.977879 99.27843 
L 178.403078 99.27843 
L 176.828276 99.27843 
L 175.253475 99.27843 
L 173.678673 99.27843 
L 172.103872 99.27843 
L 170.529071 99.27843 
L 168.954269 99.27843 
L 167.379468 99.27843 
L 165.804667 99.27843 
L 164.229865 99.27843 
L 162.655064 99.27843 
L 161.080263 99.27843 
L 159.505461 99.27843 
L 157.93066 99.27843 
L 156.355858 99.27843 
L 154.781057 99.27843 
L 153.206256 99.27843 
L 151.631454 99.27843 
L 150.056653 99.27843 
L 148.481852 99.27843 
L 146.90705 99.27843 
L 145.332249 99.27843 
L 143.757448 99.27843 
L 142.182646 99.27843 
z
M 213.048707 177.14014 
L 213.251322 176.443697 
L 213.975914 174.868895 
L 214.623509 173.958083 
L 215.060354 173.294094 
L 216.19831 172.023341 
L 216.54443 171.719293 
L 217.773112 170.645773 
L 218.693933 170.144491 
L 219.347913 169.686736 
L 220.922714 169.026244 
L 222.497516 168.722163 
L 224.072317 168.679104 
L 225.647118 168.899792 
L 227.22192 169.492876 
L 228.125853 170.144491 
L 228.796721 170.515361 
L 230.119207 171.719293 
L 230.371522 171.948677 
L 231.596634 173.294094 
L 231.946324 173.799362 
L 232.794065 174.868895 
L 233.521125 176.277091 
L 233.639646 176.443697 
L 234.451529 178.018498 
L 234.940039 179.593299 
L 235.095926 180.389057 
L 235.33526 181.168101 
L 235.615414 182.742902 
L 235.719347 184.317703 
L 235.652886 185.892505 
L 235.377089 187.467306 
L 235.095926 188.253895 
L 234.912769 189.042108 
L 234.23588 190.616909 
L 233.521125 191.573783 
L 233.147149 192.19171 
L 231.946324 193.503729 
L 231.683504 193.766512 
L 230.371522 194.98335 
L 229.797735 195.341313 
L 228.796721 196.125503 
L 227.22192 196.805361 
L 226.672657 196.916114 
L 225.647118 197.235356 
L 224.072317 197.333408 
L 222.497516 197.094077 
L 222.018287 196.916114 
L 220.922714 196.643524 
L 219.347913 195.911339 
L 218.593745 195.341313 
L 217.773112 194.85762 
L 216.5726 193.766512 
L 216.19831 193.433782 
L 215.08615 192.19171 
L 214.623509 191.506275 
L 213.976045 190.616909 
L 213.233749 189.042108 
L 213.048707 188.414008 
L 212.637108 187.467306 
L 212.230759 185.892505 
L 212.025553 184.317703 
L 211.967513 182.742902 
L 212.040763 181.168101 
L 212.259035 179.593299 
L 212.672585 178.018498 
z
" clip-path="url(#p5fe91f337f)" style="fill: #310597"/>
   </g>
   <g id="text_18">
    <!-- Mass of the anomaly at depth of 0.7 m -->
    <g transform="translate(16.000938 35.472) scale(0.2 -0.2)">
     <defs>
      <path id="DejaVuSans-61" d="M 2194 1759 
Q 1497 1759 1228 1600 
Q 959 1441 959 1056 
Q 959 750 1161 570 
Q 1363 391 1709 391 
Q 2188 391 2477 730 
Q 2766 1069 2766 1631 
L 2766 1759 
L 2194 1759 
z
M 3341 1997 
L 3341 0 
L 2766 0 
L 2766 531 
Q 2569 213 2275 61 
Q 1981 -91 1556 -91 
Q 1019 -91 701 211 
Q 384 513 384 1019 
Q 384 1609 779 1909 
Q 1175 2209 1959 2209 
L 2766 2209 
L 2766 2266 
Q 2766 2663 2505 2880 
Q 2244 3097 1772 3097 
Q 1472 3097 1187 3025 
Q 903 2953 641 2809 
L 641 3341 
Q 956 3463 1253 3523 
Q 1550 3584 1831 3584 
Q 2591 3584 2966 3190 
Q 3341 2797 3341 1997 
z
" transform="scale(0.015625)"/>
      <path id="DejaVuSans-73" d="M 2834 3397 
L 2834 2853 
Q 2591 2978 2328 3040 
Q 2066 3103 1784 3103 
Q 1356 3103 1142 2972 
Q 928 2841 928 2578 
Q 928 2378 1081 2264 
Q 1234 2150 1697 2047 
L 1894 2003 
Q 2506 1872 2764 1633 
Q 3022 1394 3022 966 
Q 3022 478 2636 193 
Q 2250 -91 1575 -91 
Q 1294 -91 989 -36 
Q 684 19 347 128 
L 347 722 
Q 666 556 975 473 
Q 1284 391 1588 391 
Q 1994 391 2212 530 
Q 2431 669 2431 922 
Q 2431 1156 2273 1281 
Q 2116 1406 1581 1522 
L 1381 1569 
Q 847 1681 609 1914 
Q 372 2147 372 2553 
Q 372 3047 722 3315 
Q 1072 3584 1716 3584 
Q 2034 3584 2315 3537 
Q 2597 3491 2834 3397 
z
" transform="scale(0.015625)"/>
      <path id="DejaVuSans-6f" d="M 1959 3097 
Q 1497 3097 1228 2736 
Q 959 2375 959 1747 
Q 959 1119 1226 758 
Q 1494 397 1959 397 
Q 2419 397 2687 759 
Q 2956 1122 2956 1747 
Q 2956 2369 2687 2733 
Q 2419 3097 1959 3097 
z
M 1959 3584 
Q 2709 3584 3137 3096 
Q 3566 2609 3566 1747 
Q 3566 888 3137 398 
Q 2709 -91 1959 -91 
Q 1206 -91 779 398 
Q 353 888 353 1747 
Q 353 2609 779 3096 
Q 1206 3584 1959 3584 
z
" transform="scale(0.015625)"/>
      <path id="DejaVuSans-66" d="M 2375 4863 
L 2375 4384 
L 1825 4384 
Q 1516 4384 1395 4259 
Q 1275 4134 1275 3809 
L 1275 3500 
L 2222 3500 
L 2222 3053 
L 1275 3053 
L 1275 0 
L 697 0 
L 697 3053 
L 147 3053 
L 147 3500 
L 697 3500 
L 697 3744 
Q 697 4328 969 4595 
Q 1241 4863 1831 4863 
L 2375 4863 
z
" transform="scale(0.015625)"/>
      <path id="DejaVuSans-74" d="M 1172 4494 
L 1172 3500 
L 2356 3500 
L 2356 3053 
L 1172 3053 
L 1172 1153 
Q 1172 725 1289 603 
Q 1406 481 1766 481 
L 2356 481 
L 2356 0 
L 1766 0 
Q 1100 0 847 248 
Q 594 497 594 1153 
L 594 3053 
L 172 3053 
L 172 3500 
L 594 3500 
L 594 4494 
L 1172 4494 
z
" transform="scale(0.015625)"/>
      <path id="DejaVuSans-68" d="M 3513 2113 
L 3513 0 
L 2938 0 
L 2938 2094 
Q 2938 2591 2744 2837 
Q 2550 3084 2163 3084 
Q 1697 3084 1428 2787 
Q 1159 2491 1159 1978 
L 1159 0 
L 581 0 
L 581 4863 
L 1159 4863 
L 1159 2956 
Q 1366 3272 1645 3428 
Q 1925 3584 2291 3584 
Q 2894 3584 3203 3211 
Q 3513 2838 3513 2113 
z
" transform="scale(0.015625)"/>
      <path id="DejaVuSans-65" d="M 3597 1894 
L 3597 1613 
L 953 1613 
Q 991 1019 1311 708 
Q 1631 397 2203 397 
Q 2534 397 2845 478 
Q 3156 559 3463 722 
L 3463 178 
Q 3153 47 2828 -22 
Q 2503 -91 2169 -91 
Q 1331 -91 842 396 
Q 353 884 353 1716 
Q 353 2575 817 3079 
Q 1281 3584 2069 3584 
Q 2775 3584 3186 3129 
Q 3597 2675 3597 1894 
z
M 3022 2063 
Q 3016 2534 2758 2815 
Q 2500 3097 2075 3097 
Q 1594 3097 1305 2825 
Q 1016 2553 972 2059 
L 3022 2063 
z
" transform="scale(0.015625)"/>
      <path id="DejaVuSans-6e" d="M 3513 2113 
L 3513 0 
L 2938 0 
L 2938 2094 
Q 2938 2591 2744 2837 
Q 2550 3084 2163 3084 
Q 1697 3084 1428 2787 
Q 1159 2491 1159 1978 
L 1159 0 
L 581 0 
L 581 3500 
L 1159 3500 
L 1159 2956 
Q 1366 3272 1645 3428 
Q 1925 3584 2291 3584 
Q 2894 3584 3203 3211 
Q 3513 2838 3513 2113 
z
" transform="scale(0.015625)"/>
      <path id="DejaVuSans-6c" d="M 603 4863 
L 1178 4863 
L 1178 0 
L 603 0 
L 603 4863 
z
" transform="scale(0.015625)"/>
      <path id="DejaVuSans-64" d="M 2906 2969 
L 2906 4863 
L 3481 4863 
L 3481 0 
L 2906 0 
L 2906 525 
Q 2725 213 2448 61 
Q 2172 -91 1784 -91 
Q 1150 -91 751 415 
Q 353 922 353 1747 
Q 353 2572 751 3078 
Q 1150 3584 1784 3584 
Q 2172 3584 2448 3432 
Q 2725 3281 2906 2969 
z
M 947 1747 
Q 947 1113 1208 752 
Q 1469 391 1925 391 
Q 2381 391 2643 752 
Q 2906 1113 2906 1747 
Q 2906 2381 2643 2742 
Q 2381 3103 1925 3103 
Q 1469 3103 1208 2742 
Q 947 2381 947 1747 
z
" transform="scale(0.015625)"/>
      <path id="DejaVuSans-70" d="M 1159 525 
L 1159 -1331 
L 581 -1331 
L 581 3500 
L 1159 3500 
L 1159 2969 
Q 1341 3281 1617 3432 
Q 1894 3584 2278 3584 
Q 2916 3584 3314 3078 
Q 3713 2572 3713 1747 
Q 3713 922 3314 415 
Q 2916 -91 2278 -91 
Q 1894 -91 1617 61 
Q 1341 213 1159 525 
z
M 3116 1747 
Q 3116 2381 2855 2742 
Q 2594 3103 2138 3103 
Q 1681 3103 1420 2742 
Q 1159 2381 1159 1747 
Q 1159 1113 1420 752 
Q 1681 391 2138 391 
Q 2594 391 2855 752 
Q 3116 1113 3116 1747 
z
" transform="scale(0.015625)"/>
      <path id="DejaVuSans-37" d="M 525 4666 
L 3525 4666 
L 3525 4397 
L 1831 0 
L 1172 0 
L 2766 4134 
L 525 4134 
L 525 4666 
z
" transform="scale(0.015625)"/>
     </defs>
     <use xlink:href="#DejaVuSans-4d"/>
     <use xlink:href="#DejaVuSans-61" x="86.279297"/>
     <use xlink:href="#DejaVuSans-73" x="147.558594"/>
     <use xlink:href="#DejaVuSans-73" x="199.658203"/>
     <use xlink:href="#DejaVuSans-20" x="251.757812"/>
     <use xlink:href="#DejaVuSans-6f" x="283.544922"/>
     <use xlink:href="#DejaVuSans-66" x="344.726562"/>
     <use xlink:href="#DejaVuSans-20" x="379.931641"/>
     <use xlink:href="#DejaVuSans-74" x="411.71875"/>
     <use xlink:href="#DejaVuSans-68" x="450.927734"/>
     <use xlink:href="#DejaVuSans-65" x="514.306641"/>
     <use xlink:href="#DejaVuSans-20" x="575.830078"/>
     <use xlink:href="#DejaVuSans-61" x="607.617188"/>
     <use xlink:href="#DejaVuSans-6e" x="668.896484"/>
     <use xlink:href="#DejaVuSans-6f" x="732.275391"/>
     <use xlink:href="#DejaVuSans-6d" x="793.457031"/>
     <use xlink:href="#DejaVuSans-61" x="890.869141"/>
     <use xlink:href="#DejaVuSans-6c" x="952.148438"/>
     <use xlink:href="#DejaVuSans-79" x="979.931641"/>
     <use xlink:href="#DejaVuSans-20" x="1039.111328"/>
     <use xlink:href="#DejaVuSans-61" x="1070.898438"/>
     <use xlink:href="#DejaVuSans-74" x="1132.177734"/>
     <use xlink:href="#DejaVuSans-20" x="1171.386719"/>
     <use xlink:href="#DejaVuSans-64" x="1203.173828"/>
     <use xlink:href="#DejaVuSans-65" x="1266.650391"/>
     <use xlink:href="#DejaVuSans-70" x="1328.173828"/>
     <use xlink:href="#DejaVuSans-74" x="1391.650391"/>
     <use xlink:href="#DejaVuSans-68" x="1430.859375"/>
     <use xlink:href="#DejaVuSans-20" x="1494.238281"/>
     <use xlink:href="#DejaVuSans-6f" x="1526.025391"/>
     <use xlink:href="#DejaVuSans-66" x="1587.207031"/>
     <use xlink:href="#DejaVuSans-20" x="1622.412109"/>
     <use xlink:href="#DejaVuSans-30" x="1654.199219"/>
     <use xlink:href="#DejaVuSans-2e" x="1717.822266"/>
     <use xlink:href="#DejaVuSans-37" x="1749.609375"/>
     <use xlink:href="#DejaVuSans-20" x="1813.232422"/>
     <use xlink:href="#DejaVuSans-6d" x="1845.019531"/>
    </g>
   </g>
   <g id="Poly3DCollection_2">
    <path d="M 212.658761 178.102695 
L 212.240298 179.696207 
L 212.019432 181.289719 
L 211.945312 182.883231 
L 212.004041 184.476743 
L 212.211685 186.070255 
L 212.622863 187.663767 
L 213.039352 188.621716 
L 213.226592 189.257278 
L 213.977708 190.85079 
L 214.632864 191.750723 
L 215.101002 192.444302 
L 216.226376 193.701132 
L 216.605112 194.037814 
L 217.819888 195.141886 
L 218.650271 195.631326 
L 219.4134 196.208124 
L 221.006912 196.949009 
L 222.115501 197.224838 
L 222.600423 197.404914 
L 224.193935 197.64709 
L 225.787447 197.547872 
L 226.82517 197.224838 
L 227.380959 197.112769 
L 228.974471 196.424833 
L 229.987379 195.631326 
L 230.567983 195.26911 
L 231.895552 194.037814 
L 232.161495 193.77191 
L 233.376587 192.444302 
L 233.755006 191.819034 
L 234.478254 190.85079 
L 235.163185 189.257278 
L 235.348518 188.459701 
L 235.633021 187.663767 
L 235.912095 186.070255 
L 235.979346 184.476743 
L 235.874178 182.883231 
L 235.590695 181.289719 
L 235.348518 180.501419 
L 235.190779 179.696207 
L 234.696465 178.102695 
L 233.874935 176.509183 
L 233.755006 176.340599 
L 233.019308 174.915672 
L 232.161495 173.833431 
L 231.80765 173.32216 
L 230.567983 171.960758 
L 230.312669 171.728648 
L 228.974471 170.510412 
L 228.295632 170.135136 
L 227.380959 169.475778 
L 225.787447 168.875648 
L 224.193935 168.652339 
L 222.600423 168.695909 
L 221.006912 169.003602 
L 219.4134 169.671942 
L 218.751649 170.135136 
L 217.819888 170.642374 
L 216.576608 171.728648 
L 216.226376 172.036309 
L 215.0749 173.32216 
L 214.632864 173.994038 
L 213.977575 174.915672 
L 213.244374 176.509183 
L 213.039352 177.213902 
z
M 214.632864 179.606336 
L 214.929229 178.102695 
L 215.461124 176.509183 
L 216.226376 175.128543 
L 216.355395 174.915672 
L 217.788104 173.32216 
L 217.819888 173.293185 
L 219.4134 172.238438 
L 220.824511 171.728648 
L 221.006912 171.651823 
L 222.600423 171.291746 
L 224.193935 171.22802 
L 225.787447 171.462723 
L 226.486063 171.728648 
L 227.380959 172.010132 
L 228.974471 172.999038 
L 229.320033 173.32216 
L 230.567983 174.754422 
L 230.69235 174.915672 
L 231.618834 176.509183 
L 232.161495 178.025539 
L 232.196758 178.102695 
L 232.715274 179.696207 
L 233.035066 181.289719 
L 233.217593 182.883231 
L 233.288055 184.476743 
L 233.245924 186.070255 
L 233.062271 187.663767 
L 232.660189 189.257278 
L 232.161495 190.314882 
L 231.939145 190.85079 
L 230.759546 192.444302 
L 230.567983 192.635847 
L 228.974471 193.797272 
L 228.351874 194.037814 
L 227.380959 194.479371 
L 225.787447 194.809781 
L 224.193935 194.860959 
L 222.600423 194.677777 
L 221.006912 194.227961 
L 220.602143 194.037814 
L 219.4134 193.566654 
L 217.819888 192.480638 
L 217.780384 192.444302 
L 216.333152 190.85079 
L 216.226376 190.676683 
L 215.423816 189.257278 
L 214.894098 187.663767 
L 214.632864 186.305576 
L 214.574843 186.070255 
L 214.362106 184.476743 
L 214.302813 182.883231 
L 214.380793 181.289719 
L 214.610315 179.696207 
z
" clip-path="url(#p5fe91f337f)" style="fill: #6600a7"/>
   </g>
   <g id="Poly3DCollection_3">
    <path d="M 214.619624 179.80159 
L 214.387343 181.414262 
L 214.308425 183.026934 
L 214.368431 184.639607 
L 214.583726 186.252279 
L 214.642444 186.49043 
L 214.906819 187.864951 
L 215.442907 189.477624 
L 216.255117 190.914096 
L 216.363177 191.090296 
L 217.82781 192.702968 
L 217.867789 192.739741 
L 219.480461 193.838815 
L 220.683498 194.315641 
L 221.093134 194.508074 
L 222.705806 194.963298 
L 224.318478 195.148683 
L 225.931151 195.09689 
L 227.543823 194.762507 
L 228.526412 194.315641 
L 229.156495 194.072207 
L 230.769168 192.896816 
L 230.963034 192.702968 
L 232.156817 191.090296 
L 232.38184 190.547944 
L 232.886531 189.477624 
L 233.293447 187.864951 
L 233.479308 186.252279 
L 233.521946 184.639607 
L 233.450637 183.026934 
L 233.265915 181.414262 
L 232.942278 179.80159 
L 232.417527 178.188917 
L 232.38184 178.110834 
L 231.832655 176.576245 
L 230.89503 174.963573 
L 230.769168 174.800384 
L 229.506212 173.3509 
L 229.156495 173.023894 
L 227.543823 172.023097 
L 226.638167 171.738228 
L 225.931151 171.469105 
L 224.318478 171.23158 
L 222.705806 171.296073 
L 221.093134 171.66048 
L 220.90854 171.738228 
L 219.480461 172.254148 
L 217.867789 173.321577 
L 217.835623 173.3509 
L 216.385687 174.963573 
L 216.255117 175.179004 
L 215.480663 176.576245 
L 214.942372 178.188917 
L 214.642444 179.710638 
z
M 216.255117 179.349089 
L 216.54807 178.188917 
L 217.230496 176.576245 
L 217.867789 175.625562 
L 218.46082 174.963573 
L 219.480461 174.138334 
L 221.093134 173.370742 
L 221.173143 173.3509 
L 222.705806 172.977727 
L 224.318478 172.896191 
L 225.931151 173.127824 
L 226.514831 173.3509 
L 227.543823 173.755602 
L 229.095253 174.963573 
L 229.156495 175.026035 
L 230.228528 176.576245 
L 230.769168 177.79214 
L 230.943299 178.188917 
L 231.433462 179.80159 
L 231.740517 181.414262 
L 231.917651 183.026934 
L 231.985232 184.639607 
L 231.93823 186.252279 
L 231.740857 187.864951 
L 231.302943 189.477624 
L 230.769168 190.519473 
L 230.413857 191.090296 
L 229.156495 192.312437 
L 228.411405 192.702968 
L 227.543823 193.110436 
L 225.931151 193.447759 
L 224.318478 193.489642 
L 222.705806 193.287624 
L 221.093134 192.812252 
L 220.864113 192.702968 
L 219.480461 192.000769 
L 218.366681 191.090296 
L 217.867789 190.525802 
L 217.158097 189.477624 
L 216.48899 187.864951 
L 216.255117 186.89955 
L 216.095034 186.252279 
L 215.884931 184.639607 
L 215.827832 183.026934 
L 215.908069 181.414262 
L 216.139841 179.80159 
z
" clip-path="url(#p5fe91f337f)" style="fill: #9511a1"/>
   </g>
   <g id="Poly3DCollection_4">
    <path d="M 216.167878 179.909537 
L 215.933286 181.541837 
L 215.852073 183.174136 
L 215.909866 184.806435 
L 216.122526 186.438734 
L 216.284557 187.093883 
L 216.521276 188.071033 
L 217.198527 189.703332 
L 217.916856 190.764267 
L 218.42182 191.335632 
L 219.549155 192.257185 
L 220.949647 192.967931 
L 221.181454 193.078544 
L 222.813754 193.559702 
L 224.446053 193.764178 
L 226.078352 193.721786 
L 227.710651 193.380357 
L 228.588792 192.967931 
L 229.34295 192.572646 
L 230.615614 191.335632 
L 230.975249 190.757861 
L 231.515521 189.703332 
L 231.958765 188.071033 
L 232.15854 186.438734 
L 232.206114 184.806435 
L 232.13771 183.174136 
L 231.95842 181.541837 
L 231.647628 179.909537 
L 231.1515 178.277238 
L 230.975249 177.875632 
L 230.42803 176.644939 
L 229.34295 175.075863 
L 229.280963 175.01264 
L 227.710651 173.789968 
L 226.669136 173.380341 
L 226.078352 173.154549 
L 224.446053 172.920098 
L 222.813754 173.002625 
L 221.262437 173.380341 
L 221.181454 173.400424 
L 219.549155 174.177357 
L 218.517104 175.01264 
L 217.916856 175.682686 
L 217.271807 176.644939 
L 216.581076 178.277238 
L 216.284557 179.45153 
z
M 217.916856 178.837801 
L 218.122002 178.277238 
L 219.104273 176.644939 
L 219.549155 176.157472 
L 221.181454 175.022931 
L 221.209434 175.01264 
L 222.813754 174.529859 
L 224.446053 174.416189 
L 226.078352 174.678515 
L 226.826108 175.01264 
L 227.710651 175.493921 
L 228.842554 176.644939 
L 229.34295 177.376101 
L 229.798527 178.277238 
L 230.34969 179.909537 
L 230.698672 181.541837 
L 230.900909 183.174136 
L 230.974748 184.806435 
L 230.90689 186.438734 
L 230.641809 188.071033 
L 230.046998 189.703332 
L 229.34295 190.725736 
L 228.627743 191.335632 
L 227.710651 191.879062 
L 226.078352 192.297123 
L 224.446053 192.344367 
L 222.813754 192.096223 
L 221.181454 191.523747 
L 220.851127 191.335632 
L 219.549155 190.368776 
L 218.948732 189.703332 
L 218.012641 188.071033 
L 217.916856 187.790238 
L 217.524908 186.438734 
L 217.284714 184.806435 
L 217.221683 183.174136 
L 217.317977 181.541837 
L 217.590846 179.909537 
z
" clip-path="url(#p5fe91f337f)" style="fill: #bc3587"/>
   </g>
   <g id="Poly3DCollection_5">
    <path d="M 217.637106 180.020145 
L 217.360875 181.672555 
L 217.263394 183.324964 
L 217.327202 184.977374 
L 217.570355 186.629783 
L 217.967132 187.997939 
L 218.064098 188.282193 
L 219.011721 189.934603 
L 219.619542 190.608245 
L 220.937554 191.587012 
L 221.271951 191.777445 
L 222.924361 192.356974 
L 224.576771 192.608175 
L 226.22918 192.560349 
L 227.88159 192.137138 
L 228.809981 191.587012 
L 229.534 190.969602 
L 230.246721 189.934603 
L 230.848861 188.282193 
L 231.117207 186.629783 
L 231.185902 184.977374 
L 231.111153 183.324964 
L 230.906425 181.672555 
L 230.553143 180.020145 
L 229.995189 178.367735 
L 229.534 177.455495 
L 229.027438 176.715326 
L 227.88159 175.550127 
L 226.986149 175.062916 
L 226.22918 174.724674 
L 224.576771 174.459117 
L 222.924361 174.574187 
L 221.300276 175.062916 
L 221.271951 175.073334 
L 219.619542 176.221853 
L 219.169178 176.715326 
L 218.174806 178.367735 
L 217.967132 178.935205 
z
M 219.619542 178.99494 
L 219.98353 178.367735 
L 221.271951 177.001648 
L 221.771802 176.715326 
L 222.924361 176.238743 
L 224.576771 176.062099 
L 226.22918 176.398771 
L 226.77511 176.715326 
L 227.88159 177.580338 
L 228.444506 178.367735 
L 229.238811 180.020145 
L 229.534 180.974363 
L 229.700965 181.672555 
L 229.926366 183.324964 
L 229.993894 184.977374 
L 229.885267 186.629783 
L 229.534 188.261622 
L 229.527551 188.282193 
L 228.458687 189.934603 
L 227.88159 190.440523 
L 226.22918 191.078997 
L 224.576771 191.155721 
L 222.924361 190.808057 
L 221.271951 190.007183 
L 221.178095 189.934603 
L 219.744597 188.282193 
L 219.619542 188.038674 
L 219.083405 186.629783 
L 218.768011 184.977374 
L 218.689241 183.324964 
L 218.824134 181.672555 
L 219.198342 180.020145 
z
" clip-path="url(#p5fe91f337f)" style="fill: #da5a6a"/>
   </g>
   <g id="Poly3DCollection_6">
    <path d="M 219.26523 180.133512 
L 218.886354 181.806534 
L 218.749779 183.479556 
L 218.829532 185.152577 
L 219.148859 186.825599 
L 219.691684 188.252064 
L 219.818299 188.498621 
L 221.26968 190.171643 
L 221.364706 190.245129 
L 223.037728 191.055992 
L 224.71075 191.407993 
L 226.383772 191.330312 
L 228.056794 190.683874 
L 228.641089 190.171643 
L 229.723286 188.498621 
L 229.729815 188.477793 
L 230.085464 186.825599 
L 230.195446 185.152577 
L 230.127076 183.479556 
L 229.898864 181.806534 
L 229.729815 181.099633 
L 229.430944 180.133512 
L 228.626732 178.46049 
L 228.056794 177.66327 
L 226.936511 176.787468 
L 226.383772 176.466965 
L 224.71075 176.126093 
L 223.037728 176.30494 
L 221.870792 176.787468 
L 221.364706 177.077362 
L 220.060213 178.46049 
L 219.691684 179.095519 
z
M 221.364706 179.945235 
L 222.95692 178.46049 
L 223.037728 178.411573 
L 224.71075 178.11079 
L 225.983363 178.46049 
L 226.383772 178.613522 
L 227.715002 180.133512 
L 228.056794 180.741699 
L 228.405676 181.806534 
L 228.702669 183.479556 
L 228.763386 185.152577 
L 228.543554 186.825599 
L 228.056794 188.131335 
L 227.772697 188.498621 
L 226.383772 189.443739 
L 224.71075 189.613677 
L 223.037728 189.083687 
L 222.226077 188.498621 
L 221.364706 187.48684 
L 221.007494 186.825599 
L 220.547721 185.152577 
L 220.442258 183.479556 
L 220.66086 181.806534 
L 221.249428 180.133512 
z
" clip-path="url(#p5fe91f337f)" style="fill: #f07f4f"/>
   </g>
   <g id="Poly3DCollection_7">
    <path d="M 221.34307 180.249743 
L 220.747068 181.943898 
L 220.525704 183.638052 
L 220.6325 185.332207 
L 221.09808 187.026362 
L 221.459804 187.695955 
L 222.332055 188.720517 
L 223.153959 189.312973 
L 224.848114 189.849657 
L 226.542269 189.677573 
L 227.948738 188.720517 
L 228.236423 188.348591 
L 228.729332 187.026362 
L 228.951941 185.332207 
L 228.890457 183.638052 
L 228.589713 181.943898 
L 228.236423 180.865612 
L 227.890314 180.249743 
L 226.542269 178.710553 
L 226.136802 178.555588 
L 224.848114 178.201471 
L 223.153959 178.506053 
L 223.07213 178.555588 
L 221.459804 180.059088 
z
M 223.153959 183.425394 
L 224.262772 181.943898 
L 224.848114 181.629854 
L 225.401741 181.943898 
L 226.542269 183.200773 
L 226.668089 183.638052 
L 226.669243 185.332207 
L 226.542269 185.705556 
L 224.848114 186.782336 
L 223.352521 185.332207 
L 223.153959 184.316527 
L 223.099469 183.638052 
z
" clip-path="url(#p5fe91f337f)" style="fill: #fdac33"/>
   </g>
   <g id="Poly3DCollection_8">
    <path d="M 223.217977 183.800604 
L 223.273164 184.487759 
L 223.474266 185.516433 
L 224.988992 186.985114 
L 226.704821 185.894558 
L 226.83342 185.516433 
L 226.83225 183.800604 
L 226.704821 183.357731 
L 225.549702 182.084776 
L 224.988992 181.766715 
L 224.396163 182.084776 
L 223.273164 183.585225 
z
" clip-path="url(#p5fe91f337f)" style="fill: #f9dd25"/>
   </g>
  </g>
  <g id="axes_2">
   <g id="patch_6">
    <path d="M 361.152 241.056 
L 387.7632 241.056 
L 387.7632 108 
L 361.152 108 
z
" style="fill: #ffffff"/>
   </g>
   <g id="patch_7">
    <path clip-path="url(#p64e56a0690)" style="fill: #ffffff; stroke: #ffffff; stroke-width: 0.01; stroke-linejoin: miter"/>
   </g>
   <g id="QuadMesh_1">
    <path d="M 361.152 241.056 
L 387.7632 241.056 
L 387.7632 224.424 
L 361.152 224.424 
L 361.152 241.056 
" clip-path="url(#p64e56a0690)" style="fill: #310597"/>
    <path d="M 361.152 224.424 
L 387.7632 224.424 
L 387.7632 207.792 
L 361.152 207.792 
L 361.152 224.424 
" clip-path="url(#p64e56a0690)" style="fill: #6600a7"/>
    <path d="M 361.152 207.792 
L 387.7632 207.792 
L 387.7632 191.16 
L 361.152 191.16 
L 361.152 207.792 
" clip-path="url(#p64e56a0690)" style="fill: #9511a1"/>
    <path d="M 361.152 191.16 
L 387.7632 191.16 
L 387.7632 174.528 
L 361.152 174.528 
L 361.152 191.16 
" clip-path="url(#p64e56a0690)" style="fill: #bc3587"/>
    <path d="M 361.152 174.528 
L 387.7632 174.528 
L 387.7632 157.896 
L 361.152 157.896 
L 361.152 174.528 
" clip-path="url(#p64e56a0690)" style="fill: #da5a6a"/>
    <path d="M 361.152 157.896 
L 387.7632 157.896 
L 387.7632 141.264 
L 361.152 141.264 
L 361.152 157.896 
" clip-path="url(#p64e56a0690)" style="fill: #f07f4f"/>
    <path d="M 361.152 141.264 
L 387.7632 141.264 
L 387.7632 124.632 
L 361.152 124.632 
L 361.152 141.264 
" clip-path="url(#p64e56a0690)" style="fill: #fdac33"/>
    <path d="M 361.152 124.632 
L 387.7632 124.632 
L 387.7632 108 
L 361.152 108 
L 361.152 124.632 
" clip-path="url(#p64e56a0690)" style="fill: #f9dd25"/>
   </g>
   <g id="matplotlib.axis_1"/>
   <g id="matplotlib.axis_2">
    <g id="ytick_1">
     <g id="line2d_18">
      <defs>
       <path id="m8d8c72b574" d="M 0 0 
L 3.5 0 
" style="stroke: #000000; stroke-width: 0.8"/>
      </defs>
      <g>
       <use xlink:href="#m8d8c72b574" x="387.7632" y="241.056" style="stroke: #000000; stroke-width: 0.8"/>
      </g>
     </g>
     <g id="text_19">
      <!-- 0.00 -->
      <g transform="translate(394.7632 244.855219) scale(0.1 -0.1)">
       <use xlink:href="#DejaVuSans-30"/>
       <use xlink:href="#DejaVuSans-2e" x="63.623047"/>
       <use xlink:href="#DejaVuSans-30" x="95.410156"/>
       <use xlink:href="#DejaVuSans-30" x="159.033203"/>
      </g>
     </g>
    </g>
    <g id="ytick_2">
     <g id="line2d_19">
      <g>
       <use xlink:href="#m8d8c72b574" x="387.7632" y="224.424" style="stroke: #000000; stroke-width: 0.8"/>
      </g>
     </g>
     <g id="text_20">
      <!-- 0.06 -->
      <g transform="translate(394.7632 228.223219) scale(0.1 -0.1)">
       <defs>
        <path id="DejaVuSans-36" d="M 2113 2584 
Q 1688 2584 1439 2293 
Q 1191 2003 1191 1497 
Q 1191 994 1439 701 
Q 1688 409 2113 409 
Q 2538 409 2786 701 
Q 3034 994 3034 1497 
Q 3034 2003 2786 2293 
Q 2538 2584 2113 2584 
z
M 3366 4563 
L 3366 3988 
Q 3128 4100 2886 4159 
Q 2644 4219 2406 4219 
Q 1781 4219 1451 3797 
Q 1122 3375 1075 2522 
Q 1259 2794 1537 2939 
Q 1816 3084 2150 3084 
Q 2853 3084 3261 2657 
Q 3669 2231 3669 1497 
Q 3669 778 3244 343 
Q 2819 -91 2113 -91 
Q 1303 -91 875 529 
Q 447 1150 447 2328 
Q 447 3434 972 4092 
Q 1497 4750 2381 4750 
Q 2619 4750 2861 4703 
Q 3103 4656 3366 4563 
z
" transform="scale(0.015625)"/>
       </defs>
       <use xlink:href="#DejaVuSans-30"/>
       <use xlink:href="#DejaVuSans-2e" x="63.623047"/>
       <use xlink:href="#DejaVuSans-30" x="95.410156"/>
       <use xlink:href="#DejaVuSans-36" x="159.033203"/>
      </g>
     </g>
    </g>
    <g id="ytick_3">
     <g id="line2d_20">
      <g>
       <use xlink:href="#m8d8c72b574" x="387.7632" y="207.792" style="stroke: #000000; stroke-width: 0.8"/>
      </g>
     </g>
     <g id="text_21">
      <!-- 0.12 -->
      <g transform="translate(394.7632 211.591219) scale(0.1 -0.1)">
       <use xlink:href="#DejaVuSans-30"/>
       <use xlink:href="#DejaVuSans-2e" x="63.623047"/>
       <use xlink:href="#DejaVuSans-31" x="95.410156"/>
       <use xlink:href="#DejaVuSans-32" x="159.033203"/>
      </g>
     </g>
    </g>
    <g id="ytick_4">
     <g id="line2d_21">
      <g>
       <use xlink:href="#m8d8c72b574" x="387.7632" y="191.16" style="stroke: #000000; stroke-width: 0.8"/>
      </g>
     </g>
     <g id="text_22">
      <!-- 0.18 -->
      <g transform="translate(394.7632 194.959219) scale(0.1 -0.1)">
       <defs>
        <path id="DejaVuSans-38" d="M 2034 2216 
Q 1584 2216 1326 1975 
Q 1069 1734 1069 1313 
Q 1069 891 1326 650 
Q 1584 409 2034 409 
Q 2484 409 2743 651 
Q 3003 894 3003 1313 
Q 3003 1734 2745 1975 
Q 2488 2216 2034 2216 
z
M 1403 2484 
Q 997 2584 770 2862 
Q 544 3141 544 3541 
Q 544 4100 942 4425 
Q 1341 4750 2034 4750 
Q 2731 4750 3128 4425 
Q 3525 4100 3525 3541 
Q 3525 3141 3298 2862 
Q 3072 2584 2669 2484 
Q 3125 2378 3379 2068 
Q 3634 1759 3634 1313 
Q 3634 634 3220 271 
Q 2806 -91 2034 -91 
Q 1263 -91 848 271 
Q 434 634 434 1313 
Q 434 1759 690 2068 
Q 947 2378 1403 2484 
z
M 1172 3481 
Q 1172 3119 1398 2916 
Q 1625 2713 2034 2713 
Q 2441 2713 2670 2916 
Q 2900 3119 2900 3481 
Q 2900 3844 2670 4047 
Q 2441 4250 2034 4250 
Q 1625 4250 1398 4047 
Q 1172 3844 1172 3481 
z
" transform="scale(0.015625)"/>
       </defs>
       <use xlink:href="#DejaVuSans-30"/>
       <use xlink:href="#DejaVuSans-2e" x="63.623047"/>
       <use xlink:href="#DejaVuSans-31" x="95.410156"/>
       <use xlink:href="#DejaVuSans-38" x="159.033203"/>
      </g>
     </g>
    </g>
    <g id="ytick_5">
     <g id="line2d_22">
      <g>
       <use xlink:href="#m8d8c72b574" x="387.7632" y="174.528" style="stroke: #000000; stroke-width: 0.8"/>
      </g>
     </g>
     <g id="text_23">
      <!-- 0.24 -->
      <g transform="translate(394.7632 178.327219) scale(0.1 -0.1)">
       <use xlink:href="#DejaVuSans-30"/>
       <use xlink:href="#DejaVuSans-2e" x="63.623047"/>
       <use xlink:href="#DejaVuSans-32" x="95.410156"/>
       <use xlink:href="#DejaVuSans-34" x="159.033203"/>
      </g>
     </g>
    </g>
    <g id="ytick_6">
     <g id="line2d_23">
      <g>
       <use xlink:href="#m8d8c72b574" x="387.7632" y="157.896" style="stroke: #000000; stroke-width: 0.8"/>
      </g>
     </g>
     <g id="text_24">
      <!-- 0.30 -->
      <g transform="translate(394.7632 161.695219) scale(0.1 -0.1)">
       <use xlink:href="#DejaVuSans-30"/>
       <use xlink:href="#DejaVuSans-2e" x="63.623047"/>
       <use xlink:href="#DejaVuSans-33" x="95.410156"/>
       <use xlink:href="#DejaVuSans-30" x="159.033203"/>
      </g>
     </g>
    </g>
    <g id="ytick_7">
     <g id="line2d_24">
      <g>
       <use xlink:href="#m8d8c72b574" x="387.7632" y="141.264" style="stroke: #000000; stroke-width: 0.8"/>
      </g>
     </g>
     <g id="text_25">
      <!-- 0.36 -->
      <g transform="translate(394.7632 145.063219) scale(0.1 -0.1)">
       <use xlink:href="#DejaVuSans-30"/>
       <use xlink:href="#DejaVuSans-2e" x="63.623047"/>
       <use xlink:href="#DejaVuSans-33" x="95.410156"/>
       <use xlink:href="#DejaVuSans-36" x="159.033203"/>
      </g>
     </g>
    </g>
    <g id="ytick_8">
     <g id="line2d_25">
      <g>
       <use xlink:href="#m8d8c72b574" x="387.7632" y="124.632" style="stroke: #000000; stroke-width: 0.8"/>
      </g>
     </g>
     <g id="text_26">
      <!-- 0.42 -->
      <g transform="translate(394.7632 128.431219) scale(0.1 -0.1)">
       <use xlink:href="#DejaVuSans-30"/>
       <use xlink:href="#DejaVuSans-2e" x="63.623047"/>
       <use xlink:href="#DejaVuSans-34" x="95.410156"/>
       <use xlink:href="#DejaVuSans-32" x="159.033203"/>
      </g>
     </g>
    </g>
    <g id="ytick_9">
     <g id="line2d_26">
      <g>
       <use xlink:href="#m8d8c72b574" x="387.7632" y="108" style="stroke: #000000; stroke-width: 0.8"/>
      </g>
     </g>
     <g id="text_27">
      <!-- 0.48 -->
      <g transform="translate(394.7632 111.799219) scale(0.1 -0.1)">
       <use xlink:href="#DejaVuSans-30"/>
       <use xlink:href="#DejaVuSans-2e" x="63.623047"/>
       <use xlink:href="#DejaVuSans-34" x="95.410156"/>
       <use xlink:href="#DejaVuSans-38" x="159.033203"/>
      </g>
     </g>
    </g>
   </g>
   <g id="LineCollection_1"/>
   <g id="patch_8">
    <path d="M 361.152 241.056 
L 374.4576 241.056 
L 387.7632 241.056 
L 387.7632 108 
L 374.4576 108 
L 361.152 108 
L 361.152 241.056 
z
" style="fill: none; stroke: #000000; stroke-width: 0.8; stroke-linejoin: miter; stroke-linecap: square"/>
   </g>
  </g>
 </g>
 <defs>
  <clipPath id="p5fe91f337f">
   <rect x="77.184" y="41.472" width="266.112" height="266.112"/>
  </clipPath>
  <clipPath id="p64e56a0690">
   <rect x="361.152" y="108" width="26.6112" height="133.056"/>
  </clipPath>
 </defs>
</svg>
