<?xml version="1.0" encoding="utf-8" standalone="no"?>
<!DOCTYPE svg PUBLIC "-//W3C//DTD SVG 1.1//EN"
  "http://www.w3.org/Graphics/SVG/1.1/DTD/svg11.dtd">
<svg xmlns:xlink="http://www.w3.org/1999/xlink" width="460.8pt" height="345.6pt" viewBox="0 0 460.8 345.6" xmlns="http://www.w3.org/2000/svg" version="1.1">
 <metadata>
  <rdf:RDF xmlns:dc="http://purl.org/dc/elements/1.1/" xmlns:cc="http://creativecommons.org/ns#" xmlns:rdf="http://www.w3.org/1999/02/22-rdf-syntax-ns#">
   <cc:Work>
    <dc:type rdf:resource="http://purl.org/dc/dcmitype/StillImage"/>
    <dc:date>2023-02-03T11:51:51.231723</dc:date>
    <dc:format>image/svg+xml</dc:format>
    <dc:creator>
     <cc:Agent>
      <dc:title>Matplotlib v3.5.1, https://matplotlib.org/</dc:title>
     </cc:Agent>
    </dc:creator>
   </cc:Work>
  </rdf:RDF>
 </metadata>
 <defs>
  <style type="text/css">*{stroke-linejoin: round; stroke-linecap: butt}</style>
 </defs>
 <g id="figure_1">
  <g id="patch_1">
   <path d="M 0 345.6 
L 460.8 345.6 
L 460.8 0 
L 0 0 
z
" style="fill: #ffffff"/>
  </g>
  <g id="patch_2">
   <path d="M 77.184 307.584 
L 343.296 307.584 
L 343.296 41.472 
L 77.184 41.472 
z
" style="fill: #ffffff"/>
  </g>
  <g id="pane3d_1">
   <g id="patch_3">
    <path d="M 131.87353 88.969314 
L 295.798686 88.969314 
L 303.45874 81.30926 
L 124.213476 81.30926 
" style="fill: #f2f2f2; opacity: 0.5; stroke: #f2f2f2; stroke-linejoin: miter"/>
   </g>
  </g>
  <g id="pane3d_2">
   <g id="patch_4">
    <path d="M 131.87353 88.969314 
L 131.87353 252.89447 
L 124.213476 260.554524 
L 124.213476 81.30926 
" style="fill: #e6e6e6; opacity: 0.5; stroke: #e6e6e6; stroke-linejoin: miter"/>
   </g>
  </g>
  <g id="pane3d_3">
   <g id="patch_5">
    <path d="M 131.87353 88.969314 
L 131.87353 252.89447 
L 295.798686 252.89447 
L 295.798686 88.969314 
" style="fill: #ececec; opacity: 0.5; stroke: #ececec; stroke-linejoin: miter"/>
   </g>
  </g>
  <g id="axis3d_1">
   <g id="line2d_1">
    <path d="M 295.798686 88.969314 
L 295.798686 252.89447 
" style="fill: none; stroke: #000000; stroke-width: 0.8; stroke-linecap: square"/>
   </g>
   <g id="text_1">
    <!-- x (m) -->
    <g transform="translate(327.812452 190.912361)rotate(-90)scale(0.15 -0.15)">
     <defs>
      <path id="DejaVuSans-78" d="M 3513 3500 
L 2247 1797 
L 3578 0 
L 2900 0 
L 1881 1375 
L 863 0 
L 184 0 
L 1544 1831 
L 300 3500 
L 978 3500 
L 1906 2253 
L 2834 3500 
L 3513 3500 
z
" transform="scale(0.015625)"/>
      <path id="DejaVuSans-20" transform="scale(0.015625)"/>
      <path id="DejaVuSans-28" d="M 1984 4856 
Q 1566 4138 1362 3434 
Q 1159 2731 1159 2009 
Q 1159 1288 1364 580 
Q 1569 -128 1984 -844 
L 1484 -844 
Q 1016 -109 783 600 
Q 550 1309 550 2009 
Q 550 2706 781 3412 
Q 1013 4119 1484 4856 
L 1984 4856 
z
" transform="scale(0.015625)"/>
      <path id="DejaVuSans-6d" d="M 3328 2828 
Q 3544 3216 3844 3400 
Q 4144 3584 4550 3584 
Q 5097 3584 5394 3201 
Q 5691 2819 5691 2113 
L 5691 0 
L 5113 0 
L 5113 2094 
Q 5113 2597 4934 2840 
Q 4756 3084 4391 3084 
Q 3944 3084 3684 2787 
Q 3425 2491 3425 1978 
L 3425 0 
L 2847 0 
L 2847 2094 
Q 2847 2600 2669 2842 
Q 2491 3084 2119 3084 
Q 1678 3084 1418 2786 
Q 1159 2488 1159 1978 
L 1159 0 
L 581 0 
L 581 3500 
L 1159 3500 
L 1159 2956 
Q 1356 3278 1631 3431 
Q 1906 3584 2284 3584 
Q 2666 3584 2933 3390 
Q 3200 3197 3328 2828 
z
" transform="scale(0.015625)"/>
      <path id="DejaVuSans-29" d="M 513 4856 
L 1013 4856 
Q 1481 4119 1714 3412 
Q 1947 2706 1947 2009 
Q 1947 1309 1714 600 
Q 1481 -109 1013 -844 
L 513 -844 
Q 928 -128 1133 580 
Q 1338 1288 1338 2009 
Q 1338 2731 1133 3434 
Q 928 4138 513 4856 
z
" transform="scale(0.015625)"/>
     </defs>
     <use xlink:href="#DejaVuSans-78"/>
     <use xlink:href="#DejaVuSans-20" x="59.179688"/>
     <use xlink:href="#DejaVuSans-28" x="90.966797"/>
     <use xlink:href="#DejaVuSans-6d" x="129.980469"/>
     <use xlink:href="#DejaVuSans-29" x="227.392578"/>
    </g>
   </g>
   <g id="Line3DCollection_1">
    <path d="M 295.798686 103.893784 
L 131.87353 103.893784 
L 124.213476 97.628541 
" style="fill: none; stroke: #b0b0b0; stroke-width: 0.8"/>
    <path d="M 295.798686 126.358132 
L 131.87353 126.358132 
L 124.213476 122.19236 
" style="fill: none; stroke: #b0b0b0; stroke-width: 0.8"/>
    <path d="M 295.798686 148.82248 
L 131.87353 148.82248 
L 124.213476 146.75618 
" style="fill: none; stroke: #b0b0b0; stroke-width: 0.8"/>
    <path d="M 295.798686 171.286829 
L 131.87353 171.286829 
L 124.213476 171.32 
" style="fill: none; stroke: #b0b0b0; stroke-width: 0.8"/>
    <path d="M 295.798686 193.751177 
L 131.87353 193.751177 
L 124.213476 195.88382 
" style="fill: none; stroke: #b0b0b0; stroke-width: 0.8"/>
    <path d="M 295.798686 216.215525 
L 131.87353 216.215525 
L 124.213476 220.44764 
" style="fill: none; stroke: #b0b0b0; stroke-width: 0.8"/>
    <path d="M 295.798686 238.679873 
L 131.87353 238.679873 
L 124.213476 245.01146 
" style="fill: none; stroke: #b0b0b0; stroke-width: 0.8"/>
   </g>
   <g id="xtick_1">
    <g id="line2d_2">
     <path d="M 294.487285 103.893784 
L 298.421489 103.893784 
" style="fill: none; stroke: #000000; stroke-width: 0.8; stroke-linecap: square"/>
    </g>
    <g id="text_2">
     <!-- −75 -->
     <g transform="translate(298.174701 111.964286)scale(0.1 -0.1)">
      <defs>
       <path id="DejaVuSans-2212" d="M 678 2272 
L 4684 2272 
L 4684 1741 
L 678 1741 
L 678 2272 
z
" transform="scale(0.015625)"/>
       <path id="DejaVuSans-37" d="M 525 4666 
L 3525 4666 
L 3525 4397 
L 1831 0 
L 1172 0 
L 2766 4134 
L 525 4134 
L 525 4666 
z
" transform="scale(0.015625)"/>
       <path id="DejaVuSans-35" d="M 691 4666 
L 3169 4666 
L 3169 4134 
L 1269 4134 
L 1269 2991 
Q 1406 3038 1543 3061 
Q 1681 3084 1819 3084 
Q 2600 3084 3056 2656 
Q 3513 2228 3513 1497 
Q 3513 744 3044 326 
Q 2575 -91 1722 -91 
Q 1428 -91 1123 -41 
Q 819 9 494 109 
L 494 744 
Q 775 591 1075 516 
Q 1375 441 1709 441 
Q 2250 441 2565 725 
Q 2881 1009 2881 1497 
Q 2881 1984 2565 2268 
Q 2250 2553 1709 2553 
Q 1456 2553 1204 2497 
Q 953 2441 691 2322 
L 691 4666 
z
" transform="scale(0.015625)"/>
      </defs>
      <use xlink:href="#DejaVuSans-2212"/>
      <use xlink:href="#DejaVuSans-37" x="83.789062"/>
      <use xlink:href="#DejaVuSans-35" x="147.412109"/>
     </g>
    </g>
   </g>
   <g id="xtick_2">
    <g id="line2d_3">
     <path d="M 294.487285 126.358132 
L 298.421489 126.358132 
" style="fill: none; stroke: #000000; stroke-width: 0.8; stroke-linecap: square"/>
    </g>
    <g id="text_3">
     <!-- −50 -->
     <g transform="translate(298.174701 134.270446)scale(0.1 -0.1)">
      <defs>
       <path id="DejaVuSans-30" d="M 2034 4250 
Q 1547 4250 1301 3770 
Q 1056 3291 1056 2328 
Q 1056 1369 1301 889 
Q 1547 409 2034 409 
Q 2525 409 2770 889 
Q 3016 1369 3016 2328 
Q 3016 3291 2770 3770 
Q 2525 4250 2034 4250 
z
M 2034 4750 
Q 2819 4750 3233 4129 
Q 3647 3509 3647 2328 
Q 3647 1150 3233 529 
Q 2819 -91 2034 -91 
Q 1250 -91 836 529 
Q 422 1150 422 2328 
Q 422 3509 836 4129 
Q 1250 4750 2034 4750 
z
" transform="scale(0.015625)"/>
      </defs>
      <use xlink:href="#DejaVuSans-2212"/>
      <use xlink:href="#DejaVuSans-35" x="83.789062"/>
      <use xlink:href="#DejaVuSans-30" x="147.412109"/>
     </g>
    </g>
   </g>
   <g id="xtick_3">
    <g id="line2d_4">
     <path d="M 294.487285 148.82248 
L 298.421489 148.82248 
" style="fill: none; stroke: #000000; stroke-width: 0.8; stroke-linecap: square"/>
    </g>
    <g id="text_4">
     <!-- −25 -->
     <g transform="translate(298.174701 156.576607)scale(0.1 -0.1)">
      <defs>
       <path id="DejaVuSans-32" d="M 1228 531 
L 3431 531 
L 3431 0 
L 469 0 
L 469 531 
Q 828 903 1448 1529 
Q 2069 2156 2228 2338 
Q 2531 2678 2651 2914 
Q 2772 3150 2772 3378 
Q 2772 3750 2511 3984 
Q 2250 4219 1831 4219 
Q 1534 4219 1204 4116 
Q 875 4013 500 3803 
L 500 4441 
Q 881 4594 1212 4672 
Q 1544 4750 1819 4750 
Q 2544 4750 2975 4387 
Q 3406 4025 3406 3419 
Q 3406 3131 3298 2873 
Q 3191 2616 2906 2266 
Q 2828 2175 2409 1742 
Q 1991 1309 1228 531 
z
" transform="scale(0.015625)"/>
      </defs>
      <use xlink:href="#DejaVuSans-2212"/>
      <use xlink:href="#DejaVuSans-32" x="83.789062"/>
      <use xlink:href="#DejaVuSans-35" x="147.412109"/>
     </g>
    </g>
   </g>
   <g id="xtick_4">
    <g id="line2d_5">
     <path d="M 294.487285 171.286829 
L 298.421489 171.286829 
" style="fill: none; stroke: #000000; stroke-width: 0.8; stroke-linecap: square"/>
    </g>
    <g id="text_5">
     <!-- 0 -->
     <g transform="translate(305.545794 178.882767)scale(0.1 -0.1)">
      <use xlink:href="#DejaVuSans-30"/>
     </g>
    </g>
   </g>
   <g id="xtick_5">
    <g id="line2d_6">
     <path d="M 294.487285 193.751177 
L 298.421489 193.751177 
" style="fill: none; stroke: #000000; stroke-width: 0.8; stroke-linecap: square"/>
    </g>
    <g id="text_6">
     <!-- 25 -->
     <g transform="translate(302.364544 201.188927)scale(0.1 -0.1)">
      <use xlink:href="#DejaVuSans-32"/>
      <use xlink:href="#DejaVuSans-35" x="63.623047"/>
     </g>
    </g>
   </g>
   <g id="xtick_6">
    <g id="line2d_7">
     <path d="M 294.487285 216.215525 
L 298.421489 216.215525 
" style="fill: none; stroke: #000000; stroke-width: 0.8; stroke-linecap: square"/>
    </g>
    <g id="text_7">
     <!-- 50 -->
     <g transform="translate(302.364544 223.495087)scale(0.1 -0.1)">
      <use xlink:href="#DejaVuSans-35"/>
      <use xlink:href="#DejaVuSans-30" x="63.623047"/>
     </g>
    </g>
   </g>
   <g id="xtick_7">
    <g id="line2d_8">
     <path d="M 294.487285 238.679873 
L 298.421489 238.679873 
" style="fill: none; stroke: #000000; stroke-width: 0.8; stroke-linecap: square"/>
    </g>
    <g id="text_8">
     <!-- 75 -->
     <g transform="translate(302.364544 245.801247)scale(0.1 -0.1)">
      <use xlink:href="#DejaVuSans-37"/>
      <use xlink:href="#DejaVuSans-35" x="63.623047"/>
     </g>
    </g>
   </g>
  </g>
  <g id="axis3d_2">
   <g id="line2d_9">
    <path d="M 131.87353 252.89447 
L 295.798686 252.89447 
" style="fill: none; stroke: #000000; stroke-width: 0.8; stroke-linecap: square"/>
   </g>
   <g id="text_9">
    <!-- y (m) -->
    <g transform="translate(193.855639 284.908236)scale(0.15 -0.15)">
     <defs>
      <path id="DejaVuSans-79" d="M 2059 -325 
Q 1816 -950 1584 -1140 
Q 1353 -1331 966 -1331 
L 506 -1331 
L 506 -850 
L 844 -850 
Q 1081 -850 1212 -737 
Q 1344 -625 1503 -206 
L 1606 56 
L 191 3500 
L 800 3500 
L 1894 763 
L 2988 3500 
L 3597 3500 
L 2059 -325 
z
" transform="scale(0.015625)"/>
     </defs>
     <use xlink:href="#DejaVuSans-79"/>
     <use xlink:href="#DejaVuSans-20" x="59.179688"/>
     <use xlink:href="#DejaVuSans-28" x="90.966797"/>
     <use xlink:href="#DejaVuSans-6d" x="129.980469"/>
     <use xlink:href="#DejaVuSans-29" x="227.392578"/>
    </g>
   </g>
   <g id="Line3DCollection_2">
    <path d="M 140.532757 81.30926 
L 146.798 88.969314 
L 146.798 252.89447 
" style="fill: none; stroke: #b0b0b0; stroke-width: 0.8"/>
    <path d="M 165.096577 81.30926 
L 169.262349 88.969314 
L 169.262349 252.89447 
" style="fill: none; stroke: #b0b0b0; stroke-width: 0.8"/>
    <path d="M 189.660397 81.30926 
L 191.726697 88.969314 
L 191.726697 252.89447 
" style="fill: none; stroke: #b0b0b0; stroke-width: 0.8"/>
    <path d="M 214.224216 81.30926 
L 214.191045 88.969314 
L 214.191045 252.89447 
" style="fill: none; stroke: #b0b0b0; stroke-width: 0.8"/>
    <path d="M 238.788036 81.30926 
L 236.655393 88.969314 
L 236.655393 252.89447 
" style="fill: none; stroke: #b0b0b0; stroke-width: 0.8"/>
    <path d="M 263.351856 81.30926 
L 259.119741 88.969314 
L 259.119741 252.89447 
" style="fill: none; stroke: #b0b0b0; stroke-width: 0.8"/>
    <path d="M 287.915676 81.30926 
L 281.584089 88.969314 
L 281.584089 252.89447 
" style="fill: none; stroke: #b0b0b0; stroke-width: 0.8"/>
   </g>
   <g id="xtick_8">
    <g id="line2d_10">
     <path d="M 146.798 251.583069 
L 146.798 255.517273 
" style="fill: none; stroke: #000000; stroke-width: 0.8; stroke-linecap: square"/>
    </g>
    <g id="text_10">
     <!-- −75 -->
     <g transform="translate(136.717721 273.421266)scale(0.1 -0.1)">
      <use xlink:href="#DejaVuSans-2212"/>
      <use xlink:href="#DejaVuSans-37" x="83.789062"/>
      <use xlink:href="#DejaVuSans-35" x="147.412109"/>
     </g>
    </g>
   </g>
   <g id="xtick_9">
    <g id="line2d_11">
     <path d="M 169.262349 251.583069 
L 169.262349 255.517273 
" style="fill: none; stroke: #000000; stroke-width: 0.8; stroke-linecap: square"/>
    </g>
    <g id="text_11">
     <!-- −50 -->
     <g transform="translate(159.023881 273.421266)scale(0.1 -0.1)">
      <use xlink:href="#DejaVuSans-2212"/>
      <use xlink:href="#DejaVuSans-35" x="83.789062"/>
      <use xlink:href="#DejaVuSans-30" x="147.412109"/>
     </g>
    </g>
   </g>
   <g id="xtick_10">
    <g id="line2d_12">
     <path d="M 191.726697 251.583069 
L 191.726697 255.517273 
" style="fill: none; stroke: #000000; stroke-width: 0.8; stroke-linecap: square"/>
    </g>
    <g id="text_12">
     <!-- −25 -->
     <g transform="translate(181.330042 273.421266)scale(0.1 -0.1)">
      <use xlink:href="#DejaVuSans-2212"/>
      <use xlink:href="#DejaVuSans-32" x="83.789062"/>
      <use xlink:href="#DejaVuSans-35" x="147.412109"/>
     </g>
    </g>
   </g>
   <g id="xtick_11">
    <g id="line2d_13">
     <path d="M 214.191045 251.583069 
L 214.191045 255.517273 
" style="fill: none; stroke: #000000; stroke-width: 0.8; stroke-linecap: square"/>
    </g>
    <g id="text_13">
     <!-- 0 -->
     <g transform="translate(211.007295 273.421266)scale(0.1 -0.1)">
      <use xlink:href="#DejaVuSans-30"/>
     </g>
    </g>
   </g>
   <g id="xtick_12">
    <g id="line2d_14">
     <path d="M 236.655393 251.583069 
L 236.655393 255.517273 
" style="fill: none; stroke: #000000; stroke-width: 0.8; stroke-linecap: square"/>
    </g>
    <g id="text_14">
     <!-- 25 -->
     <g transform="translate(230.132206 273.421266)scale(0.1 -0.1)">
      <use xlink:href="#DejaVuSans-32"/>
      <use xlink:href="#DejaVuSans-35" x="63.623047"/>
     </g>
    </g>
   </g>
   <g id="xtick_13">
    <g id="line2d_15">
     <path d="M 259.119741 251.583069 
L 259.119741 255.517273 
" style="fill: none; stroke: #000000; stroke-width: 0.8; stroke-linecap: square"/>
    </g>
    <g id="text_15">
     <!-- 50 -->
     <g transform="translate(252.438366 273.421266)scale(0.1 -0.1)">
      <use xlink:href="#DejaVuSans-35"/>
      <use xlink:href="#DejaVuSans-30" x="63.623047"/>
     </g>
    </g>
   </g>
   <g id="xtick_14">
    <g id="line2d_16">
     <path d="M 281.584089 251.583069 
L 281.584089 255.517273 
" style="fill: none; stroke: #000000; stroke-width: 0.8; stroke-linecap: square"/>
    </g>
    <g id="text_16">
     <!-- 75 -->
     <g transform="translate(274.744526 273.421266)scale(0.1 -0.1)">
      <use xlink:href="#DejaVuSans-37"/>
      <use xlink:href="#DejaVuSans-35" x="63.623047"/>
     </g>
    </g>
   </g>
  </g>
  <g id="axis3d_3">
   <g id="line2d_17">
    <path d="M 131.87353 252.89447 
L 124.213476 260.554524 
" style="fill: none; stroke: #000000; stroke-width: 0.8; stroke-linecap: square"/>
   </g>
   <g id="text_17">
    <!-- M (kg) -->
    <g transform="translate(83.416063 307.205455)rotate(-45)scale(0.15 -0.15)">
     <defs>
      <path id="DejaVuSans-4d" d="M 628 4666 
L 1569 4666 
L 2759 1491 
L 3956 4666 
L 4897 4666 
L 4897 0 
L 4281 0 
L 4281 4097 
L 3078 897 
L 2444 897 
L 1241 4097 
L 1241 0 
L 628 0 
L 628 4666 
z
" transform="scale(0.015625)"/>
      <path id="DejaVuSans-6b" d="M 581 4863 
L 1159 4863 
L 1159 1991 
L 2875 3500 
L 3609 3500 
L 1753 1863 
L 3688 0 
L 2938 0 
L 1159 1709 
L 1159 0 
L 581 0 
L 581 4863 
z
" transform="scale(0.015625)"/>
      <path id="DejaVuSans-67" d="M 2906 1791 
Q 2906 2416 2648 2759 
Q 2391 3103 1925 3103 
Q 1463 3103 1205 2759 
Q 947 2416 947 1791 
Q 947 1169 1205 825 
Q 1463 481 1925 481 
Q 2391 481 2648 825 
Q 2906 1169 2906 1791 
z
M 3481 434 
Q 3481 -459 3084 -895 
Q 2688 -1331 1869 -1331 
Q 1566 -1331 1297 -1286 
Q 1028 -1241 775 -1147 
L 775 -588 
Q 1028 -725 1275 -790 
Q 1522 -856 1778 -856 
Q 2344 -856 2625 -561 
Q 2906 -266 2906 331 
L 2906 616 
Q 2728 306 2450 153 
Q 2172 0 1784 0 
Q 1141 0 747 490 
Q 353 981 353 1791 
Q 353 2603 747 3093 
Q 1141 3584 1784 3584 
Q 2172 3584 2450 3431 
Q 2728 3278 2906 2969 
L 2906 3500 
L 3481 3500 
L 3481 434 
z
" transform="scale(0.015625)"/>
     </defs>
     <use xlink:href="#DejaVuSans-4d"/>
     <use xlink:href="#DejaVuSans-20" x="86.279297"/>
     <use xlink:href="#DejaVuSans-28" x="118.066406"/>
     <use xlink:href="#DejaVuSans-6b" x="157.080078"/>
     <use xlink:href="#DejaVuSans-67" x="214.990234"/>
     <use xlink:href="#DejaVuSans-29" x="278.466797"/>
    </g>
   </g>
   <g id="text_18">
    <!-- 1e12 -->
    <g transform="translate(93.833252 294.837094)rotate(-45)scale(0.1 -0.1)">
     <defs>
      <path id="DejaVuSans-31" d="M 794 531 
L 1825 531 
L 1825 4091 
L 703 3866 
L 703 4441 
L 1819 4666 
L 2450 4666 
L 2450 531 
L 3481 531 
L 3481 0 
L 794 0 
L 794 531 
z
" transform="scale(0.015625)"/>
      <path id="DejaVuSans-65" d="M 3597 1894 
L 3597 1613 
L 953 1613 
Q 991 1019 1311 708 
Q 1631 397 2203 397 
Q 2534 397 2845 478 
Q 3156 559 3463 722 
L 3463 178 
Q 3153 47 2828 -22 
Q 2503 -91 2169 -91 
Q 1331 -91 842 396 
Q 353 884 353 1716 
Q 353 2575 817 3079 
Q 1281 3584 2069 3584 
Q 2775 3584 3186 3129 
Q 3597 2675 3597 1894 
z
M 3022 2063 
Q 3016 2534 2758 2815 
Q 2500 3097 2075 3097 
Q 1594 3097 1305 2825 
Q 1016 2553 972 2059 
L 3022 2063 
z
" transform="scale(0.015625)"/>
     </defs>
     <use xlink:href="#DejaVuSans-31"/>
     <use xlink:href="#DejaVuSans-65" x="63.623047"/>
     <use xlink:href="#DejaVuSans-31" x="125.146484"/>
     <use xlink:href="#DejaVuSans-32" x="188.769531"/>
    </g>
   </g>
   <g id="Line3DCollection_3">
    <path d="M 130.592865 254.175135 
L 130.592865 87.688648 
L 297.079352 87.688648 
" style="fill: none; stroke: #b0b0b0; stroke-width: 0.8"/>
    <path d="M 128.907779 255.860221 
L 128.907779 86.003563 
L 298.764437 86.003563 
" style="fill: none; stroke: #b0b0b0; stroke-width: 0.8"/>
    <path d="M 127.153061 257.614939 
L 127.153061 84.248845 
L 300.519155 84.248845 
" style="fill: none; stroke: #b0b0b0; stroke-width: 0.8"/>
    <path d="M 125.324305 259.443695 
L 125.324305 82.420089 
L 302.347911 82.420089 
" style="fill: none; stroke: #b0b0b0; stroke-width: 0.8"/>
   </g>
   <g id="xtick_15">
    <g id="line2d_18">
     <path d="M 130.592865 252.843243 
L 130.592865 256.838919 
" style="fill: none; stroke: #000000; stroke-width: 0.8; stroke-linecap: square"/>
    </g>
    <g id="text_19">
     <!-- 1 -->
     <g transform="translate(113.597801 275.587387)scale(0.1 -0.1)">
      <use xlink:href="#DejaVuSans-31"/>
     </g>
    </g>
   </g>
   <g id="xtick_16">
    <g id="line2d_19">
     <path d="M 128.907779 254.501368 
L 128.907779 258.577928 
" style="fill: none; stroke: #000000; stroke-width: 0.8; stroke-linecap: square"/>
    </g>
    <g id="text_20">
     <!-- 2 -->
     <g transform="translate(111.633083 277.552104)scale(0.1 -0.1)">
      <use xlink:href="#DejaVuSans-32"/>
     </g>
    </g>
   </g>
   <g id="xtick_17">
    <g id="line2d_20">
     <path d="M 127.153061 256.22801 
L 127.153061 260.388796 
" style="fill: none; stroke: #000000; stroke-width: 0.8; stroke-linecap: square"/>
    </g>
    <g id="text_21">
     <!-- 3 -->
     <g transform="translate(109.587179 279.598009)scale(0.1 -0.1)">
      <defs>
       <path id="DejaVuSans-33" d="M 2597 2516 
Q 3050 2419 3304 2112 
Q 3559 1806 3559 1356 
Q 3559 666 3084 287 
Q 2609 -91 1734 -91 
Q 1441 -91 1130 -33 
Q 819 25 488 141 
L 488 750 
Q 750 597 1062 519 
Q 1375 441 1716 441 
Q 2309 441 2620 675 
Q 2931 909 2931 1356 
Q 2931 1769 2642 2001 
Q 2353 2234 1838 2234 
L 1294 2234 
L 1294 2753 
L 1863 2753 
Q 2328 2753 2575 2939 
Q 2822 3125 2822 3475 
Q 2822 3834 2567 4026 
Q 2313 4219 1838 4219 
Q 1578 4219 1281 4162 
Q 984 4106 628 3988 
L 628 4550 
Q 988 4650 1302 4700 
Q 1616 4750 1894 4750 
Q 2613 4750 3031 4423 
Q 3450 4097 3450 3541 
Q 3450 3153 3228 2886 
Q 3006 2619 2597 2516 
z
" transform="scale(0.015625)"/>
      </defs>
      <use xlink:href="#DejaVuSans-33"/>
     </g>
    </g>
   </g>
   <g id="xtick_18">
    <g id="line2d_21">
     <path d="M 125.324305 258.027506 
L 125.324305 262.276073 
" style="fill: none; stroke: #000000; stroke-width: 0.8; stroke-linecap: square"/>
    </g>
    <g id="text_22">
     <!-- 4 -->
     <g transform="translate(107.454949 281.730238)scale(0.1 -0.1)">
      <defs>
       <path id="DejaVuSans-34" d="M 2419 4116 
L 825 1625 
L 2419 1625 
L 2419 4116 
z
M 2253 4666 
L 3047 4666 
L 3047 1625 
L 3713 1625 
L 3713 1100 
L 3047 1100 
L 3047 0 
L 2419 0 
L 2419 1100 
L 313 1100 
L 313 1709 
L 2253 4666 
z
" transform="scale(0.015625)"/>
      </defs>
      <use xlink:href="#DejaVuSans-34"/>
     </g>
    </g>
   </g>
  </g>
  <g id="axes_1">
   <g id="Poly3DCollection_1">
    <path d="M 142.182646 100.061528 
L 142.182646 100.844626 
L 142.182646 101.627724 
L 142.182646 102.410822 
L 142.182646 103.19392 
L 142.182646 103.977018 
L 142.182646 104.760116 
L 142.182646 105.543214 
L 142.182646 106.326312 
L 142.182646 107.109409 
L 142.182646 107.892507 
L 142.182646 108.675605 
L 142.182646 109.458703 
L 142.182646 110.241801 
L 142.182646 111.024899 
L 142.182646 111.807997 
L 142.182646 112.591095 
L 142.182646 113.374193 
L 142.182646 114.157291 
L 142.182646 114.940389 
L 142.182646 115.723487 
L 142.182646 116.506585 
L 142.182646 117.289683 
L 142.182646 118.072781 
L 142.182646 118.855879 
L 142.182646 119.638977 
L 142.182646 120.422075 
L 142.182646 121.205172 
L 142.182646 121.98827 
L 142.182646 122.771368 
L 142.182646 123.554466 
L 142.182646 124.337564 
L 142.182646 125.120662 
L 142.182646 125.90376 
L 142.182646 126.686858 
L 142.182646 127.469956 
L 142.182646 128.253054 
L 142.182646 129.036152 
L 142.182646 129.81925 
L 142.182646 130.602348 
L 142.182646 131.385446 
L 142.182646 132.168544 
L 142.182646 132.951642 
L 142.182646 133.73474 
L 142.182646 134.517838 
L 142.182646 135.300935 
L 142.182646 136.084033 
L 142.182646 136.867131 
L 142.182646 137.650229 
L 142.182646 138.433327 
L 142.182646 139.216425 
L 142.182646 139.999523 
L 142.182646 140.782621 
L 142.182646 141.565719 
L 142.182646 142.348817 
L 142.182646 143.131915 
L 142.182646 143.915013 
L 142.182646 144.698111 
L 142.182646 145.481209 
L 142.182646 146.264307 
L 142.182646 147.047405 
L 142.182646 147.830503 
L 142.182646 148.6136 
L 142.182646 149.396698 
L 142.182646 150.179796 
L 142.182646 150.962894 
L 142.182646 151.745992 
L 142.182646 152.52909 
L 142.182646 153.312188 
L 142.182646 154.095286 
L 142.182646 154.878384 
L 142.182646 155.661482 
L 142.182646 156.44458 
L 142.182646 157.227678 
L 142.182646 158.010776 
L 142.182646 158.793874 
L 142.182646 159.576972 
L 142.182646 160.36007 
L 142.182646 161.143168 
L 142.182646 161.926266 
L 142.182646 162.709363 
L 142.182646 163.492461 
L 142.182646 164.275559 
L 142.182646 165.058657 
L 142.182646 165.841755 
L 142.182646 166.624853 
L 142.182646 167.407951 
L 142.182646 168.191049 
L 142.182646 168.974147 
L 142.182646 169.757245 
L 142.182646 170.540343 
L 142.182646 171.323441 
L 142.182646 172.106539 
L 142.182646 172.889637 
L 142.182646 173.672735 
L 142.182646 174.455833 
L 142.182646 175.238931 
L 142.182646 176.022029 
L 142.182646 176.805126 
L 142.182646 177.588224 
L 142.182646 178.371322 
L 142.182646 179.15442 
L 142.182646 179.937518 
L 142.182646 180.720616 
L 142.182646 181.503714 
L 142.182646 182.286812 
L 142.182646 183.06991 
L 142.182646 183.853008 
L 142.182646 184.636106 
L 142.182646 185.419204 
L 142.182646 186.202302 
L 142.182646 186.9854 
L 142.182646 187.768498 
L 142.182646 188.551596 
L 142.182646 189.334694 
L 142.182646 190.117792 
L 142.182646 190.900889 
L 142.182646 191.683987 
L 142.182646 192.467085 
L 142.182646 193.250183 
L 142.182646 194.033281 
L 142.182646 194.816379 
L 142.182646 195.599477 
L 142.182646 196.382575 
L 142.182646 197.165673 
L 142.182646 197.948771 
L 142.182646 198.731869 
L 142.182646 199.514967 
L 142.182646 200.298065 
L 142.182646 201.081163 
L 142.182646 201.864261 
L 142.182646 202.647359 
L 142.182646 203.430457 
L 142.182646 204.213554 
L 142.182646 204.996652 
L 142.182646 205.77975 
L 142.182646 206.562848 
L 142.182646 207.345946 
L 142.182646 208.129044 
L 142.182646 208.912142 
L 142.182646 209.69524 
L 142.182646 210.478338 
L 142.182646 211.261436 
L 142.182646 212.044534 
L 142.182646 212.827632 
L 142.182646 213.61073 
L 142.182646 214.393828 
L 142.182646 215.176926 
L 142.182646 215.960024 
L 142.182646 216.743122 
L 142.182646 217.52622 
L 142.182646 218.309317 
L 142.182646 219.092415 
L 142.182646 219.875513 
L 142.182646 220.658611 
L 142.182646 221.441709 
L 142.182646 222.224807 
L 142.182646 223.007905 
L 142.182646 223.791003 
L 142.182646 224.574101 
L 142.182646 225.357199 
L 142.182646 226.140297 
L 142.182646 226.923395 
L 142.182646 227.706493 
L 142.182646 228.489591 
L 142.182646 229.272689 
L 142.182646 230.055787 
L 142.182646 230.838885 
L 142.182646 231.621983 
L 142.182646 232.40508 
L 142.182646 233.188178 
L 142.182646 233.971276 
L 142.182646 234.754374 
L 142.182646 235.537472 
L 142.182646 236.32057 
L 142.182646 237.103668 
L 142.182646 237.886766 
L 142.182646 238.669864 
L 142.182646 239.452962 
L 142.182646 240.23606 
L 142.182646 241.019158 
L 142.182646 241.802256 
L 142.182646 242.585354 
L 142.965744 242.585354 
L 143.748842 242.585354 
L 144.53194 242.585354 
L 145.315038 242.585354 
L 146.098136 242.585354 
L 146.881234 242.585354 
L 147.664332 242.585354 
L 148.44743 242.585354 
L 149.230528 242.585354 
L 150.013626 242.585354 
L 150.796724 242.585354 
L 151.579822 242.585354 
L 152.36292 242.585354 
L 153.146017 242.585354 
L 153.929115 242.585354 
L 154.712213 242.585354 
L 155.495311 242.585354 
L 156.278409 242.585354 
L 157.061507 242.585354 
L 157.844605 242.585354 
L 158.627703 242.585354 
L 159.410801 242.585354 
L 160.193899 242.585354 
L 160.976997 242.585354 
L 161.760095 242.585354 
L 162.543193 242.585354 
L 163.326291 242.585354 
L 164.109389 242.585354 
L 164.892487 242.585354 
L 165.675585 242.585354 
L 166.458683 242.585354 
L 167.24178 242.585354 
L 168.024878 242.585354 
L 168.807976 242.585354 
L 169.591074 242.585354 
L 170.374172 242.585354 
L 171.15727 242.585354 
L 171.940368 242.585354 
L 172.723466 242.585354 
L 173.506564 242.585354 
L 174.289662 242.585354 
L 175.07276 242.585354 
L 175.855858 242.585354 
L 176.638956 242.585354 
L 177.422054 242.585354 
L 178.205152 242.585354 
L 178.98825 242.585354 
L 179.771348 242.585354 
L 180.554446 242.585354 
L 181.337543 242.585354 
L 182.120641 242.585354 
L 182.903739 242.585354 
L 183.686837 242.585354 
L 184.469935 242.585354 
L 185.253033 242.585354 
L 186.036131 242.585354 
L 186.819229 242.585354 
L 187.602327 242.585354 
L 188.385425 242.585354 
L 189.168523 242.585354 
L 189.951621 242.585354 
L 190.734719 242.585354 
L 191.517817 242.585354 
L 192.300915 242.585354 
L 193.084013 242.585354 
L 193.867111 242.585354 
L 194.650208 242.585354 
L 195.433306 242.585354 
L 196.216404 242.585354 
L 196.999502 242.585354 
L 197.7826 242.585354 
L 198.565698 242.585354 
L 199.348796 242.585354 
L 200.131894 242.585354 
L 200.914992 242.585354 
L 201.69809 242.585354 
L 202.481188 242.585354 
L 203.264286 242.585354 
L 204.047384 242.585354 
L 204.830482 242.585354 
L 205.61358 242.585354 
L 206.396678 242.585354 
L 207.179776 242.585354 
L 207.962874 242.585354 
L 208.745971 242.585354 
L 209.529069 242.585354 
L 210.312167 242.585354 
L 211.095265 242.585354 
L 211.878363 242.585354 
L 212.661461 242.585354 
L 213.444559 242.585354 
L 214.227657 242.585354 
L 215.010755 242.585354 
L 215.793853 242.585354 
L 216.576951 242.585354 
L 217.360049 242.585354 
L 218.143147 242.585354 
L 218.926245 242.585354 
L 219.709343 242.585354 
L 220.492441 242.585354 
L 221.275539 242.585354 
L 222.058637 242.585354 
L 222.841734 242.585354 
L 223.624832 242.585354 
L 224.40793 242.585354 
L 225.191028 242.585354 
L 225.974126 242.585354 
L 226.757224 242.585354 
L 227.540322 242.585354 
L 228.32342 242.585354 
L 229.106518 242.585354 
L 229.889616 242.585354 
L 230.672714 242.585354 
L 231.455812 242.585354 
L 232.23891 242.585354 
L 233.022008 242.585354 
L 233.805106 242.585354 
L 234.588204 242.585354 
L 235.371302 242.585354 
L 236.1544 242.585354 
L 236.937497 242.585354 
L 237.720595 242.585354 
L 238.503693 242.585354 
L 239.286791 242.585354 
L 240.069889 242.585354 
L 240.852987 242.585354 
L 241.636085 242.585354 
L 242.419183 242.585354 
L 243.202281 242.585354 
L 243.985379 242.585354 
L 244.768477 242.585354 
L 245.551575 242.585354 
L 246.334673 242.585354 
L 247.117771 242.585354 
L 247.900869 242.585354 
L 248.683967 242.585354 
L 249.467065 242.585354 
L 250.250162 242.585354 
L 251.03326 242.585354 
L 251.816358 242.585354 
L 252.599456 242.585354 
L 253.382554 242.585354 
L 254.165652 242.585354 
L 254.94875 242.585354 
L 255.731848 242.585354 
L 256.514946 242.585354 
L 257.298044 242.585354 
L 258.081142 242.585354 
L 258.86424 242.585354 
L 259.647338 242.585354 
L 260.430436 242.585354 
L 261.213534 242.585354 
L 261.996632 242.585354 
L 262.77973 242.585354 
L 263.562828 242.585354 
L 264.345925 242.585354 
L 265.129023 242.585354 
L 265.912121 242.585354 
L 266.695219 242.585354 
L 267.478317 242.585354 
L 268.261415 242.585354 
L 269.044513 242.585354 
L 269.827611 242.585354 
L 270.610709 242.585354 
L 271.393807 242.585354 
L 272.176905 242.585354 
L 272.960003 242.585354 
L 273.743101 242.585354 
L 274.526199 242.585354 
L 275.309297 242.585354 
L 276.092395 242.585354 
L 276.875493 242.585354 
L 277.658591 242.585354 
L 278.441688 242.585354 
L 279.224786 242.585354 
L 280.007884 242.585354 
L 280.790982 242.585354 
L 281.57408 242.585354 
L 282.357178 242.585354 
L 283.140276 242.585354 
L 283.923374 242.585354 
L 284.706472 242.585354 
L 285.48957 242.585354 
L 285.48957 241.802256 
L 285.48957 241.019158 
L 285.48957 240.23606 
L 285.48957 239.452962 
L 285.48957 238.669864 
L 285.48957 237.886766 
L 285.48957 237.103668 
L 285.48957 236.32057 
L 285.48957 235.537472 
L 285.48957 234.754374 
L 285.48957 233.971276 
L 285.48957 233.188178 
L 285.48957 232.40508 
L 285.48957 231.621983 
L 285.48957 230.838885 
L 285.48957 230.055787 
L 285.48957 229.272689 
L 285.48957 228.489591 
L 285.48957 227.706493 
L 285.48957 226.923395 
L 285.48957 226.140297 
L 285.48957 225.357199 
L 285.48957 224.574101 
L 285.48957 223.791003 
L 285.48957 223.007905 
L 285.48957 222.224807 
L 285.48957 221.441709 
L 285.48957 220.658611 
L 285.48957 219.875513 
L 285.48957 219.092415 
L 285.48957 218.309317 
L 285.48957 217.52622 
L 285.48957 216.743122 
L 285.48957 215.960024 
L 285.48957 215.176926 
L 285.48957 214.393828 
L 285.48957 213.61073 
L 285.48957 212.827632 
L 285.48957 212.044534 
L 285.48957 211.261436 
L 285.48957 210.478338 
L 285.48957 209.69524 
L 285.48957 208.912142 
L 285.48957 208.129044 
L 285.48957 207.345946 
L 285.48957 206.562848 
L 285.48957 205.77975 
L 285.48957 204.996652 
L 285.48957 204.213554 
L 285.48957 203.430457 
L 285.48957 202.647359 
L 285.48957 201.864261 
L 285.48957 201.081163 
L 285.48957 200.298065 
L 285.48957 199.514967 
L 285.48957 198.731869 
L 285.48957 197.948771 
L 285.48957 197.165673 
L 285.48957 196.382575 
L 285.48957 195.599477 
L 285.48957 194.816379 
L 285.48957 194.033281 
L 285.48957 193.250183 
L 285.48957 192.467085 
L 285.48957 191.683987 
L 285.48957 190.900889 
L 285.48957 190.117792 
L 285.48957 189.334694 
L 285.48957 188.551596 
L 285.48957 187.768498 
L 285.48957 186.9854 
L 285.48957 186.202302 
L 285.48957 185.419204 
L 285.48957 184.636106 
L 285.48957 183.853008 
L 285.48957 183.06991 
L 285.48957 182.286812 
L 285.48957 181.503714 
L 285.48957 180.720616 
L 285.48957 179.937518 
L 285.48957 179.15442 
L 285.48957 178.371322 
L 285.48957 177.588224 
L 285.48957 176.805126 
L 285.48957 176.022029 
L 285.48957 175.238931 
L 285.48957 174.455833 
L 285.48957 173.672735 
L 285.48957 172.889637 
L 285.48957 172.106539 
L 285.48957 171.323441 
L 285.48957 170.540343 
L 285.48957 169.757245 
L 285.48957 168.974147 
L 285.48957 168.191049 
L 285.48957 167.407951 
L 285.48957 166.624853 
L 285.48957 165.841755 
L 285.48957 165.058657 
L 285.48957 164.275559 
L 285.48957 163.492461 
L 285.48957 162.709363 
L 285.48957 161.926266 
L 285.48957 161.143168 
L 285.48957 160.36007 
L 285.48957 159.576972 
L 285.48957 158.793874 
L 285.48957 158.010776 
L 285.48957 157.227678 
L 285.48957 156.44458 
L 285.48957 155.661482 
L 285.48957 154.878384 
L 285.48957 154.095286 
L 285.48957 153.312188 
L 285.48957 152.52909 
L 285.48957 151.745992 
L 285.48957 150.962894 
L 285.48957 150.179796 
L 285.48957 149.396698 
L 285.48957 148.6136 
L 285.48957 147.830503 
L 285.48957 147.047405 
L 285.48957 146.264307 
L 285.48957 145.481209 
L 285.48957 144.698111 
L 285.48957 143.915013 
L 285.48957 143.131915 
L 285.48957 142.348817 
L 285.48957 141.565719 
L 285.48957 140.782621 
L 285.48957 139.999523 
L 285.48957 139.216425 
L 285.48957 138.433327 
L 285.48957 137.650229 
L 285.48957 136.867131 
L 285.48957 136.084033 
L 285.48957 135.300935 
L 285.48957 134.517838 
L 285.48957 133.73474 
L 285.48957 132.951642 
L 285.48957 132.168544 
L 285.48957 131.385446 
L 285.48957 130.602348 
L 285.48957 129.81925 
L 285.48957 129.036152 
L 285.48957 128.253054 
L 285.48957 127.469956 
L 285.48957 126.686858 
L 285.48957 125.90376 
L 285.48957 125.120662 
L 285.48957 124.337564 
L 285.48957 123.554466 
L 285.48957 122.771368 
L 285.48957 121.98827 
L 285.48957 121.205172 
L 285.48957 120.422075 
L 285.48957 119.638977 
L 285.48957 118.855879 
L 285.48957 118.072781 
L 285.48957 117.289683 
L 285.48957 116.506585 
L 285.48957 115.723487 
L 285.48957 114.940389 
L 285.48957 114.157291 
L 285.48957 113.374193 
L 285.48957 112.591095 
L 285.48957 111.807997 
L 285.48957 111.024899 
L 285.48957 110.241801 
L 285.48957 109.458703 
L 285.48957 108.675605 
L 285.48957 107.892507 
L 285.48957 107.109409 
L 285.48957 106.326312 
L 285.48957 105.543214 
L 285.48957 104.760116 
L 285.48957 103.977018 
L 285.48957 103.19392 
L 285.48957 102.410822 
L 285.48957 101.627724 
L 285.48957 100.844626 
L 285.48957 100.061528 
L 285.48957 99.27843 
L 284.706472 99.27843 
L 283.923374 99.27843 
L 283.140276 99.27843 
L 282.357178 99.27843 
L 281.57408 99.27843 
L 280.790982 99.27843 
L 280.007884 99.27843 
L 279.224786 99.27843 
L 278.441688 99.27843 
L 277.658591 99.27843 
L 276.875493 99.27843 
L 276.092395 99.27843 
L 275.309297 99.27843 
L 274.526199 99.27843 
L 273.743101 99.27843 
L 272.960003 99.27843 
L 272.176905 99.27843 
L 271.393807 99.27843 
L 270.610709 99.27843 
L 269.827611 99.27843 
L 269.044513 99.27843 
L 268.261415 99.27843 
L 267.478317 99.27843 
L 266.695219 99.27843 
L 265.912121 99.27843 
L 265.129023 99.27843 
L 264.345925 99.27843 
L 263.562828 99.27843 
L 262.77973 99.27843 
L 261.996632 99.27843 
L 261.213534 99.27843 
L 260.430436 99.27843 
L 259.647338 99.27843 
L 258.86424 99.27843 
L 258.081142 99.27843 
L 257.298044 99.27843 
L 256.514946 99.27843 
L 255.731848 99.27843 
L 254.94875 99.27843 
L 254.165652 99.27843 
L 253.382554 99.27843 
L 252.599456 99.27843 
L 251.816358 99.27843 
L 251.03326 99.27843 
L 250.250162 99.27843 
L 249.467065 99.27843 
L 248.683967 99.27843 
L 247.900869 99.27843 
L 247.117771 99.27843 
L 246.334673 99.27843 
L 245.551575 99.27843 
L 244.768477 99.27843 
L 243.985379 99.27843 
L 243.202281 99.27843 
L 242.419183 99.27843 
L 241.636085 99.27843 
L 240.852987 99.27843 
L 240.069889 99.27843 
L 239.286791 99.27843 
L 238.503693 99.27843 
L 237.720595 99.27843 
L 236.937497 99.27843 
L 236.1544 99.27843 
L 235.371302 99.27843 
L 234.588204 99.27843 
L 233.805106 99.27843 
L 233.022008 99.27843 
L 232.23891 99.27843 
L 231.455812 99.27843 
L 230.672714 99.27843 
L 229.889616 99.27843 
L 229.106518 99.27843 
L 228.32342 99.27843 
L 227.540322 99.27843 
L 226.757224 99.27843 
L 225.974126 99.27843 
L 225.191028 99.27843 
L 224.40793 99.27843 
L 223.624832 99.27843 
L 222.841734 99.27843 
L 222.058637 99.27843 
L 221.275539 99.27843 
L 220.492441 99.27843 
L 219.709343 99.27843 
L 218.926245 99.27843 
L 218.143147 99.27843 
L 217.360049 99.27843 
L 216.576951 99.27843 
L 215.793853 99.27843 
L 215.010755 99.27843 
L 214.227657 99.27843 
L 213.444559 99.27843 
L 212.661461 99.27843 
L 211.878363 99.27843 
L 211.095265 99.27843 
L 210.312167 99.27843 
L 209.529069 99.27843 
L 208.745971 99.27843 
L 207.962874 99.27843 
L 207.179776 99.27843 
L 206.396678 99.27843 
L 205.61358 99.27843 
L 204.830482 99.27843 
L 204.047384 99.27843 
L 203.264286 99.27843 
L 202.481188 99.27843 
L 201.69809 99.27843 
L 200.914992 99.27843 
L 200.131894 99.27843 
L 199.348796 99.27843 
L 198.565698 99.27843 
L 197.7826 99.27843 
L 196.999502 99.27843 
L 196.216404 99.27843 
L 195.433306 99.27843 
L 194.650208 99.27843 
L 193.867111 99.27843 
L 193.084013 99.27843 
L 192.300915 99.27843 
L 191.517817 99.27843 
L 190.734719 99.27843 
L 189.951621 99.27843 
L 189.168523 99.27843 
L 188.385425 99.27843 
L 187.602327 99.27843 
L 186.819229 99.27843 
L 186.036131 99.27843 
L 185.253033 99.27843 
L 184.469935 99.27843 
L 183.686837 99.27843 
L 182.903739 99.27843 
L 182.120641 99.27843 
L 181.337543 99.27843 
L 180.554446 99.27843 
L 179.771348 99.27843 
L 178.98825 99.27843 
L 178.205152 99.27843 
L 177.422054 99.27843 
L 176.638956 99.27843 
L 175.855858 99.27843 
L 175.07276 99.27843 
L 174.289662 99.27843 
L 173.506564 99.27843 
L 172.723466 99.27843 
L 171.940368 99.27843 
L 171.15727 99.27843 
L 170.374172 99.27843 
L 169.591074 99.27843 
L 168.807976 99.27843 
L 168.024878 99.27843 
L 167.24178 99.27843 
L 166.458683 99.27843 
L 165.675585 99.27843 
L 164.892487 99.27843 
L 164.109389 99.27843 
L 163.326291 99.27843 
L 162.543193 99.27843 
L 161.760095 99.27843 
L 160.976997 99.27843 
L 160.193899 99.27843 
L 159.410801 99.27843 
L 158.627703 99.27843 
L 157.844605 99.27843 
L 157.061507 99.27843 
L 156.278409 99.27843 
L 155.495311 99.27843 
L 154.712213 99.27843 
L 153.929115 99.27843 
L 153.146017 99.27843 
L 152.36292 99.27843 
L 151.579822 99.27843 
L 150.796724 99.27843 
L 150.013626 99.27843 
L 149.230528 99.27843 
L 148.44743 99.27843 
L 147.664332 99.27843 
L 146.881234 99.27843 
L 146.098136 99.27843 
L 145.315038 99.27843 
L 144.53194 99.27843 
L 143.748842 99.27843 
L 142.965744 99.27843 
L 142.182646 99.27843 
z
M 211.878363 171.306983 
L 212.661461 170.900002 
L 213.444559 170.71122 
L 214.227657 170.643501 
L 215.010755 170.698269 
L 215.793853 170.875264 
L 216.576951 171.304809 
L 216.606259 171.323441 
L 216.576951 171.339899 
L 215.793853 171.74688 
L 215.010755 171.935662 
L 214.227657 172.003381 
L 213.444559 171.948612 
L 212.661461 171.771618 
L 211.878363 171.342072 
L 211.849056 171.323441 
z
" clip-path="url(#p38bf2002e8)" style="fill: #310597"/>
   </g>
   <g id="text_23">
    <!-- Mass of the anomaly at depth of 10.0 m -->
    <g transform="translate(9.638438 35.472)scale(0.2 -0.2)">
     <defs>
      <path id="DejaVuSans-61" d="M 2194 1759 
Q 1497 1759 1228 1600 
Q 959 1441 959 1056 
Q 959 750 1161 570 
Q 1363 391 1709 391 
Q 2188 391 2477 730 
Q 2766 1069 2766 1631 
L 2766 1759 
L 2194 1759 
z
M 3341 1997 
L 3341 0 
L 2766 0 
L 2766 531 
Q 2569 213 2275 61 
Q 1981 -91 1556 -91 
Q 1019 -91 701 211 
Q 384 513 384 1019 
Q 384 1609 779 1909 
Q 1175 2209 1959 2209 
L 2766 2209 
L 2766 2266 
Q 2766 2663 2505 2880 
Q 2244 3097 1772 3097 
Q 1472 3097 1187 3025 
Q 903 2953 641 2809 
L 641 3341 
Q 956 3463 1253 3523 
Q 1550 3584 1831 3584 
Q 2591 3584 2966 3190 
Q 3341 2797 3341 1997 
z
" transform="scale(0.015625)"/>
      <path id="DejaVuSans-73" d="M 2834 3397 
L 2834 2853 
Q 2591 2978 2328 3040 
Q 2066 3103 1784 3103 
Q 1356 3103 1142 2972 
Q 928 2841 928 2578 
Q 928 2378 1081 2264 
Q 1234 2150 1697 2047 
L 1894 2003 
Q 2506 1872 2764 1633 
Q 3022 1394 3022 966 
Q 3022 478 2636 193 
Q 2250 -91 1575 -91 
Q 1294 -91 989 -36 
Q 684 19 347 128 
L 347 722 
Q 666 556 975 473 
Q 1284 391 1588 391 
Q 1994 391 2212 530 
Q 2431 669 2431 922 
Q 2431 1156 2273 1281 
Q 2116 1406 1581 1522 
L 1381 1569 
Q 847 1681 609 1914 
Q 372 2147 372 2553 
Q 372 3047 722 3315 
Q 1072 3584 1716 3584 
Q 2034 3584 2315 3537 
Q 2597 3491 2834 3397 
z
" transform="scale(0.015625)"/>
      <path id="DejaVuSans-6f" d="M 1959 3097 
Q 1497 3097 1228 2736 
Q 959 2375 959 1747 
Q 959 1119 1226 758 
Q 1494 397 1959 397 
Q 2419 397 2687 759 
Q 2956 1122 2956 1747 
Q 2956 2369 2687 2733 
Q 2419 3097 1959 3097 
z
M 1959 3584 
Q 2709 3584 3137 3096 
Q 3566 2609 3566 1747 
Q 3566 888 3137 398 
Q 2709 -91 1959 -91 
Q 1206 -91 779 398 
Q 353 888 353 1747 
Q 353 2609 779 3096 
Q 1206 3584 1959 3584 
z
" transform="scale(0.015625)"/>
      <path id="DejaVuSans-66" d="M 2375 4863 
L 2375 4384 
L 1825 4384 
Q 1516 4384 1395 4259 
Q 1275 4134 1275 3809 
L 1275 3500 
L 2222 3500 
L 2222 3053 
L 1275 3053 
L 1275 0 
L 697 0 
L 697 3053 
L 147 3053 
L 147 3500 
L 697 3500 
L 697 3744 
Q 697 4328 969 4595 
Q 1241 4863 1831 4863 
L 2375 4863 
z
" transform="scale(0.015625)"/>
      <path id="DejaVuSans-74" d="M 1172 4494 
L 1172 3500 
L 2356 3500 
L 2356 3053 
L 1172 3053 
L 1172 1153 
Q 1172 725 1289 603 
Q 1406 481 1766 481 
L 2356 481 
L 2356 0 
L 1766 0 
Q 1100 0 847 248 
Q 594 497 594 1153 
L 594 3053 
L 172 3053 
L 172 3500 
L 594 3500 
L 594 4494 
L 1172 4494 
z
" transform="scale(0.015625)"/>
      <path id="DejaVuSans-68" d="M 3513 2113 
L 3513 0 
L 2938 0 
L 2938 2094 
Q 2938 2591 2744 2837 
Q 2550 3084 2163 3084 
Q 1697 3084 1428 2787 
Q 1159 2491 1159 1978 
L 1159 0 
L 581 0 
L 581 4863 
L 1159 4863 
L 1159 2956 
Q 1366 3272 1645 3428 
Q 1925 3584 2291 3584 
Q 2894 3584 3203 3211 
Q 3513 2838 3513 2113 
z
" transform="scale(0.015625)"/>
      <path id="DejaVuSans-6e" d="M 3513 2113 
L 3513 0 
L 2938 0 
L 2938 2094 
Q 2938 2591 2744 2837 
Q 2550 3084 2163 3084 
Q 1697 3084 1428 2787 
Q 1159 2491 1159 1978 
L 1159 0 
L 581 0 
L 581 3500 
L 1159 3500 
L 1159 2956 
Q 1366 3272 1645 3428 
Q 1925 3584 2291 3584 
Q 2894 3584 3203 3211 
Q 3513 2838 3513 2113 
z
" transform="scale(0.015625)"/>
      <path id="DejaVuSans-6c" d="M 603 4863 
L 1178 4863 
L 1178 0 
L 603 0 
L 603 4863 
z
" transform="scale(0.015625)"/>
      <path id="DejaVuSans-64" d="M 2906 2969 
L 2906 4863 
L 3481 4863 
L 3481 0 
L 2906 0 
L 2906 525 
Q 2725 213 2448 61 
Q 2172 -91 1784 -91 
Q 1150 -91 751 415 
Q 353 922 353 1747 
Q 353 2572 751 3078 
Q 1150 3584 1784 3584 
Q 2172 3584 2448 3432 
Q 2725 3281 2906 2969 
z
M 947 1747 
Q 947 1113 1208 752 
Q 1469 391 1925 391 
Q 2381 391 2643 752 
Q 2906 1113 2906 1747 
Q 2906 2381 2643 2742 
Q 2381 3103 1925 3103 
Q 1469 3103 1208 2742 
Q 947 2381 947 1747 
z
" transform="scale(0.015625)"/>
      <path id="DejaVuSans-70" d="M 1159 525 
L 1159 -1331 
L 581 -1331 
L 581 3500 
L 1159 3500 
L 1159 2969 
Q 1341 3281 1617 3432 
Q 1894 3584 2278 3584 
Q 2916 3584 3314 3078 
Q 3713 2572 3713 1747 
Q 3713 922 3314 415 
Q 2916 -91 2278 -91 
Q 1894 -91 1617 61 
Q 1341 213 1159 525 
z
M 3116 1747 
Q 3116 2381 2855 2742 
Q 2594 3103 2138 3103 
Q 1681 3103 1420 2742 
Q 1159 2381 1159 1747 
Q 1159 1113 1420 752 
Q 1681 391 2138 391 
Q 2594 391 2855 752 
Q 3116 1113 3116 1747 
z
" transform="scale(0.015625)"/>
      <path id="DejaVuSans-2e" d="M 684 794 
L 1344 794 
L 1344 0 
L 684 0 
L 684 794 
z
" transform="scale(0.015625)"/>
     </defs>
     <use xlink:href="#DejaVuSans-4d"/>
     <use xlink:href="#DejaVuSans-61" x="86.279297"/>
     <use xlink:href="#DejaVuSans-73" x="147.558594"/>
     <use xlink:href="#DejaVuSans-73" x="199.658203"/>
     <use xlink:href="#DejaVuSans-20" x="251.757812"/>
     <use xlink:href="#DejaVuSans-6f" x="283.544922"/>
     <use xlink:href="#DejaVuSans-66" x="344.726562"/>
     <use xlink:href="#DejaVuSans-20" x="379.931641"/>
     <use xlink:href="#DejaVuSans-74" x="411.71875"/>
     <use xlink:href="#DejaVuSans-68" x="450.927734"/>
     <use xlink:href="#DejaVuSans-65" x="514.306641"/>
     <use xlink:href="#DejaVuSans-20" x="575.830078"/>
     <use xlink:href="#DejaVuSans-61" x="607.617188"/>
     <use xlink:href="#DejaVuSans-6e" x="668.896484"/>
     <use xlink:href="#DejaVuSans-6f" x="732.275391"/>
     <use xlink:href="#DejaVuSans-6d" x="793.457031"/>
     <use xlink:href="#DejaVuSans-61" x="890.869141"/>
     <use xlink:href="#DejaVuSans-6c" x="952.148438"/>
     <use xlink:href="#DejaVuSans-79" x="979.931641"/>
     <use xlink:href="#DejaVuSans-20" x="1039.111328"/>
     <use xlink:href="#DejaVuSans-61" x="1070.898438"/>
     <use xlink:href="#DejaVuSans-74" x="1132.177734"/>
     <use xlink:href="#DejaVuSans-20" x="1171.386719"/>
     <use xlink:href="#DejaVuSans-64" x="1203.173828"/>
     <use xlink:href="#DejaVuSans-65" x="1266.650391"/>
     <use xlink:href="#DejaVuSans-70" x="1328.173828"/>
     <use xlink:href="#DejaVuSans-74" x="1391.650391"/>
     <use xlink:href="#DejaVuSans-68" x="1430.859375"/>
     <use xlink:href="#DejaVuSans-20" x="1494.238281"/>
     <use xlink:href="#DejaVuSans-6f" x="1526.025391"/>
     <use xlink:href="#DejaVuSans-66" x="1587.207031"/>
     <use xlink:href="#DejaVuSans-20" x="1622.412109"/>
     <use xlink:href="#DejaVuSans-31" x="1654.199219"/>
     <use xlink:href="#DejaVuSans-30" x="1717.822266"/>
     <use xlink:href="#DejaVuSans-2e" x="1781.445312"/>
     <use xlink:href="#DejaVuSans-30" x="1813.232422"/>
     <use xlink:href="#DejaVuSans-20" x="1876.855469"/>
     <use xlink:href="#DejaVuSans-6d" x="1908.642578"/>
    </g>
   </g>
   <g id="Poly3DCollection_2">
    <path d="M 211.825448 171.328093 
L 211.855103 171.346945 
L 212.647505 171.781595 
L 213.439907 171.960692 
L 214.232309 172.016112 
L 215.024711 171.947588 
L 215.817113 171.756563 
L 216.609515 171.344747 
L 216.639172 171.328093 
L 216.609515 171.30924 
L 215.817113 170.874591 
L 215.024711 170.695494 
L 214.232309 170.640074 
L 213.439907 170.708598 
L 212.647505 170.899623 
L 211.855103 171.31144 
z
M 212.647505 171.263556 
L 213.439907 170.882179 
L 214.232309 170.749363 
L 215.024711 170.872747 
L 215.817113 171.259785 
L 215.938681 171.328093 
L 215.817113 171.39263 
L 215.024711 171.774007 
L 214.232309 171.906823 
L 213.439907 171.783439 
L 212.647505 171.3964 
L 212.525938 171.328093 
z
" clip-path="url(#p38bf2002e8)" style="fill: #6600a7"/>
   </g>
   <g id="Poly3DCollection_3">
    <path d="M 212.510185 171.332857 
L 212.633213 171.401986 
L 213.435143 171.793678 
L 214.237073 171.918545 
L 215.039003 171.784132 
L 215.840933 171.39817 
L 215.963962 171.332857 
L 215.840933 171.263728 
L 215.039003 170.872036 
L 214.237073 170.747168 
L 213.435143 170.881581 
L 212.633213 171.267544 
z
M 213.435143 171.05725 
L 214.237073 170.857771 
L 215.039003 171.05142 
L 215.56508 171.332857 
L 215.039003 171.608464 
L 214.237073 171.807942 
L 213.435143 171.614294 
L 212.909066 171.332857 
z
" clip-path="url(#p38bf2002e8)" style="fill: #9511a1"/>
   </g>
   <g id="Poly3DCollection_4">
    <path d="M 212.897784 171.337737 
L 213.430263 171.622599 
L 214.241953 171.818604 
L 215.053643 171.616698 
L 215.586123 171.337737 
L 215.053643 171.052875 
L 214.241953 170.856869 
L 213.430263 171.058776 
z
M 213.430263 171.236582 
L 214.241953 170.968818 
L 215.053643 171.234442 
L 215.246727 171.337737 
L 215.053643 171.438892 
L 214.241953 171.706655 
L 213.430263 171.441031 
L 213.23718 171.337737 
z
" clip-path="url(#p38bf2002e8)" style="fill: #bc3587"/>
   </g>
   <g id="Poly3DCollection_5">
    <path d="M 213.229801 171.342737 
L 213.425263 171.447304 
L 214.246953 171.7162 
L 215.068643 171.445138 
L 215.264106 171.342737 
L 215.068643 171.23817 
L 214.246953 170.969273 
L 213.425263 171.240336 
z
M 214.246953 171.082602 
L 214.938723 171.342737 
L 214.246953 171.602872 
L 213.555183 171.342737 
z
" clip-path="url(#p38bf2002e8)" style="fill: #da5a6a"/>
   </g>
   <g id="Poly3DCollection_6">
    <path d="M 213.551679 171.347862 
L 214.252078 171.611242 
L 214.952477 171.347862 
L 214.252078 171.084482 
z
M 214.252078 171.199224 
L 214.647347 171.347862 
L 214.252078 171.4965 
L 213.856809 171.347862 
z
" clip-path="url(#p38bf2002e8)" style="fill: #f0804e"/>
   </g>
   <g id="Poly3DCollection_7">
    <path d="M 213.857071 171.353116 
L 214.257332 171.503632 
L 214.657594 171.353116 
L 214.257332 171.202601 
z
M 214.257332 171.318792 
L 214.34861 171.353116 
L 214.257332 171.38744 
L 214.166055 171.353116 
z
" clip-path="url(#p38bf2002e8)" style="fill: #fdac33"/>
   </g>
   <g id="Poly3DCollection_8">
    <path d="M 214.170276 171.358505 
L 214.262721 171.393268 
L 214.355166 171.358505 
L 214.262721 171.323742 
z
" clip-path="url(#p38bf2002e8)" style="fill: #f8df25"/>
   </g>
  </g>
  <g id="axes_2">
   <g id="patch_6">
    <path d="M 361.152 241.056 
L 387.7632 241.056 
L 387.7632 108 
L 361.152 108 
z
" style="fill: #ffffff"/>
   </g>
   <g id="patch_7">
    <path clip-path="url(#p5d96dd8bec)" style="fill: #ffffff; stroke: #ffffff; stroke-width: 0.01; stroke-linejoin: miter"/>
   </g>
   <g id="QuadMesh_1">
    <path d="M 361.152 241.056 
L 387.7632 241.056 
L 387.7632 224.424 
L 361.152 224.424 
L 361.152 241.056 
" clip-path="url(#p5d96dd8bec)" style="fill: #310597"/>
    <path d="M 361.152 224.424 
L 387.7632 224.424 
L 387.7632 207.792 
L 361.152 207.792 
L 361.152 224.424 
" clip-path="url(#p5d96dd8bec)" style="fill: #6600a7"/>
    <path d="M 361.152 207.792 
L 387.7632 207.792 
L 387.7632 191.16 
L 361.152 191.16 
L 361.152 207.792 
" clip-path="url(#p5d96dd8bec)" style="fill: #9511a1"/>
    <path d="M 361.152 191.16 
L 387.7632 191.16 
L 387.7632 174.528 
L 361.152 174.528 
L 361.152 191.16 
" clip-path="url(#p5d96dd8bec)" style="fill: #bc3587"/>
    <path d="M 361.152 174.528 
L 387.7632 174.528 
L 387.7632 157.896 
L 361.152 157.896 
L 361.152 174.528 
" clip-path="url(#p5d96dd8bec)" style="fill: #da5a6a"/>
    <path d="M 361.152 157.896 
L 387.7632 157.896 
L 387.7632 141.264 
L 361.152 141.264 
L 361.152 157.896 
" clip-path="url(#p5d96dd8bec)" style="fill: #f0804e"/>
    <path d="M 361.152 141.264 
L 387.7632 141.264 
L 387.7632 124.632 
L 361.152 124.632 
L 361.152 141.264 
" clip-path="url(#p5d96dd8bec)" style="fill: #fdac33"/>
    <path d="M 361.152 124.632 
L 387.7632 124.632 
L 387.7632 108 
L 361.152 108 
L 361.152 124.632 
" clip-path="url(#p5d96dd8bec)" style="fill: #f8df25"/>
   </g>
   <g id="matplotlib.axis_1">
    <g id="ytick_1">
     <g id="line2d_22">
      <defs>
       <path id="m2b814239e0" d="M 0 0 
L 3.5 0 
" style="stroke: #000000; stroke-width: 0.8"/>
      </defs>
      <g>
       <use xlink:href="#m2b814239e0" x="387.7632" y="241.056" style="stroke: #000000; stroke-width: 0.8"/>
      </g>
     </g>
     <g id="text_24">
      <!-- 0.0 -->
      <g transform="translate(394.7632 244.855219)scale(0.1 -0.1)">
       <use xlink:href="#DejaVuSans-30"/>
       <use xlink:href="#DejaVuSans-2e" x="63.623047"/>
       <use xlink:href="#DejaVuSans-30" x="95.410156"/>
      </g>
     </g>
    </g>
    <g id="ytick_2">
     <g id="line2d_23">
      <g>
       <use xlink:href="#m2b814239e0" x="387.7632" y="224.424" style="stroke: #000000; stroke-width: 0.8"/>
      </g>
     </g>
     <g id="text_25">
      <!-- 0.6 -->
      <g transform="translate(394.7632 228.223219)scale(0.1 -0.1)">
       <defs>
        <path id="DejaVuSans-36" d="M 2113 2584 
Q 1688 2584 1439 2293 
Q 1191 2003 1191 1497 
Q 1191 994 1439 701 
Q 1688 409 2113 409 
Q 2538 409 2786 701 
Q 3034 994 3034 1497 
Q 3034 2003 2786 2293 
Q 2538 2584 2113 2584 
z
M 3366 4563 
L 3366 3988 
Q 3128 4100 2886 4159 
Q 2644 4219 2406 4219 
Q 1781 4219 1451 3797 
Q 1122 3375 1075 2522 
Q 1259 2794 1537 2939 
Q 1816 3084 2150 3084 
Q 2853 3084 3261 2657 
Q 3669 2231 3669 1497 
Q 3669 778 3244 343 
Q 2819 -91 2113 -91 
Q 1303 -91 875 529 
Q 447 1150 447 2328 
Q 447 3434 972 4092 
Q 1497 4750 2381 4750 
Q 2619 4750 2861 4703 
Q 3103 4656 3366 4563 
z
" transform="scale(0.015625)"/>
       </defs>
       <use xlink:href="#DejaVuSans-30"/>
       <use xlink:href="#DejaVuSans-2e" x="63.623047"/>
       <use xlink:href="#DejaVuSans-36" x="95.410156"/>
      </g>
     </g>
    </g>
    <g id="ytick_3">
     <g id="line2d_24">
      <g>
       <use xlink:href="#m2b814239e0" x="387.7632" y="207.792" style="stroke: #000000; stroke-width: 0.8"/>
      </g>
     </g>
     <g id="text_26">
      <!-- 1.2 -->
      <g transform="translate(394.7632 211.591219)scale(0.1 -0.1)">
       <use xlink:href="#DejaVuSans-31"/>
       <use xlink:href="#DejaVuSans-2e" x="63.623047"/>
       <use xlink:href="#DejaVuSans-32" x="95.410156"/>
      </g>
     </g>
    </g>
    <g id="ytick_4">
     <g id="line2d_25">
      <g>
       <use xlink:href="#m2b814239e0" x="387.7632" y="191.16" style="stroke: #000000; stroke-width: 0.8"/>
      </g>
     </g>
     <g id="text_27">
      <!-- 1.8 -->
      <g transform="translate(394.7632 194.959219)scale(0.1 -0.1)">
       <defs>
        <path id="DejaVuSans-38" d="M 2034 2216 
Q 1584 2216 1326 1975 
Q 1069 1734 1069 1313 
Q 1069 891 1326 650 
Q 1584 409 2034 409 
Q 2484 409 2743 651 
Q 3003 894 3003 1313 
Q 3003 1734 2745 1975 
Q 2488 2216 2034 2216 
z
M 1403 2484 
Q 997 2584 770 2862 
Q 544 3141 544 3541 
Q 544 4100 942 4425 
Q 1341 4750 2034 4750 
Q 2731 4750 3128 4425 
Q 3525 4100 3525 3541 
Q 3525 3141 3298 2862 
Q 3072 2584 2669 2484 
Q 3125 2378 3379 2068 
Q 3634 1759 3634 1313 
Q 3634 634 3220 271 
Q 2806 -91 2034 -91 
Q 1263 -91 848 271 
Q 434 634 434 1313 
Q 434 1759 690 2068 
Q 947 2378 1403 2484 
z
M 1172 3481 
Q 1172 3119 1398 2916 
Q 1625 2713 2034 2713 
Q 2441 2713 2670 2916 
Q 2900 3119 2900 3481 
Q 2900 3844 2670 4047 
Q 2441 4250 2034 4250 
Q 1625 4250 1398 4047 
Q 1172 3844 1172 3481 
z
" transform="scale(0.015625)"/>
       </defs>
       <use xlink:href="#DejaVuSans-31"/>
       <use xlink:href="#DejaVuSans-2e" x="63.623047"/>
       <use xlink:href="#DejaVuSans-38" x="95.410156"/>
      </g>
     </g>
    </g>
    <g id="ytick_5">
     <g id="line2d_26">
      <g>
       <use xlink:href="#m2b814239e0" x="387.7632" y="174.528" style="stroke: #000000; stroke-width: 0.8"/>
      </g>
     </g>
     <g id="text_28">
      <!-- 2.4 -->
      <g transform="translate(394.7632 178.327219)scale(0.1 -0.1)">
       <use xlink:href="#DejaVuSans-32"/>
       <use xlink:href="#DejaVuSans-2e" x="63.623047"/>
       <use xlink:href="#DejaVuSans-34" x="95.410156"/>
      </g>
     </g>
    </g>
    <g id="ytick_6">
     <g id="line2d_27">
      <g>
       <use xlink:href="#m2b814239e0" x="387.7632" y="157.896" style="stroke: #000000; stroke-width: 0.8"/>
      </g>
     </g>
     <g id="text_29">
      <!-- 3.0 -->
      <g transform="translate(394.7632 161.695219)scale(0.1 -0.1)">
       <use xlink:href="#DejaVuSans-33"/>
       <use xlink:href="#DejaVuSans-2e" x="63.623047"/>
       <use xlink:href="#DejaVuSans-30" x="95.410156"/>
      </g>
     </g>
    </g>
    <g id="ytick_7">
     <g id="line2d_28">
      <g>
       <use xlink:href="#m2b814239e0" x="387.7632" y="141.264" style="stroke: #000000; stroke-width: 0.8"/>
      </g>
     </g>
     <g id="text_30">
      <!-- 3.6 -->
      <g transform="translate(394.7632 145.063219)scale(0.1 -0.1)">
       <use xlink:href="#DejaVuSans-33"/>
       <use xlink:href="#DejaVuSans-2e" x="63.623047"/>
       <use xlink:href="#DejaVuSans-36" x="95.410156"/>
      </g>
     </g>
    </g>
    <g id="ytick_8">
     <g id="line2d_29">
      <g>
       <use xlink:href="#m2b814239e0" x="387.7632" y="124.632" style="stroke: #000000; stroke-width: 0.8"/>
      </g>
     </g>
     <g id="text_31">
      <!-- 4.2 -->
      <g transform="translate(394.7632 128.431219)scale(0.1 -0.1)">
       <use xlink:href="#DejaVuSans-34"/>
       <use xlink:href="#DejaVuSans-2e" x="63.623047"/>
       <use xlink:href="#DejaVuSans-32" x="95.410156"/>
      </g>
     </g>
    </g>
    <g id="ytick_9">
     <g id="line2d_30">
      <g>
       <use xlink:href="#m2b814239e0" x="387.7632" y="108" style="stroke: #000000; stroke-width: 0.8"/>
      </g>
     </g>
     <g id="text_32">
      <!-- 4.8 -->
      <g transform="translate(394.7632 111.799219)scale(0.1 -0.1)">
       <use xlink:href="#DejaVuSans-34"/>
       <use xlink:href="#DejaVuSans-2e" x="63.623047"/>
       <use xlink:href="#DejaVuSans-38" x="95.410156"/>
      </g>
     </g>
    </g>
    <g id="text_33">
     <!-- 1e12 -->
     <g transform="translate(362.522575 105)scale(0.1 -0.1)">
      <use xlink:href="#DejaVuSans-31"/>
      <use xlink:href="#DejaVuSans-65" x="63.623047"/>
      <use xlink:href="#DejaVuSans-31" x="125.146484"/>
      <use xlink:href="#DejaVuSans-32" x="188.769531"/>
     </g>
    </g>
   </g>
   <g id="LineCollection_1"/>
   <g id="patch_8">
    <path d="M 361.152 241.056 
L 374.4576 241.056 
L 387.7632 241.056 
L 387.7632 108 
L 374.4576 108 
L 361.152 108 
L 361.152 241.056 
z
" style="fill: none; stroke: #000000; stroke-width: 0.8; stroke-linejoin: miter; stroke-linecap: square"/>
   </g>
  </g>
 </g>
 <defs>
  <clipPath id="p38bf2002e8">
   <rect x="77.184" y="41.472" width="266.112" height="266.112"/>
  </clipPath>
  <clipPath id="p5d96dd8bec">
   <rect x="361.152" y="108" width="26.6112" height="133.056"/>
  </clipPath>
 </defs>
</svg>
